
<svg xmlns="http://www.w3.org/2000/svg" xmlns:xlink="http://www.w3.org/1999/xlink" width="400" zoomAndPan="magnify" viewBox="0 0 300 299.999988" height="400" preserveAspectRatio="xMidYMid meet" version="1.0"><defs><clipPath id="a0e96b1fef"><path d="M 204 21.769531 L 235 21.769531 L 235 35 L 204 35 Z M 204 21.769531 " clip-rule="nonzero"/></clipPath><clipPath id="6a70640432"><path d="M 222 21.769531 L 246 21.769531 L 246 66 L 222 66 Z M 222 21.769531 " clip-rule="nonzero"/></clipPath><clipPath id="4b60f57e72"><path d="M 9.019531 107.40625 L 122 107.40625 L 122 240.753906 L 9.019531 240.753906 Z M 9.019531 107.40625 " clip-rule="nonzero"/></clipPath><clipPath id="76e9f6cbb5"><path d="M 9.019531 158.214844 L 41.609375 158.214844 L 41.609375 240.753906 L 9.019531 240.753906 Z M 9.019531 158.214844 " clip-rule="nonzero"/></clipPath><clipPath id="46ae9b65e7"><path d="M 224.558594 182 L 294.699219 182 L 294.699219 240.753906 L 224.558594 240.753906 Z M 224.558594 182 " clip-rule="nonzero"/></clipPath><clipPath id="2a787361c6"><path d="M 232 211 L 254.289062 211 L 254.289062 240.753906 L 232 240.753906 Z M 232 211 " clip-rule="nonzero"/></clipPath><clipPath id="c3d28c8a3e"><path d="M 119 21.769531 L 223 21.769531 L 223 181 L 119 181 Z M 119 21.769531 " clip-rule="nonzero"/></clipPath><clipPath id="edd924f78e"><path d="M 75 21.769531 L 179 21.769531 L 179 181 L 75 181 Z M 75 21.769531 " clip-rule="nonzero"/></clipPath><clipPath id="96dcba1c9a"><path d="M 148 21.769531 L 169 21.769531 L 169 22 L 148 22 Z M 148 21.769531 " clip-rule="nonzero"/></clipPath><clipPath id="2e64497bdb"><path d="M 75 21.769531 L 169 21.769531 L 169 125 L 75 125 Z M 75 21.769531 " clip-rule="nonzero"/></clipPath></defs><g clip-path="url(#a0e96b1fef)"><path fill="#ffffff" d="M 204.242188 34.011719 L 234.003906 34.011719 L 234.003906 21.769531 L 204.242188 21.769531 L 204.242188 34.011719 " fill-opacity="1" fill-rule="nonzero"/></g><g clip-path="url(#6a70640432)"><path fill="#9acadb" d="M 234.003906 21.769531 C 227.476562 21.769531 222.183594 27.054688 222.183594 33.574219 L 222.183594 65.339844 L 245.824219 65.339844 L 245.824219 33.574219 C 245.824219 27.054688 240.53125 21.769531 234.003906 21.769531 " fill-opacity="1" fill-rule="nonzero"/></g><path fill="#9acadb" d="M 222.242188 85.96875 L 258.757812 85.96875 L 258.757812 62.132812 L 222.242188 62.132812 L 222.242188 85.96875 " fill-opacity="1" fill-rule="nonzero"/><path fill="#f5fdff" d="M 245.824219 75.277344 C 245.824219 81.179688 250.617188 85.96875 256.527344 85.96875 L 258.757812 85.96875 C 264.667969 85.96875 269.460938 81.179688 269.460938 75.277344 L 269.460938 50.226562 L 245.824219 50.226562 L 245.824219 75.277344 " fill-opacity="1" fill-rule="nonzero"/><path fill="#ffffff" d="M 84.335938 54.179688 C 84.335938 54.179688 82.410156 55.128906 81.917969 55.023438 C 81.3125 54.898438 79.953125 53.265625 79.953125 53.265625 C 79.953125 53.265625 80.683594 55.128906 80.578125 55.621094 C 80.453125 56.222656 79.035156 57.644531 79.035156 57.644531 C 79.035156 57.644531 80.800781 56.894531 81.402344 57.019531 C 81.894531 57.121094 83.417969 58.558594 83.417969 58.558594 C 83.417969 58.558594 82.648438 56.792969 82.765625 56.21875 C 82.875 55.699219 84.335938 54.179688 84.335938 54.179688 " fill-opacity="1" fill-rule="nonzero"/><path fill="#ed7b59" d="M 138.710938 87.320312 C 136.792969 86.894531 135.128906 87.570312 133.640625 88.171875 C 132.199219 88.757812 131.222656 89.449219 130.417969 90.03125 C 127.140625 92.414062 124.949219 94.308594 123.78125 95.257812 C 118.738281 99.351562 117.738281 100.285156 115.792969 100.519531 C 109.835938 101.230469 119.367188 116.933594 119.367188 116.933594 C 119.367188 116.933594 124.730469 110.945312 133.730469 104.074219 C 133.730469 104.074219 139.023438 99.667969 141.382812 96.21875 C 143.457031 93.1875 143.355469 91.945312 143.269531 91.441406 C 142.902344 89.261719 140.613281 87.738281 138.710938 87.320312 " fill-opacity="1" fill-rule="nonzero"/><path fill="#c15640" d="M 124.855469 102.160156 C 124.722656 101.980469 124.476562 101.933594 124.292969 102.054688 L 124.289062 102.054688 C 124.089844 102.183594 124.035156 102.453125 124.175781 102.648438 C 125.789062 104.84375 128.113281 105.511719 128.902344 105.738281 L 128.941406 105.75 L 129.171875 104.949219 L 129.132812 104.9375 C 128.414062 104.730469 126.300781 104.121094 124.855469 102.160156 " fill-opacity="1" fill-rule="nonzero"/><path fill="#ed7b59" d="M 155.730469 97.90625 C 153.875 97.257812 152.144531 97.730469 150.59375 98.148438 C 149.09375 98.558594 148.042969 99.128906 147.171875 99.617188 C 143.632812 101.589844 141.230469 103.207031 139.957031 104.011719 C 134.464844 107.472656 122.792969 115.46875 122.203125 116.035156 C 113.742188 124.175781 112.9375 138.253906 112.417969 149.84375 C 112.101562 156.800781 111.507812 169.914062 115.820312 171.265625 C 116.65625 171.53125 116.925781 171.113281 122.75 168.292969 C 128.347656 165.578125 130.414062 164.839844 133.570312 162.464844 C 136.398438 160.335938 137.125 159.132812 137.519531 158.21875 C 138.351562 156.292969 139.027344 154.1875 138.007812 152.148438 C 137.886719 151.90625 137.207031 151.046875 136.851562 150.632812 C 135.519531 149.074219 133.507812 148.839844 132.71875 148.75 C 127.828125 148.179688 116.636719 153.351562 116.609375 153.300781 C 116.492188 153.078125 124.9375 149.234375 124.9375 149.234375 C 127.082031 148.121094 129.496094 146.886719 131.855469 145.214844 C 132.367188 146.125 132.707031 146.6875 132.707031 146.6875 C 132.707031 146.6875 138.070312 140.695312 147.066406 133.824219 C 147.066406 133.824219 152.359375 129.417969 154.71875 125.972656 C 156.792969 122.941406 156.691406 121.695312 156.605469 121.195312 C 156.242188 119.015625 153.949219 117.488281 152.050781 117.066406 C 150.128906 116.644531 148.46875 117.316406 146.980469 117.921875 C 145.535156 118.507812 144.5625 119.199219 143.753906 119.785156 C 140.476562 122.167969 138.289062 124.058594 137.117188 125.007812 C 132.8125 128.503906 131.453125 129.695312 129.933594 130.113281 C 137.066406 124.746094 154.890625 109.832031 157.320312 107.0625 C 159.742188 104.300781 159.789062 103.054688 159.765625 102.546875 C 159.660156 100.339844 157.566406 98.550781 155.730469 97.90625 " fill-opacity="1" fill-rule="nonzero"/><path fill="#c15640" d="M 142.25 120.730469 C 142.105469 120.554688 141.84375 120.523438 141.664062 120.667969 L 124.476562 134.539062 C 124.296875 134.683594 124.269531 134.945312 124.414062 135.125 C 124.558594 135.304688 124.824219 135.332031 125 135.1875 L 142.191406 121.320312 C 142.371094 121.175781 142.398438 120.910156 142.25 120.730469 " fill-opacity="1" fill-rule="nonzero"/><path fill="#c15640" d="M 144.375 113.753906 C 143.300781 113.273438 141.90625 112.417969 140.738281 110.933594 C 140.019531 110.027344 139.480469 109.003906 139.132812 107.890625 C 139.066406 107.675781 138.839844 107.554688 138.625 107.613281 C 138.394531 107.671875 138.261719 107.914062 138.335938 108.140625 C 138.710938 109.351562 139.296875 110.460938 140.078125 111.453125 C 141.355469 113.066406 142.871094 113.996094 144.035156 114.515625 C 144.25 114.609375 144.503906 114.507812 144.59375 114.289062 C 144.675781 114.078125 144.578125 113.84375 144.375 113.753906 " fill-opacity="1" fill-rule="nonzero"/><path fill="#c15640" d="M 142.535156 133.101562 C 141.625 132.789062 140.445312 132.191406 139.398438 131.070312 C 138.464844 130.066406 137.964844 128.996094 137.699219 128.167969 C 137.628906 127.957031 137.410156 127.835938 137.191406 127.894531 C 136.964844 127.953125 136.828125 128.195312 136.902344 128.421875 C 137.195312 129.332031 137.75 130.527344 138.789062 131.640625 C 139.949219 132.882812 141.253906 133.542969 142.257812 133.886719 C 142.484375 133.96875 142.734375 133.839844 142.800781 133.609375 C 142.859375 133.398438 142.746094 133.175781 142.535156 133.101562 " fill-opacity="1" fill-rule="nonzero"/><g clip-path="url(#4b60f57e72)"><path fill="#fba78d" d="M 70.140625 215.921875 C 73.121094 213.652344 75.804688 212.695312 76.847656 212.289062 C 89.570312 207.316406 109.550781 185.417969 119.007812 173.125 C 123.378906 167.449219 121.3125 163.703125 119.988281 160.375 C 118.832031 157.46875 115.277344 157.144531 111.859375 151.976562 C 110.511719 149.9375 109.957031 148.3125 109.402344 146.875 C 106.777344 140.046875 103.09375 130.472656 96.539062 126.332031 C 90.574219 122.5625 82.269531 123.324219 76.953125 125.652344 C 70.398438 128.519531 62.144531 136.496094 59.96875 138.59375 C 58.449219 140.0625 55.746094 143.441406 54.101562 142.457031 C 51.917969 141.152344 55.21875 136.101562 54.921875 130.125 C 54.863281 128.964844 60.484375 128.75 62.378906 119.597656 C 62.539062 118.824219 62.671875 116.222656 62.523438 112.339844 C 62.414062 109.539062 62.257812 108.429688 61.480469 107.992188 C 60.605469 107.5 59.40625 108.101562 58.210938 108.703125 C 57.773438 108.925781 56.308594 109.699219 53.976562 112.214844 C 52.019531 114.324219 52.253906 114.644531 51.105469 115.378906 C 50.539062 115.742188 50.363281 115.742188 47.050781 116.957031 C 44.695312 117.820312 44.429688 117.953125 44.085938 118.203125 C 42.886719 119.078125 42.328125 120.253906 41.773438 121.617188 C 40.441406 124.929688 39.824219 127.757812 39.644531 128.597656 C 38.261719 135.054688 38.492188 135.339844 37.632812 138.050781 C 36.835938 140.574219 36.578125 140.503906 35.695312 143.371094 C 35.226562 144.886719 34.410156 147.535156 34.113281 150.324219 C 33.78125 153.417969 34.1875 155.695312 34.824219 159.089844 C 35.839844 164.535156 36.816406 169.992188 37.835938 175.441406 C 38.667969 179.882812 39.332031 183.316406 38.160156 187.527344 C 37.339844 190.480469 22.480469 217.074219 9.152344 240.753906 L 60.058594 240.753906 C 64.65625 228.050781 69.753906 216.214844 70.140625 215.921875 " fill-opacity="1" fill-rule="nonzero"/></g><path fill="#ffffff" d="M 53.976562 112.214844 C 52.84375 113.4375 52.445312 114.058594 52.089844 114.507812 C 52.246094 114.667969 52.464844 114.78125 52.617188 114.839844 C 53.023438 114.988281 53.402344 114.894531 53.628906 114.832031 C 55.6875 114.257812 57.210938 113.050781 57.210938 113.050781 C 58.460938 112.066406 59.121094 111.148438 59.609375 110.457031 C 59.792969 110.195312 60.230469 109.554688 60.433594 108.628906 C 60.480469 108.429688 60.550781 108.101562 60.546875 107.820312 C 59.832031 107.890625 59.019531 108.296875 58.210938 108.703125 C 57.773438 108.925781 56.308594 109.699219 53.976562 112.214844 " fill-opacity="1" fill-rule="nonzero"/><path fill="#ed7b59" d="M 66.886719 132.351562 C 63.703125 134.988281 61.0625 137.535156 59.96875 138.59375 C 58.679688 139.835938 54.488281 145.835938 53.210938 140.691406 C 53.300781 141.957031 53.367188 142.675781 53.683594 144.058594 C 54.441406 147.332031 56.964844 152.222656 57.550781 153.890625 C 64.648438 174.101562 60.167969 177.996094 62.285156 178.152344 C 65.914062 178.417969 79.523438 150.910156 69.367188 135.5 C 68.582031 134.3125 67.738281 133.269531 66.886719 132.351562 " fill-opacity="1" fill-rule="nonzero"/><path fill="#d86a50" d="M 53.5625 142.070312 C 53.558594 141.960938 53.554688 141.859375 53.546875 141.753906 C 53.511719 141.351562 53.445312 140.503906 54.179688 137.113281 C 54.273438 136.675781 54.363281 136.277344 54.453125 135.890625 C 54.761719 134.535156 55.003906 133.464844 55.003906 132.496094 C 55.007812 131.160156 55.003906 130.949219 55.003906 130.945312 C 55 130.585938 54.992188 130.351562 54.988281 130.191406 C 54.988281 130.113281 54.984375 130.054688 54.984375 130.015625 C 54.980469 129.898438 55.039062 129.796875 55.132812 129.738281 C 55.28125 129.644531 55.515625 129.535156 55.714844 129.4375 C 57.222656 128.714844 60.332031 127.222656 62.105469 121.332031 C 62.15625 121.164062 62.058594 120.980469 61.886719 120.933594 C 61.71875 120.882812 61.542969 120.980469 61.496094 121.144531 C 59.804688 126.769531 56.863281 128.179688 55.4375 128.867188 C 54.855469 129.140625 54.472656 129.328125 54.378906 129.683594 C 54.339844 129.832031 54.34375 129.914062 54.351562 130.210938 C 54.355469 130.367188 54.363281 130.597656 54.367188 130.953125 C 54.367188 130.960938 54.371094 131.171875 54.367188 132.492188 C 54.367188 133.394531 54.140625 134.382812 53.832031 135.746094 C 53.742188 136.136719 53.648438 136.539062 53.554688 136.980469 C 52.796875 140.460938 52.875 141.371094 52.910156 141.808594 C 52.917969 141.894531 52.921875 141.996094 52.925781 142.097656 C 52.945312 142.59375 52.96875 143.269531 53.394531 144.191406 C 65.320312 170.082031 62.222656 186.015625 57.421875 194.886719 C 57.339844 195.039062 57.394531 195.230469 57.550781 195.316406 C 57.703125 195.402344 57.898438 195.34375 57.980469 195.1875 C 60.78125 190.015625 62.230469 183.894531 62.28125 176.996094 C 62.355469 167.179688 59.5625 156.054688 53.972656 143.925781 C 53.601562 143.117188 53.582031 142.539062 53.5625 142.070312 " fill-opacity="1" fill-rule="nonzero"/><g clip-path="url(#76e9f6cbb5)"><path fill="#ed7b59" d="M 38.457031 173.832031 C 37.488281 169.980469 34.1875 155.695312 34.824219 159.089844 C 35.839844 164.535156 36.816406 169.992188 37.835938 175.441406 C 38.667969 179.882812 39.351562 182.214844 38.417969 186.484375 C 37.960938 188.554688 22.703125 216.171875 9.019531 240.753906 L 16.941406 240.753906 C 26.441406 221.160156 36.6875 199.710938 38.375 196.511719 C 42.785156 188.140625 41.695312 186.699219 38.457031 173.832031 " fill-opacity="1" fill-rule="nonzero"/></g><path fill="#d86a50" d="M 60.753906 108.003906 C 60.597656 108.007812 60.46875 108.125 60.449219 108.273438 C 60.332031 109.023438 59.785156 111.238281 57.273438 113.171875 C 56.515625 113.753906 55.796875 114.132812 55.261719 114.371094 C 55.105469 114.441406 55.03125 114.621094 55.09375 114.78125 C 55.164062 114.949219 55.355469 115.027344 55.519531 114.953125 C 56.261719 114.625 56.996094 114.1875 57.664062 113.675781 C 60.347656 111.609375 60.945312 109.261719 61.078125 108.367188 C 61.105469 108.175781 60.949219 108 60.753906 108.003906 " fill-opacity="1" fill-rule="nonzero"/><path fill="#d86a50" d="M 67.875 213.722656 C 63.804688 212.863281 59.972656 211.308594 56.476562 209.089844 C 52.359375 206.476562 48.773438 202.9375 46.078125 198.828125 C 45.953125 198.636719 45.699219 198.582031 45.503906 198.703125 C 45.308594 198.828125 45.25 199.089844 45.378906 199.285156 C 48.136719 203.492188 51.8125 207.117188 56.03125 209.792969 C 59.609375 212.066406 63.535156 213.660156 67.707031 214.539062 C 67.933594 214.585938 68.15625 214.4375 68.203125 214.210938 C 68.246094 213.988281 68.097656 213.769531 67.875 213.722656 " fill-opacity="1" fill-rule="nonzero"/><path fill="#d86a50" d="M 65.683594 216.855469 C 60.628906 216.246094 55.921875 214.679688 51.6875 212.183594 C 50.0625 211.226562 48.503906 210.128906 47.046875 208.914062 C 46.871094 208.769531 46.609375 208.789062 46.457031 208.960938 C 46.308594 209.136719 46.328125 209.40625 46.507812 209.554688 C 48 210.800781 49.597656 211.921875 51.261719 212.90625 C 55.597656 215.457031 60.417969 217.0625 65.585938 217.683594 C 65.816406 217.710938 66.023438 217.542969 66.050781 217.3125 C 66.074219 217.085938 65.910156 216.882812 65.683594 216.855469 " fill-opacity="1" fill-rule="nonzero"/><path fill="#fba78d" d="M 250.507812 134.390625 C 248.78125 133.777344 247.164062 134.464844 246.472656 134.753906 C 245.371094 135.222656 245.101562 135.660156 243.414062 137.078125 C 240.945312 139.15625 240.097656 139.417969 237.179688 141.957031 C 235.613281 143.324219 235.394531 143.652344 235.226562 144.035156 C 234.085938 146.613281 236.1875 149.582031 236.324219 149.773438 C 236.695312 150.277344 237.566406 151.4375 239.136719 151.96875 C 239.648438 152.144531 240.34375 152.285156 241.339844 152.214844 C 243.398438 152.066406 245.078125 151.109375 247.816406 149.160156 C 250.984375 146.910156 252.433594 145.695312 253.074219 144.890625 C 254.976562 142.503906 254.636719 139.511719 253.320312 137.078125 C 252.988281 136.464844 252.191406 134.988281 250.507812 134.390625 " fill-opacity="1" fill-rule="nonzero"/><path fill="#d86a50" d="M 250.417969 146.355469 C 250.414062 146.359375 245.027344 151.328125 241.621094 151.628906 C 241.472656 151.640625 240.15625 151.71875 239.445312 151.515625 C 238.601562 151.273438 238.070312 150.8125 237.558594 150.367188 C 236.695312 149.613281 236.230469 148.785156 235.980469 148.339844 C 235.933594 148.261719 235.894531 148.191406 235.859375 148.136719 C 235.226562 147.082031 235.042969 146.070312 235.304688 145.042969 C 235.96875 142.421875 239.417969 140.390625 241.476562 139.175781 C 242.242188 138.726562 242.777344 138.410156 243.042969 138.152344 L 243.035156 137.988281 L 242.714844 137.722656 L 242.570312 137.722656 C 242.339844 137.925781 241.761719 138.269531 241.152344 138.628906 C 239.003906 139.894531 235.417969 142.007812 234.6875 144.886719 C 234.382812 146.070312 234.597656 147.273438 235.3125 148.464844 C 235.34375 148.515625 235.378906 148.578125 235.421875 148.652344 C 235.691406 149.132812 236.195312 150.023438 237.140625 150.847656 C 237.679688 151.316406 238.289062 151.847656 239.269531 152.128906 C 239.667969 152.242188 240.042969 152.28125 240.390625 152.28125 C 244.125 152.851562 250.585938 147.496094 250.972656 146.667969 C 251.242188 146.089844 250.550781 146.222656 250.417969 146.355469 " fill-opacity="1" fill-rule="nonzero"/><g clip-path="url(#46ae9b65e7)"><path fill="#fba78d" d="M 263.667969 183.386719 C 263.667969 183.386719 220.675781 193.585938 225.054688 201.386719 C 226.113281 203.273438 227.136719 205.023438 228.992188 207.402344 C 234.484375 214.449219 241.824219 220.066406 243.777344 228.425781 C 243.816406 228.597656 244.285156 234.011719 244.863281 240.753906 L 294.699219 240.753906 C 284.007812 215.734375 269.839844 186.453125 268.863281 182.085938 L 263.667969 183.386719 " fill-opacity="1" fill-rule="nonzero"/></g><path fill="#ef8c78" d="M 209.035156 178.625 C 214.289062 198.488281 238.253906 216.914062 239.605469 219.121094 C 246.800781 230.875 242.828125 194.132812 226.746094 175.460938 C 224.707031 173.089844 198.988281 140.667969 209.035156 178.625 " fill-opacity="1" fill-rule="nonzero"/><path fill="#ed7b59" d="M 230.046875 168.851562 C 210.324219 157.480469 189.527344 173.519531 189.605469 174.269531 C 189.671875 174.949219 213.746094 176.277344 221.851562 176.863281 C 223.578125 176.988281 221.367188 186.566406 244.425781 212.285156 C 247.96875 216.234375 251.804688 181.398438 230.046875 168.851562 " fill-opacity="1" fill-rule="nonzero"/><path fill="#fba78d" d="M 261.140625 155.953125 C 257.761719 149.167969 255.988281 140.839844 255.140625 135.621094 C 254.585938 132.199219 252.660156 129.152344 249.804688 127.183594 C 241.285156 121.300781 221.46875 109.019531 193.625 100.421875 C 192.660156 100.125 187.367188 100.347656 186.304688 101.46875 C 185.117188 102.722656 185.355469 105.035156 186.003906 106.558594 C 186.824219 108.488281 188.449219 109.519531 189.003906 109.855469 C 196.707031 114.523438 218.71875 118.867188 226.808594 129.628906 C 228.300781 131.617188 229.304688 135.847656 231.308594 144.308594 C 232.078125 147.5625 234.117188 156.789062 234.609375 169.476562 C 234.894531 176.933594 234.304688 176.753906 234.609375 180.5625 C 235.722656 194.675781 240.824219 214.195312 257.328125 211.339844 C 271.269531 208.925781 273.410156 197.925781 270.910156 188.347656 C 267.335938 174.652344 264.441406 162.585938 261.140625 155.953125 " fill-opacity="1" fill-rule="nonzero"/><path fill="#ef8c78" d="M 230.320312 138.253906 C 225.828125 133.105469 233.230469 153.058594 234.75 155.960938 C 235.613281 157.605469 236.496094 159.273438 237.976562 161.328125 C 241.039062 165.574219 242.734375 166.027344 247.054688 170.75 C 251.101562 175.179688 252.097656 177.496094 252.792969 177.195312 C 253.867188 176.71875 250.910156 169.914062 248.25 164.527344 C 247.316406 162.636719 234.742188 143.324219 230.320312 138.253906 " fill-opacity="1" fill-rule="nonzero"/><path fill="#d86a50" d="M 244.78125 150.476562 C 244.632812 150.332031 244.390625 150.335938 244.25 150.488281 C 243.367188 151.417969 242.574219 152.417969 241.886719 153.460938 C 240.425781 155.683594 239.449219 158.089844 238.984375 160.609375 C 238.945312 160.816406 239.085938 161.011719 239.292969 161.046875 L 239.375 161.058594 C 239.578125 161.09375 239.769531 160.957031 239.808594 160.753906 C 240.253906 158.34375 241.1875 156.046875 242.585938 153.917969 C 243.242188 152.917969 244.003906 151.960938 244.851562 151.0625 C 244.992188 150.914062 244.992188 150.679688 244.84375 150.535156 L 244.78125 150.476562 " fill-opacity="1" fill-rule="nonzero"/><g clip-path="url(#2a787361c6)"><path fill="#ef8c78" d="M 232.050781 211.042969 C 236.921875 216.527344 242.167969 221.546875 243.777344 228.425781 C 243.824219 228.613281 244.28125 234.199219 244.8125 240.753906 L 254.097656 240.753906 C 251.242188 227.46875 247.171875 214.894531 247.171875 214.894531 C 247.171875 214.894531 240.097656 218.019531 232.050781 211.042969 " fill-opacity="1" fill-rule="nonzero"/></g><path fill="#d86a50" d="M 210.683594 183.140625 C 210.195312 181.960938 209.640625 180.621094 209.300781 179.457031 C 208.890625 178.027344 208.515625 176.566406 208.195312 175.113281 C 208.152344 174.910156 207.953125 174.785156 207.753906 174.824219 L 207.667969 174.84375 C 207.464844 174.886719 207.335938 175.089844 207.378906 175.292969 C 207.703125 176.765625 208.082031 178.242188 208.5 179.6875 C 208.851562 180.898438 209.414062 182.257812 209.910156 183.457031 C 210.109375 183.9375 210.296875 184.394531 210.464844 184.8125 C 210.539062 185.007812 210.753906 185.101562 210.945312 185.027344 L 211.027344 185 C 211.222656 184.925781 211.320312 184.707031 211.242188 184.511719 C 211.074219 184.085938 210.882812 183.625 210.683594 183.140625 " fill-opacity="1" fill-rule="nonzero"/><path fill="#1c1c70" d="M 226.894531 66.824219 L 70.820312 66.824219 C 64.71875 66.824219 59.777344 71.761719 59.777344 77.851562 L 59.777344 175.683594 C 59.777344 181.773438 64.71875 186.710938 70.820312 186.710938 L 226.894531 186.710938 C 232.996094 186.710938 237.941406 181.773438 237.941406 175.683594 L 237.941406 77.851562 C 237.941406 71.761719 232.996094 66.824219 226.894531 66.824219 " fill-opacity="1" fill-rule="nonzero"/><path fill="#7db4d3" d="M 75.558594 179.769531 L 222.15625 179.769531 L 222.15625 73.765625 L 75.558594 73.765625 Z M 75.558594 179.769531 " fill-opacity="1" fill-rule="nonzero"/><path fill="#6ba3c9" d="M 75.601562 175.910156 L 75.601562 179.730469 L 222.097656 179.730469 L 222.097656 73.8125 L 219.339844 73.8125 C 215.542969 116.933594 185.519531 176.933594 75.601562 175.910156 " fill-opacity="1" fill-rule="nonzero"/><path fill="#86c5e0" d="M 75.601562 119.910156 L 75.601562 141.015625 L 149.832031 73.8125 L 126.527344 73.8125 L 75.601562 119.910156 " fill-opacity="1" fill-rule="nonzero"/><path fill="#0a0a44" d="M 68.609375 115.734375 C 67.738281 115.734375 67.027344 116.441406 67.027344 117.308594 L 67.027344 136.238281 C 67.027344 137.105469 67.738281 137.816406 68.609375 137.816406 C 69.476562 137.816406 70.1875 137.105469 70.1875 136.238281 L 70.1875 117.308594 C 70.1875 116.441406 69.476562 115.734375 68.609375 115.734375 " fill-opacity="1" fill-rule="nonzero"/><path fill="#0a0a44" d="M 68.609375 109.34375 C 67.734375 109.34375 67.027344 110.046875 67.027344 110.917969 C 67.027344 111.792969 67.734375 112.5 68.609375 112.5 C 69.480469 112.5 70.1875 111.792969 70.1875 110.917969 C 70.1875 110.046875 69.480469 109.34375 68.609375 109.34375 " fill-opacity="1" fill-rule="nonzero"/><g clip-path="url(#c3d28c8a3e)"><path fill="#ffffff" d="M 119.777344 29.28125 L 119.777344 180.304688 L 222.242188 180.304688 L 222.242188 21.804688 L 128.144531 21.804688 C 123.988281 22.734375 120.710938 25.632812 119.777344 29.28125 " fill-opacity="1" fill-rule="nonzero"/></g><g clip-path="url(#edd924f78e)"><path fill="#ffffff" d="M 75.695312 29.28125 L 75.695312 180.304688 L 178.164062 180.304688 L 178.164062 21.804688 L 84.066406 21.804688 C 79.910156 22.734375 76.628906 25.632812 75.695312 29.28125 " fill-opacity="1" fill-rule="nonzero"/></g><path fill="#ff4a4a" d="M 173.765625 52.746094 L 86.015625 52.746094 C 84.371094 52.746094 83.039062 54.042969 83.039062 55.644531 L 83.039062 72.03125 C 83.039062 73.632812 84.371094 74.929688 86.015625 74.929688 L 173.765625 74.929688 C 175.410156 74.929688 176.742188 73.632812 176.742188 72.03125 L 176.742188 55.644531 C 176.742188 54.042969 175.410156 52.746094 173.765625 52.746094 " fill-opacity="1" fill-rule="nonzero"/><path fill="#ffffff" d="M 103.011719 57.230469 C 102.609375 57.230469 102.269531 57.371094 102.03125 57.652344 C 101.796875 57.921875 101.660156 58.328125 101.660156 58.855469 L 101.660156 66.039062 L 96.921875 58.851562 C 96.78125 58.628906 96.652344 58.417969 96.523438 58.214844 C 96.386719 58 96.257812 57.828125 96.125 57.695312 C 95.988281 57.554688 95.828125 57.441406 95.648438 57.359375 C 95.464844 57.273438 95.246094 57.230469 94.996094 57.230469 C 94.671875 57.230469 94.367188 57.324219 94.089844 57.503906 C 93.8125 57.683594 93.632812 57.917969 93.511719 58.210938 C 93.410156 58.46875 93.390625 58.808594 93.390625 59.246094 L 93.390625 69.140625 C 93.390625 69.65625 93.488281 70.058594 93.726562 70.335938 C 93.976562 70.617188 94.296875 70.761719 94.703125 70.761719 C 95.09375 70.761719 95.425781 70.621094 95.679688 70.339844 C 95.929688 70.066406 96.058594 69.664062 96.058594 69.140625 L 96.058594 62.074219 L 100.683594 69.171875 C 100.824219 69.378906 100.960938 69.578125 101.101562 69.773438 C 101.246094 69.976562 101.40625 70.15625 101.578125 70.308594 C 101.75 70.464844 101.941406 70.578125 102.144531 70.652344 C 102.34375 70.722656 102.558594 70.761719 102.808594 70.761719 C 103.507812 70.761719 104.328125 70.445312 104.328125 68.941406 L 104.328125 58.855469 C 104.328125 58.328125 104.222656 57.921875 103.984375 57.652344 C 103.742188 57.371094 103.421875 57.230469 103.011719 57.230469 " fill-opacity="1" fill-rule="nonzero"/><path fill="#ffffff" d="M 115.730469 68.183594 L 109.800781 68.183594 L 109.800781 64.851562 L 115.066406 64.851562 C 115.503906 64.851562 115.832031 64.734375 116.050781 64.527344 C 116.269531 64.320312 116.382812 64.039062 116.382812 63.714844 C 116.382812 63.386719 116.269531 63.101562 116.046875 62.898438 C 115.824219 62.699219 115.496094 62.585938 115.066406 62.585938 L 109.800781 62.585938 L 109.800781 59.789062 L 115.53125 59.789062 C 115.976562 59.789062 116.320312 59.648438 116.542969 59.445312 C 116.773438 59.234375 116.890625 58.941406 116.890625 58.597656 C 116.890625 58.265625 116.773438 57.949219 116.542969 57.742188 C 116.320312 57.535156 115.976562 57.390625 115.53125 57.390625 L 108.664062 57.390625 C 108.277344 57.390625 107.953125 57.480469 107.699219 57.597656 C 107.433594 57.714844 107.269531 57.925781 107.144531 58.191406 C 107.027344 58.441406 107 58.785156 107 59.175781 L 107 68.816406 C 107 69.410156 107.105469 69.871094 107.375 70.144531 C 107.652344 70.421875 108.0625 70.578125 108.664062 70.578125 L 115.730469 70.578125 C 116.171875 70.578125 116.515625 70.453125 116.746094 70.242188 C 116.980469 70.027344 117.101562 69.738281 117.101562 69.394531 C 117.101562 69.042969 116.980469 68.734375 116.746094 68.519531 C 116.515625 68.308594 116.171875 68.183594 115.730469 68.183594 " fill-opacity="1" fill-rule="nonzero"/><path fill="#ffffff" d="M 132.921875 57.230469 C 132.546875 57.230469 132.253906 57.335938 132.050781 57.535156 C 131.859375 57.722656 131.722656 57.941406 131.640625 58.183594 C 131.566406 58.40625 131.488281 58.71875 131.40625 59.113281 L 129.839844 66.074219 L 128.082031 59.585938 C 127.925781 59.011719 127.796875 58.589844 127.703125 58.332031 C 127.601562 58.0625 127.417969 57.8125 127.160156 57.585938 C 126.894531 57.351562 126.523438 57.230469 126.050781 57.230469 C 125.589844 57.230469 125.21875 57.347656 124.945312 57.570312 C 124.675781 57.789062 124.480469 58.050781 124.359375 58.347656 C 124.25 58.632812 124.121094 59.050781 123.980469 59.589844 L 122.234375 66.074219 L 120.671875 59.113281 C 120.546875 58.527344 120.398438 58.070312 120.230469 57.757812 C 120.042969 57.410156 119.683594 57.230469 119.15625 57.230469 C 118.777344 57.230469 118.457031 57.363281 118.195312 57.613281 C 117.9375 57.863281 117.804688 58.179688 117.804688 58.546875 C 117.804688 58.824219 117.871094 59.207031 118.003906 59.726562 L 120.140625 68.359375 C 120.203125 68.617188 120.277344 68.898438 120.359375 69.195312 C 120.445312 69.507812 120.554688 69.78125 120.6875 70.007812 C 120.828125 70.246094 121.015625 70.433594 121.242188 70.5625 C 121.46875 70.695312 121.757812 70.761719 122.101562 70.761719 C 122.527344 70.761719 122.878906 70.648438 123.140625 70.429688 C 123.398438 70.214844 123.582031 69.964844 123.683594 69.691406 C 123.78125 69.433594 123.914062 69.007812 124.078125 68.421875 L 126.050781 61.207031 L 128 68.421875 L 128 68.425781 C 128.167969 69.023438 128.300781 69.457031 128.398438 69.707031 C 128.5 69.976562 128.679688 70.21875 128.9375 70.433594 C 129.199219 70.652344 129.546875 70.761719 129.976562 70.761719 C 130.429688 70.761719 130.789062 70.644531 131.042969 70.421875 C 131.289062 70.203125 131.46875 69.945312 131.570312 69.652344 C 131.667969 69.378906 131.789062 68.945312 131.9375 68.359375 L 134.074219 59.726562 C 134.207031 59.183594 134.273438 58.796875 134.273438 58.546875 C 134.273438 58.171875 134.136719 57.855469 133.875 57.605469 C 133.613281 57.359375 133.292969 57.230469 132.921875 57.230469 " fill-opacity="1" fill-rule="nonzero"/><path fill="#ffffff" d="M 144.390625 63.703125 C 143.972656 63.40625 143.457031 63.152344 142.859375 62.945312 C 142.273438 62.742188 141.605469 62.550781 140.882812 62.382812 C 140.308594 62.238281 139.890625 62.125 139.644531 62.050781 C 139.402344 61.976562 139.160156 61.875 138.925781 61.746094 C 138.695312 61.621094 138.515625 61.472656 138.386719 61.300781 C 138.265625 61.136719 138.203125 60.945312 138.203125 60.714844 C 138.203125 60.34375 138.386719 60.035156 138.769531 59.761719 C 139.152344 59.484375 139.675781 59.34375 140.316406 59.34375 C 141.003906 59.34375 141.503906 59.472656 141.808594 59.722656 C 142.117188 59.980469 142.386719 60.34375 142.617188 60.8125 C 142.804688 61.167969 142.976562 61.417969 143.144531 61.578125 C 143.324219 61.75 143.582031 61.835938 143.914062 61.835938 C 144.28125 61.835938 144.589844 61.699219 144.832031 61.421875 C 145.074219 61.152344 145.195312 60.839844 145.195312 60.5 C 145.195312 60.140625 145.101562 59.769531 144.921875 59.398438 C 144.738281 59.027344 144.445312 58.671875 144.054688 58.335938 C 143.664062 58.003906 143.167969 57.734375 142.578125 57.535156 C 141.992188 57.335938 141.289062 57.230469 140.488281 57.230469 C 139.488281 57.230469 138.605469 57.382812 137.863281 57.683594 C 137.113281 57.988281 136.53125 58.425781 136.132812 58.996094 C 135.734375 59.5625 135.527344 60.222656 135.527344 60.953125 C 135.527344 61.71875 135.722656 62.371094 136.101562 62.890625 C 136.476562 63.40625 136.996094 63.816406 137.636719 64.113281 C 138.261719 64.40625 139.050781 64.664062 139.976562 64.878906 C 140.660156 65.035156 141.210938 65.183594 141.617188 65.320312 C 142.007812 65.453125 142.328125 65.648438 142.570312 65.894531 C 142.808594 66.140625 142.921875 66.445312 142.921875 66.839844 C 142.921875 67.335938 142.703125 67.742188 142.253906 68.074219 C 141.796875 68.417969 141.191406 68.589844 140.453125 68.589844 C 139.917969 68.589844 139.480469 68.503906 139.160156 68.335938 C 138.835938 68.167969 138.578125 67.953125 138.40625 67.699219 C 138.21875 67.433594 138.046875 67.101562 137.890625 66.703125 C 137.746094 66.34375 137.574219 66.066406 137.371094 65.875 C 137.15625 65.675781 136.890625 65.578125 136.582031 65.578125 C 136.207031 65.578125 135.894531 65.707031 135.648438 65.957031 C 135.40625 66.207031 135.285156 66.507812 135.285156 66.859375 C 135.285156 67.425781 135.476562 68.011719 135.851562 68.605469 C 136.226562 69.195312 136.71875 69.671875 137.320312 70.027344 C 138.164062 70.515625 139.238281 70.761719 140.523438 70.761719 C 141.59375 70.761719 142.539062 70.578125 143.320312 70.226562 C 144.113281 69.867188 144.722656 69.359375 145.132812 68.722656 C 145.546875 68.085938 145.753906 67.359375 145.753906 66.5625 C 145.753906 65.894531 145.636719 65.320312 145.394531 64.859375 C 145.15625 64.394531 144.816406 64.007812 144.390625 63.703125 " fill-opacity="1" fill-rule="nonzero"/><path fill="#ffffff" d="M 163.929688 63.519531 C 163.894531 62.183594 163.636719 60.855469 163.1875 59.789062 L 164.863281 59.789062 C 165.726562 60.855469 166.269531 62.183594 166.34375 63.519531 Z M 164.863281 68.183594 L 163.1875 68.183594 C 163.636719 66.980469 163.894531 65.652344 163.929688 64.316406 L 166.34375 64.316406 C 166.269531 65.652344 165.726562 67.117188 164.863281 68.183594 Z M 161.914062 70.25 C 162.214844 69.933594 162.496094 69.550781 162.746094 69.101562 C 162.792969 69.019531 162.832031 68.847656 162.875 68.847656 L 164.21875 68.847656 C 163.558594 69.378906 162.777344 69.945312 161.914062 70.25 Z M 160.101562 70.621094 L 160.101562 68.847656 L 162.089844 68.847656 C 161.507812 69.78125 160.769531 70.480469 160.101562 70.621094 Z M 160.101562 64.316406 L 163.238281 64.316406 C 163.199219 65.652344 162.921875 66.980469 162.4375 68.183594 L 160.101562 68.183594 Z M 160.101562 59.789062 L 162.4375 59.789062 C 162.921875 60.855469 163.199219 62.183594 163.238281 63.519531 L 160.101562 63.519531 Z M 160.101562 57.347656 C 160.769531 57.492188 161.507812 58.054688 162.089844 58.988281 L 160.101562 58.988281 Z M 164.21875 58.988281 L 162.875 58.988281 C 162.832031 58.988281 162.792969 58.882812 162.746094 58.800781 C 162.496094 58.351562 162.214844 57.9375 161.914062 57.617188 C 162.777344 57.925781 163.558594 58.457031 164.21875 58.988281 Z M 159.300781 58.988281 L 157.261719 58.988281 C 157.84375 58.054688 158.632812 57.492188 159.300781 57.347656 Z M 159.300781 63.519531 L 156.113281 63.519531 C 156.152344 62.183594 156.429688 60.855469 156.914062 59.789062 L 159.300781 59.789062 Z M 159.300781 68.183594 L 156.914062 68.183594 C 156.429688 66.980469 156.152344 65.652344 156.113281 64.316406 L 159.300781 64.316406 Z M 159.300781 70.621094 C 158.632812 70.480469 157.84375 69.78125 157.261719 68.847656 L 159.300781 68.847656 Z M 155.132812 68.847656 L 156.476562 68.847656 C 156.519531 68.847656 156.5625 69.019531 156.605469 69.101562 C 156.855469 69.550781 157.136719 69.933594 157.4375 70.25 C 156.574219 69.945312 155.792969 69.378906 155.132812 68.847656 Z M 153.007812 64.316406 L 155.421875 64.316406 C 155.457031 65.652344 155.714844 66.980469 156.164062 68.183594 L 154.488281 68.183594 C 153.625 67.117188 153.082031 65.652344 153.007812 64.316406 Z M 154.488281 59.789062 L 156.164062 59.789062 C 155.714844 60.855469 155.457031 62.183594 155.421875 63.519531 L 153.007812 63.519531 C 153.082031 62.183594 153.625 60.855469 154.488281 59.789062 Z M 157.4375 57.617188 C 157.136719 57.9375 156.855469 58.351562 156.605469 58.800781 C 156.5625 58.882812 156.519531 58.988281 156.476562 58.988281 L 155.132812 58.988281 C 155.792969 58.457031 156.574219 57.925781 157.4375 57.617188 Z M 159.675781 56.628906 C 155.613281 56.628906 152.308594 59.929688 152.308594 63.984375 C 152.308594 68.042969 155.613281 71.34375 159.675781 71.34375 C 163.738281 71.34375 167.042969 68.042969 167.042969 63.984375 C 167.042969 59.929688 163.738281 56.628906 159.675781 56.628906 " fill-opacity="1" fill-rule="nonzero"/><path fill="#ffd655" d="M 136.957031 126.125 L 168.839844 126.125 L 168.839844 82.066406 L 136.957031 82.066406 L 136.957031 126.125 " fill-opacity="1" fill-rule="nonzero"/><path fill="#ffe876" d="M 160.890625 100.988281 C 158.066406 101.964844 155.203125 100.925781 152.078125 103.382812 C 148.5 106.203125 149 110.121094 146.070312 110.976562 C 143.179688 111.824219 141.195312 108.445312 138.675781 109.179688 C 138.101562 109.347656 137.515625 109.726562 136.984375 110.441406 L 136.984375 126.152344 L 168.871094 126.152344 L 168.871094 88.003906 C 166.871094 96.949219 163.679688 100.019531 160.890625 100.988281 " fill-opacity="1" fill-rule="nonzero"/><path fill="#51c4f2" d="M 181.972656 175.503906 L 213.855469 175.503906 L 213.855469 151.394531 L 181.972656 151.394531 L 181.972656 175.503906 " fill-opacity="1" fill-rule="nonzero"/><path fill="#37a6dd" d="M 205.90625 161.746094 C 203.085938 162.28125 200.21875 161.710938 197.09375 163.058594 C 193.511719 164.601562 194.011719 166.746094 191.085938 167.214844 C 188.199219 167.675781 186.210938 165.828125 183.691406 166.230469 C 183.117188 166.324219 182.53125 166.53125 181.996094 166.921875 L 181.996094 175.519531 L 213.886719 175.519531 L 213.886719 154.644531 C 211.882812 159.539062 208.691406 161.21875 205.90625 161.746094 " fill-opacity="1" fill-rule="nonzero"/><path fill="#cee254" d="M 83.519531 175.492188 L 115.402344 175.492188 L 115.402344 137.367188 L 83.519531 137.367188 L 83.519531 175.492188 " fill-opacity="1" fill-rule="nonzero"/><path fill="#c8d641" d="M 113.679688 158.542969 C 111.164062 157.808594 109.179688 161.1875 106.289062 160.34375 C 103.359375 159.488281 103.859375 155.566406 100.28125 152.75 C 97.15625 150.289062 94.289062 151.328125 91.46875 150.351562 C 88.679688 149.382812 85.488281 146.3125 83.488281 137.367188 L 83.488281 175.519531 L 115.375 175.519531 L 115.375 159.804688 C 114.84375 159.089844 114.257812 158.710938 113.679688 158.542969 " fill-opacity="1" fill-rule="nonzero"/><path fill="#aab5bc" d="M 118.289062 81.734375 L 102.296875 81.734375 C 101.53125 81.734375 100.914062 82.542969 100.914062 83.542969 C 100.914062 84.542969 101.53125 85.351562 102.296875 85.351562 L 118.289062 85.351562 C 119.054688 85.351562 119.675781 84.542969 119.675781 83.542969 C 119.675781 82.542969 119.054688 81.734375 118.289062 81.734375 " fill-opacity="1" fill-rule="nonzero"/><path fill="#aab5bc" d="M 96.164062 81.734375 L 84.394531 81.734375 C 83.628906 81.734375 83.011719 82.542969 83.011719 83.542969 C 83.011719 84.542969 83.628906 85.351562 84.394531 85.351562 L 96.164062 85.351562 C 96.929688 85.351562 97.546875 84.542969 97.546875 83.542969 C 97.546875 82.542969 96.929688 81.734375 96.164062 81.734375 " fill-opacity="1" fill-rule="nonzero"/><path fill="#aab5bc" d="M 118.089844 96.65625 L 102.496094 96.65625 C 101.621094 96.65625 100.914062 97.367188 100.914062 98.238281 L 100.914062 98.691406 C 100.914062 99.5625 101.621094 100.273438 102.496094 100.273438 L 118.089844 100.273438 C 118.964844 100.273438 119.675781 99.5625 119.675781 98.691406 L 119.675781 98.238281 C 119.675781 97.367188 118.964844 96.65625 118.089844 96.65625 " fill-opacity="1" fill-rule="nonzero"/><path fill="#aab5bc" d="M 95.964844 96.65625 L 84.59375 96.65625 C 83.71875 96.65625 83.011719 97.367188 83.011719 98.238281 L 83.011719 98.691406 C 83.011719 99.5625 83.71875 100.273438 84.59375 100.273438 L 95.964844 100.273438 C 96.839844 100.273438 97.546875 99.5625 97.546875 98.691406 L 97.546875 98.238281 C 97.546875 97.367188 96.839844 96.65625 95.964844 96.65625 " fill-opacity="1" fill-rule="nonzero"/><path fill="#aab5bc" d="M 108.5 111.578125 L 101.890625 111.578125 C 101.125 111.578125 100.503906 112.386719 100.503906 113.386719 C 100.503906 114.386719 101.125 115.195312 101.890625 115.195312 L 108.5 115.195312 C 109.265625 115.195312 109.886719 114.386719 109.886719 113.386719 C 109.886719 112.386719 109.265625 111.578125 108.5 111.578125 " fill-opacity="1" fill-rule="nonzero"/><path fill="#aab5bc" d="M 117.445312 111.578125 L 113.730469 111.578125 C 112.96875 111.578125 112.347656 112.386719 112.347656 113.386719 C 112.347656 114.386719 112.96875 115.195312 113.730469 115.195312 L 117.445312 115.195312 C 118.210938 115.195312 118.828125 114.386719 118.828125 113.386719 C 118.828125 112.386719 118.210938 111.578125 117.445312 111.578125 " fill-opacity="1" fill-rule="nonzero"/><path fill="#aab5bc" d="M 96.164062 111.578125 L 84.394531 111.578125 C 83.628906 111.578125 83.011719 112.386719 83.011719 113.386719 C 83.011719 114.386719 83.628906 115.195312 84.394531 115.195312 L 96.164062 115.195312 C 96.929688 115.195312 97.546875 114.386719 97.546875 113.386719 C 97.546875 112.386719 96.929688 111.578125 96.164062 111.578125 " fill-opacity="1" fill-rule="nonzero"/><path fill="#aab5bc" d="M 104.628906 89.195312 L 97.8125 89.195312 C 97.046875 89.195312 96.425781 90.007812 96.425781 91.003906 C 96.425781 92 97.046875 92.8125 97.8125 92.8125 L 104.628906 92.8125 C 105.390625 92.8125 106.011719 92 106.011719 91.003906 C 106.011719 90.007812 105.390625 89.195312 104.628906 89.195312 " fill-opacity="1" fill-rule="nonzero"/><path fill="#aab5bc" d="M 117.546875 89.195312 L 110.730469 89.195312 C 109.96875 89.195312 109.347656 90.007812 109.347656 91.003906 C 109.347656 92 109.96875 92.8125 110.730469 92.8125 L 117.546875 92.8125 C 118.308594 92.8125 118.929688 92 118.929688 91.003906 C 118.929688 90.007812 118.308594 89.195312 117.546875 89.195312 " fill-opacity="1" fill-rule="nonzero"/><path fill="#aab5bc" d="M 91.984375 89.195312 L 84.394531 89.195312 C 83.628906 89.195312 83.011719 90.007812 83.011719 91.003906 C 83.011719 92 83.628906 92.8125 84.394531 92.8125 L 91.984375 92.8125 C 92.746094 92.8125 93.367188 92 93.367188 91.003906 C 93.367188 90.007812 92.746094 89.195312 91.984375 89.195312 " fill-opacity="1" fill-rule="nonzero"/><path fill="#aab5bc" d="M 118.289062 104.117188 L 97.8125 104.117188 C 97.046875 104.117188 96.425781 104.925781 96.425781 105.925781 C 96.425781 106.921875 97.046875 107.734375 97.8125 107.734375 L 118.289062 107.734375 C 119.054688 107.734375 119.675781 106.921875 119.675781 105.925781 C 119.675781 104.925781 119.054688 104.117188 118.289062 104.117188 " fill-opacity="1" fill-rule="nonzero"/><path fill="#aab5bc" d="M 91.984375 104.117188 L 84.394531 104.117188 C 83.628906 104.117188 83.011719 104.925781 83.011719 105.925781 C 83.011719 106.921875 83.628906 107.734375 84.394531 107.734375 L 91.984375 107.734375 C 92.746094 107.734375 93.367188 106.921875 93.367188 105.925781 C 93.367188 104.925781 92.746094 104.117188 91.984375 104.117188 " fill-opacity="1" fill-rule="nonzero"/><path fill="#aab5bc" d="M 118.289062 119.039062 L 97.8125 119.039062 C 97.046875 119.039062 96.425781 119.847656 96.425781 120.847656 C 96.425781 121.847656 97.046875 122.65625 97.8125 122.65625 L 118.289062 122.65625 C 119.054688 122.65625 119.675781 121.847656 119.675781 120.847656 C 119.675781 119.847656 119.054688 119.039062 118.289062 119.039062 " fill-opacity="1" fill-rule="nonzero"/><path fill="#aab5bc" d="M 91.984375 119.039062 L 84.394531 119.039062 C 83.628906 119.039062 83.011719 119.847656 83.011719 120.847656 C 83.011719 121.847656 83.628906 122.65625 84.394531 122.65625 L 91.984375 122.65625 C 92.746094 122.65625 93.367188 121.847656 93.367188 120.847656 C 93.367188 119.847656 92.746094 119.039062 91.984375 119.039062 " fill-opacity="1" fill-rule="nonzero"/><path fill="#aab5bc" d="M 161.613281 39.492188 L 152.960938 39.492188 C 151.960938 39.492188 151.148438 40.304688 151.148438 41.300781 C 151.148438 42.300781 151.960938 43.109375 152.960938 43.109375 L 161.613281 43.109375 C 162.613281 43.109375 163.421875 42.300781 163.421875 41.300781 C 163.421875 40.304688 162.613281 39.492188 161.613281 39.492188 " fill-opacity="1" fill-rule="nonzero"/><path fill="#aab5bc" d="M 173.316406 39.492188 L 168.457031 39.492188 C 167.457031 39.492188 166.644531 40.304688 166.644531 41.300781 C 166.644531 42.300781 167.457031 43.109375 168.457031 43.109375 L 173.316406 43.109375 C 174.316406 43.109375 175.125 42.300781 175.125 41.300781 C 175.125 40.304688 174.316406 39.492188 173.316406 39.492188 " fill-opacity="1" fill-rule="nonzero"/><path fill="#aab5bc" d="M 210.777344 39.492188 L 181.042969 39.492188 C 180.042969 39.492188 179.234375 40.304688 179.234375 41.300781 C 179.234375 42.300781 180.042969 43.109375 181.042969 43.109375 L 210.777344 43.109375 C 211.777344 43.109375 212.585938 42.300781 212.585938 41.300781 C 212.585938 40.304688 211.777344 39.492188 210.777344 39.492188 " fill-opacity="1" fill-rule="nonzero"/><path fill="#aab5bc" d="M 145.46875 39.492188 L 130.070312 39.492188 C 129.066406 39.492188 128.257812 40.304688 128.257812 41.300781 C 128.257812 42.300781 129.066406 43.109375 130.070312 43.109375 L 145.46875 43.109375 C 146.46875 43.109375 147.277344 42.300781 147.277344 41.300781 C 147.277344 40.304688 146.46875 39.492188 145.46875 39.492188 " fill-opacity="1" fill-rule="nonzero"/><path fill="#aab5bc" d="M 174.421875 32.03125 L 147.621094 32.03125 C 146.621094 32.03125 145.8125 32.839844 145.8125 33.839844 C 145.8125 34.835938 146.621094 35.648438 147.621094 35.648438 L 174.421875 35.648438 C 175.421875 35.648438 176.234375 34.835938 176.234375 33.839844 C 176.234375 32.839844 175.421875 32.03125 174.421875 32.03125 " fill-opacity="1" fill-rule="nonzero"/><path fill="#aab5bc" d="M 140 32.03125 L 130.070312 32.03125 C 129.066406 32.03125 128.257812 32.839844 128.257812 33.839844 C 128.257812 34.835938 129.066406 35.648438 130.070312 35.648438 L 140 35.648438 C 141 35.648438 141.808594 34.835938 141.808594 33.839844 C 141.808594 32.839844 141 32.03125 140 32.03125 " fill-opacity="1" fill-rule="nonzero"/><path fill="#aab5bc" d="M 121.695312 39.492188 L 109.152344 39.492188 C 107.703125 39.492188 106.527344 40.304688 106.527344 41.300781 C 106.527344 42.300781 107.703125 43.109375 109.152344 43.109375 L 121.695312 43.109375 C 123.144531 43.109375 124.320312 42.300781 124.320312 41.300781 C 124.320312 40.304688 123.144531 39.492188 121.695312 39.492188 " fill-opacity="1" fill-rule="nonzero"/><path fill="#aab5bc" d="M 100.847656 39.492188 L 85.449219 39.492188 C 84.445312 39.492188 83.636719 40.304688 83.636719 41.300781 C 83.636719 42.300781 84.445312 43.109375 85.449219 43.109375 L 100.847656 43.109375 C 101.847656 43.109375 102.65625 42.300781 102.65625 41.300781 C 102.65625 40.304688 101.847656 39.492188 100.847656 39.492188 " fill-opacity="1" fill-rule="nonzero"/><path fill="#aab5bc" d="M 95.375 32.03125 L 85.449219 32.03125 C 84.445312 32.03125 83.636719 32.839844 83.636719 33.839844 C 83.636719 34.835938 84.445312 35.648438 85.449219 35.648438 L 95.375 35.648438 C 96.378906 35.648438 97.1875 34.835938 97.1875 33.839844 C 97.1875 32.839844 96.378906 32.03125 95.375 32.03125 " fill-opacity="1" fill-rule="nonzero"/><path fill="#aab5bc" d="M 121.421875 32.203125 L 102.03125 32.203125 C 101.035156 32.203125 100.222656 33.011719 100.222656 34.011719 C 100.222656 35.011719 101.035156 35.820312 102.03125 35.820312 L 121.421875 35.820312 C 122.421875 35.820312 123.234375 35.011719 123.234375 34.011719 C 123.234375 33.011719 122.421875 32.203125 121.421875 32.203125 " fill-opacity="1" fill-rule="nonzero"/><path fill="#aab5bc" d="M 193.585938 32.03125 L 183.652344 32.03125 C 182.652344 32.03125 181.839844 32.839844 181.839844 33.839844 C 181.839844 34.835938 182.652344 35.648438 183.652344 35.648438 L 193.585938 35.648438 C 194.585938 35.648438 195.394531 34.835938 195.394531 33.839844 C 195.394531 32.839844 194.585938 32.03125 193.585938 32.03125 " fill-opacity="1" fill-rule="nonzero"/><path fill="#aab5bc" d="M 210.777344 32.03125 L 200.84375 32.03125 C 199.84375 32.03125 199.035156 32.839844 199.035156 33.839844 C 199.035156 34.835938 199.84375 35.648438 200.84375 35.648438 L 210.777344 35.648438 C 211.777344 35.648438 212.585938 34.835938 212.585938 33.839844 C 212.585938 32.839844 211.777344 32.03125 210.777344 32.03125 " fill-opacity="1" fill-rule="nonzero"/><path fill="#aab5bc" d="M 146.734375 171.628906 L 130.207031 171.628906 C 129.308594 171.628906 128.582031 172.355469 128.582031 173.25 L 128.582031 173.621094 C 128.582031 174.519531 129.308594 175.246094 130.207031 175.246094 L 146.734375 175.246094 C 147.632812 175.246094 148.363281 174.519531 148.363281 173.621094 L 148.363281 173.25 C 148.363281 172.355469 147.632812 171.628906 146.734375 171.628906 " fill-opacity="1" fill-rule="nonzero"/><path fill="#aab5bc" d="M 165.609375 171.628906 L 153.535156 171.628906 C 152.636719 171.628906 151.910156 172.355469 151.910156 173.25 L 151.910156 173.621094 C 151.910156 174.519531 152.636719 175.246094 153.535156 175.246094 L 165.609375 175.246094 C 166.507812 175.246094 167.234375 174.519531 167.234375 173.621094 L 167.234375 173.25 C 167.234375 172.355469 166.507812 171.628906 165.609375 171.628906 " fill-opacity="1" fill-rule="nonzero"/><path fill="#aab5bc" d="M 146.734375 156.707031 L 130.207031 156.707031 C 129.308594 156.707031 128.582031 157.433594 128.582031 158.328125 L 128.582031 158.699219 C 128.582031 159.597656 129.308594 160.324219 130.207031 160.324219 L 146.734375 160.324219 C 147.632812 160.324219 148.363281 159.597656 148.363281 158.699219 L 148.363281 158.328125 C 148.363281 157.433594 147.632812 156.707031 146.734375 156.707031 " fill-opacity="1" fill-rule="nonzero"/><path fill="#aab5bc" d="M 165.609375 156.707031 L 153.535156 156.707031 C 152.636719 156.707031 151.910156 157.433594 151.910156 158.328125 L 151.910156 158.699219 C 151.910156 159.597656 152.636719 160.324219 153.535156 160.324219 L 165.609375 160.324219 C 166.507812 160.324219 167.234375 159.597656 167.234375 158.699219 L 167.234375 158.328125 C 167.234375 157.433594 166.507812 156.707031 165.609375 156.707031 " fill-opacity="1" fill-rule="nonzero"/><path fill="#aab5bc" d="M 147.167969 141.785156 L 140.527344 141.785156 C 139.628906 141.785156 138.902344 142.511719 138.902344 143.40625 L 138.902344 143.777344 C 138.902344 144.675781 139.628906 145.402344 140.527344 145.402344 L 147.167969 145.402344 C 148.0625 145.402344 148.789062 144.675781 148.789062 143.777344 L 148.789062 143.40625 C 148.789062 142.511719 148.0625 141.785156 147.167969 141.785156 " fill-opacity="1" fill-rule="nonzero"/><path fill="#aab5bc" d="M 134.679688 141.785156 L 131.097656 141.785156 C 130.203125 141.785156 129.476562 142.511719 129.476562 143.40625 L 129.476562 143.777344 C 129.476562 144.675781 130.203125 145.402344 131.097656 145.402344 L 134.679688 145.402344 C 135.578125 145.402344 136.304688 144.675781 136.304688 143.777344 L 136.304688 143.40625 C 136.304688 142.511719 135.578125 141.785156 134.679688 141.785156 " fill-opacity="1" fill-rule="nonzero"/><path fill="#aab5bc" d="M 165.609375 141.785156 L 153.535156 141.785156 C 152.636719 141.785156 151.910156 142.511719 151.910156 143.40625 L 151.910156 143.777344 C 151.910156 144.675781 152.636719 145.402344 153.535156 145.402344 L 165.609375 145.402344 C 166.507812 145.402344 167.234375 144.675781 167.234375 143.777344 L 167.234375 143.40625 C 167.234375 142.511719 166.507812 141.785156 165.609375 141.785156 " fill-opacity="1" fill-rule="nonzero"/><path fill="#aab5bc" d="M 151.464844 164.167969 L 144.613281 164.167969 C 143.714844 164.167969 142.984375 164.894531 142.984375 165.792969 L 142.984375 166.160156 C 142.984375 167.058594 143.714844 167.785156 144.613281 167.785156 L 151.464844 167.785156 C 152.363281 167.785156 153.089844 167.058594 153.089844 166.160156 L 153.089844 165.792969 C 153.089844 164.894531 152.363281 164.167969 151.464844 164.167969 " fill-opacity="1" fill-rule="nonzero"/><path fill="#aab5bc" d="M 137.84375 164.167969 L 130.992188 164.167969 C 130.09375 164.167969 129.367188 164.894531 129.367188 165.792969 L 129.367188 166.160156 C 129.367188 167.058594 130.09375 167.785156 130.992188 167.785156 L 137.84375 167.785156 C 138.742188 167.785156 139.472656 167.058594 139.472656 166.160156 L 139.472656 165.792969 C 139.472656 164.894531 138.742188 164.167969 137.84375 164.167969 " fill-opacity="1" fill-rule="nonzero"/><path fill="#aab5bc" d="M 165.609375 164.167969 L 157.941406 164.167969 C 157.042969 164.167969 156.316406 164.894531 156.316406 165.792969 L 156.316406 166.160156 C 156.316406 167.058594 157.042969 167.785156 157.941406 167.785156 L 165.609375 167.785156 C 166.507812 167.785156 167.234375 167.058594 167.234375 166.160156 L 167.234375 165.792969 C 167.234375 164.894531 166.507812 164.167969 165.609375 164.167969 " fill-opacity="1" fill-rule="nonzero"/><path fill="#aab5bc" d="M 151.464844 149.246094 L 130.207031 149.246094 C 129.308594 149.246094 128.582031 149.972656 128.582031 150.871094 L 128.582031 151.238281 C 128.582031 152.136719 129.308594 152.863281 130.207031 152.863281 L 151.464844 152.863281 C 152.363281 152.863281 153.089844 152.136719 153.089844 151.238281 L 153.089844 150.871094 C 153.089844 149.972656 152.363281 149.246094 151.464844 149.246094 " fill-opacity="1" fill-rule="nonzero"/><path fill="#aab5bc" d="M 165.609375 149.246094 L 157.941406 149.246094 C 157.042969 149.246094 156.316406 149.972656 156.316406 150.871094 L 156.316406 151.238281 C 156.316406 152.136719 157.042969 152.863281 157.941406 152.863281 L 165.609375 152.863281 C 166.507812 152.863281 167.234375 152.136719 167.234375 151.238281 L 167.234375 150.871094 C 167.234375 149.972656 166.507812 149.246094 165.609375 149.246094 " fill-opacity="1" fill-rule="nonzero"/><path fill="#aab5bc" d="M 151.464844 134.324219 L 130.207031 134.324219 C 129.308594 134.324219 128.582031 135.050781 128.582031 135.949219 L 128.582031 136.320312 C 128.582031 137.214844 129.308594 137.941406 130.207031 137.941406 L 151.464844 137.941406 C 152.363281 137.941406 153.089844 137.214844 153.089844 136.320312 L 153.089844 135.949219 C 153.089844 135.050781 152.363281 134.324219 151.464844 134.324219 " fill-opacity="1" fill-rule="nonzero"/><path fill="#aab5bc" d="M 165.609375 134.324219 L 157.941406 134.324219 C 157.042969 134.324219 156.316406 135.050781 156.316406 135.949219 L 156.316406 136.320312 C 156.316406 137.214844 157.042969 137.941406 157.941406 137.941406 L 165.609375 137.941406 C 166.507812 137.941406 167.234375 137.214844 167.234375 136.320312 L 167.234375 135.949219 C 167.234375 135.050781 166.507812 134.324219 165.609375 134.324219 " fill-opacity="1" fill-rule="nonzero"/><path fill="#aab5bc" d="M 196.703125 118.828125 L 182.375 118.828125 C 181.535156 118.828125 180.851562 119.511719 180.851562 120.351562 L 180.851562 120.925781 C 180.851562 121.765625 181.535156 122.449219 182.375 122.449219 L 196.703125 122.449219 C 197.542969 122.449219 198.226562 121.765625 198.226562 120.925781 L 198.226562 120.351562 C 198.226562 119.511719 197.542969 118.828125 196.703125 118.828125 " fill-opacity="1" fill-rule="nonzero"/><path fill="#aab5bc" d="M 213.28125 118.828125 L 202.863281 118.828125 C 202.023438 118.828125 201.339844 119.511719 201.339844 120.351562 L 201.339844 120.925781 C 201.339844 121.765625 202.023438 122.449219 202.863281 122.449219 L 213.28125 122.449219 C 214.121094 122.449219 214.804688 121.765625 214.804688 120.925781 L 214.804688 120.351562 C 214.804688 119.511719 214.121094 118.828125 213.28125 118.828125 " fill-opacity="1" fill-rule="nonzero"/><path fill="#aab5bc" d="M 196.703125 103.910156 L 182.375 103.910156 C 181.535156 103.910156 180.851562 104.589844 180.851562 105.429688 L 180.851562 106.003906 C 180.851562 106.84375 181.535156 107.527344 182.375 107.527344 L 196.703125 107.527344 C 197.542969 107.527344 198.226562 106.84375 198.226562 106.003906 L 198.226562 105.429688 C 198.226562 104.589844 197.542969 103.910156 196.703125 103.910156 " fill-opacity="1" fill-rule="nonzero"/><path fill="#aab5bc" d="M 213.28125 103.910156 L 202.863281 103.910156 C 202.023438 103.910156 201.339844 104.589844 201.339844 105.429688 L 201.339844 106.003906 C 201.339844 106.84375 202.023438 107.527344 202.863281 107.527344 L 213.28125 107.527344 C 214.121094 107.527344 214.804688 106.84375 214.804688 106.003906 L 214.804688 105.429688 C 214.804688 104.589844 214.121094 103.910156 213.28125 103.910156 " fill-opacity="1" fill-rule="nonzero"/><path fill="#aab5bc" d="M 197.078125 88.988281 L 191.441406 88.988281 C 190.597656 88.988281 189.917969 89.667969 189.917969 90.507812 L 189.917969 91.082031 C 189.917969 91.921875 190.597656 92.605469 191.441406 92.605469 L 197.078125 92.605469 C 197.921875 92.605469 198.601562 91.921875 198.601562 91.082031 L 198.601562 90.507812 C 198.601562 89.667969 197.921875 88.988281 197.078125 88.988281 " fill-opacity="1" fill-rule="nonzero"/><path fill="#aab5bc" d="M 186.113281 88.988281 L 183.160156 88.988281 C 182.316406 88.988281 181.636719 89.667969 181.636719 90.507812 L 181.636719 91.082031 C 181.636719 91.921875 182.316406 92.605469 183.160156 92.605469 L 186.113281 92.605469 C 186.953125 92.605469 187.636719 91.921875 187.636719 91.082031 L 187.636719 90.507812 C 187.636719 89.667969 186.953125 88.988281 186.113281 88.988281 " fill-opacity="1" fill-rule="nonzero"/><path fill="#aab5bc" d="M 213.28125 88.988281 L 202.863281 88.988281 C 202.023438 88.988281 201.339844 89.667969 201.339844 90.507812 L 201.339844 91.082031 C 201.339844 91.921875 202.023438 92.605469 202.863281 92.605469 L 213.28125 92.605469 C 214.121094 92.605469 214.804688 91.921875 214.804688 91.082031 L 214.804688 90.507812 C 214.804688 89.667969 214.121094 88.988281 213.28125 88.988281 " fill-opacity="1" fill-rule="nonzero"/><path fill="#aab5bc" d="M 200.855469 111.371094 L 195.027344 111.371094 C 194.183594 111.371094 193.503906 112.050781 193.503906 112.890625 L 193.503906 113.464844 C 193.503906 114.304688 194.183594 114.984375 195.027344 114.984375 L 200.855469 114.984375 C 201.699219 114.984375 202.378906 114.304688 202.378906 113.464844 L 202.378906 112.890625 C 202.378906 112.050781 201.699219 111.371094 200.855469 111.371094 " fill-opacity="1" fill-rule="nonzero"/><path fill="#aab5bc" d="M 188.890625 111.371094 L 183.0625 111.371094 C 182.222656 111.371094 181.539062 112.050781 181.539062 112.890625 L 181.539062 113.464844 C 181.539062 114.304688 182.222656 114.984375 183.0625 114.984375 L 188.890625 114.984375 C 189.734375 114.984375 190.414062 114.304688 190.414062 113.464844 L 190.414062 112.890625 C 190.414062 112.050781 189.734375 111.371094 188.890625 111.371094 " fill-opacity="1" fill-rule="nonzero"/><path fill="#aab5bc" d="M 213.28125 111.371094 L 206.734375 111.371094 C 205.894531 111.371094 205.210938 112.050781 205.210938 112.890625 L 205.210938 113.464844 C 205.210938 114.304688 205.894531 114.984375 206.734375 114.984375 L 213.28125 114.984375 C 214.121094 114.984375 214.804688 114.304688 214.804688 113.464844 L 214.804688 112.890625 C 214.804688 112.050781 214.121094 111.371094 213.28125 111.371094 " fill-opacity="1" fill-rule="nonzero"/><path fill="#aab5bc" d="M 200.855469 96.449219 L 182.375 96.449219 C 181.535156 96.449219 180.851562 97.128906 180.851562 97.96875 L 180.851562 98.542969 C 180.851562 99.382812 181.535156 100.0625 182.375 100.0625 L 200.855469 100.0625 C 201.699219 100.0625 202.378906 99.382812 202.378906 98.542969 L 202.378906 97.96875 C 202.378906 97.128906 201.699219 96.449219 200.855469 96.449219 " fill-opacity="1" fill-rule="nonzero"/><path fill="#aab5bc" d="M 213.28125 96.449219 L 206.734375 96.449219 C 205.894531 96.449219 205.210938 97.128906 205.210938 97.96875 L 205.210938 98.542969 C 205.210938 99.382812 205.894531 100.0625 206.734375 100.0625 L 213.28125 100.0625 C 214.121094 100.0625 214.804688 99.382812 214.804688 98.542969 L 214.804688 97.96875 C 214.804688 97.128906 214.121094 96.449219 213.28125 96.449219 " fill-opacity="1" fill-rule="nonzero"/><path fill="#aab5bc" d="M 196.703125 133.75 L 182.375 133.75 C 181.535156 133.75 180.851562 134.433594 180.851562 135.273438 L 180.851562 135.847656 C 180.851562 136.6875 181.535156 137.367188 182.375 137.367188 L 196.703125 137.367188 C 197.542969 137.367188 198.226562 136.6875 198.226562 135.847656 L 198.226562 135.273438 C 198.226562 134.433594 197.542969 133.75 196.703125 133.75 " fill-opacity="1" fill-rule="nonzero"/><path fill="#aab5bc" d="M 213.28125 133.75 L 202.863281 133.75 C 202.023438 133.75 201.339844 134.433594 201.339844 135.273438 L 201.339844 135.847656 C 201.339844 136.6875 202.023438 137.367188 202.863281 137.367188 L 213.28125 137.367188 C 214.121094 137.367188 214.804688 136.6875 214.804688 135.847656 L 214.804688 135.273438 C 214.804688 134.433594 214.121094 133.75 213.28125 133.75 " fill-opacity="1" fill-rule="nonzero"/><path fill="#aab5bc" d="M 200.855469 126.292969 L 195.027344 126.292969 C 194.183594 126.292969 193.503906 126.972656 193.503906 127.8125 L 193.503906 128.386719 C 193.503906 129.226562 194.183594 129.90625 195.027344 129.90625 L 200.855469 129.90625 C 201.699219 129.90625 202.378906 129.226562 202.378906 128.386719 L 202.378906 127.8125 C 202.378906 126.972656 201.699219 126.292969 200.855469 126.292969 " fill-opacity="1" fill-rule="nonzero"/><path fill="#aab5bc" d="M 188.890625 126.292969 L 183.0625 126.292969 C 182.222656 126.292969 181.539062 126.972656 181.539062 127.8125 L 181.539062 128.386719 C 181.539062 129.226562 182.222656 129.90625 183.0625 129.90625 L 188.890625 129.90625 C 189.734375 129.90625 190.414062 129.226562 190.414062 128.386719 L 190.414062 127.8125 C 190.414062 126.972656 189.734375 126.292969 188.890625 126.292969 " fill-opacity="1" fill-rule="nonzero"/><path fill="#aab5bc" d="M 213.28125 126.292969 L 206.734375 126.292969 C 205.894531 126.292969 205.210938 126.972656 205.210938 127.8125 L 205.210938 128.386719 C 205.210938 129.226562 205.894531 129.90625 206.734375 129.90625 L 213.28125 129.90625 C 214.121094 129.90625 214.804688 129.226562 214.804688 128.386719 L 214.804688 127.8125 C 214.804688 126.972656 214.121094 126.292969 213.28125 126.292969 " fill-opacity="1" fill-rule="nonzero"/><path fill="#aab5bc" d="M 200.855469 141.214844 L 182.375 141.214844 C 181.535156 141.214844 180.851562 141.894531 180.851562 142.734375 L 180.851562 143.308594 C 180.851562 144.148438 181.535156 144.832031 182.375 144.832031 L 200.855469 144.832031 C 201.699219 144.832031 202.378906 144.148438 202.378906 143.308594 L 202.378906 142.734375 C 202.378906 141.894531 201.699219 141.214844 200.855469 141.214844 " fill-opacity="1" fill-rule="nonzero"/><path fill="#aab5bc" d="M 213.28125 141.214844 L 206.734375 141.214844 C 205.894531 141.214844 205.210938 141.894531 205.210938 142.734375 L 205.210938 143.308594 C 205.210938 144.148438 205.894531 144.832031 206.734375 144.832031 L 213.28125 144.832031 C 214.121094 144.832031 214.804688 144.148438 214.804688 143.308594 L 214.804688 142.734375 C 214.804688 141.894531 214.121094 141.214844 213.28125 141.214844 " fill-opacity="1" fill-rule="nonzero"/><path fill="#aab5bc" d="M 200.855469 81.527344 L 182.375 81.527344 C 181.535156 81.527344 180.851562 82.207031 180.851562 83.046875 L 180.851562 83.621094 C 180.851562 84.460938 181.535156 85.140625 182.375 85.140625 L 200.855469 85.140625 C 201.699219 85.140625 202.378906 84.460938 202.378906 83.621094 L 202.378906 83.046875 C 202.378906 82.207031 201.699219 81.527344 200.855469 81.527344 " fill-opacity="1" fill-rule="nonzero"/><path fill="#aab5bc" d="M 213.28125 81.527344 L 206.734375 81.527344 C 205.894531 81.527344 205.210938 82.207031 205.210938 83.046875 L 205.210938 83.621094 C 205.210938 84.460938 205.894531 85.140625 206.734375 85.140625 L 213.28125 85.140625 C 214.121094 85.140625 214.804688 84.460938 214.804688 83.621094 L 214.804688 83.046875 C 214.804688 82.207031 214.121094 81.527344 213.28125 81.527344 " fill-opacity="1" fill-rule="nonzero"/><g clip-path="url(#96dcba1c9a)"><path fill="#ffffff" d="M 168.800781 21.804688 L 148.394531 21.804688 L 148.425781 21.769531 L 168.800781 21.804688 " fill-opacity="1" fill-rule="nonzero"/></g><path fill="#9ec7de" d="M 75.570312 124.488281 L 75.570312 102.027344 L 75.695312 101.890625 L 75.695312 119.824219 L 75.601562 119.910156 L 75.601562 124.457031 L 75.570312 124.488281 " fill-opacity="1" fill-rule="nonzero"/><path fill="#a4d4e8" d="M 75.601562 124.457031 L 75.601562 119.910156 L 75.695312 119.824219 L 75.695312 124.355469 L 75.601562 124.457031 " fill-opacity="1" fill-rule="nonzero"/><g clip-path="url(#2e64497bdb)"><path fill="#ffffff" d="M 75.695312 124.355469 L 75.695312 101.890625 L 84.003906 92.738281 C 84.128906 92.785156 84.257812 92.8125 84.394531 92.8125 L 91.984375 92.8125 C 92.746094 92.8125 93.367188 92 93.367188 91.003906 C 93.367188 90.007812 92.746094 89.195312 91.984375 89.195312 L 87.21875 89.195312 L 90.710938 85.351562 L 96.164062 85.351562 C 96.929688 85.351562 97.546875 84.542969 97.546875 83.542969 C 97.546875 82.542969 96.929688 81.734375 96.164062 81.734375 L 93.992188 81.734375 L 100.167969 74.929688 L 120.570312 74.929688 L 114.390625 81.734375 L 102.296875 81.734375 C 101.53125 81.734375 100.914062 82.542969 100.914062 83.542969 C 100.914062 84.542969 101.53125 85.351562 102.296875 85.351562 L 111.105469 85.351562 L 106.011719 90.960938 C 105.992188 89.984375 105.382812 89.195312 104.628906 89.195312 L 97.8125 89.195312 C 97.046875 89.195312 96.425781 90.007812 96.425781 91.003906 C 96.425781 92 97.046875 92.8125 97.8125 92.8125 L 104.332031 92.8125 L 93.203125 105.070312 C 92.96875 104.503906 92.511719 104.117188 91.984375 104.117188 L 84.394531 104.117188 C 83.628906 104.117188 83.011719 104.925781 83.011719 105.925781 C 83.011719 106.921875 83.628906 107.734375 84.394531 107.734375 L 90.785156 107.734375 L 87.292969 111.578125 L 84.394531 111.578125 C 83.628906 111.578125 83.011719 112.386719 83.011719 113.386719 C 83.011719 114.234375 83.457031 114.945312 84.058594 115.140625 L 75.695312 124.355469 M 84.59375 96.65625 C 83.71875 96.65625 83.011719 97.367188 83.011719 98.238281 L 83.011719 98.691406 C 83.011719 99.5625 83.71875 100.273438 84.59375 100.273438 L 95.964844 100.273438 C 96.839844 100.273438 97.546875 99.5625 97.546875 98.691406 L 97.546875 98.238281 C 97.546875 97.367188 96.839844 96.65625 95.964844 96.65625 L 84.59375 96.65625 M 140.707031 52.746094 L 120.308594 52.746094 L 129.238281 42.910156 C 129.484375 43.039062 129.765625 43.109375 130.070312 43.109375 L 145.46875 43.109375 C 146.46875 43.109375 147.277344 42.300781 147.277344 41.300781 C 147.277344 40.304688 146.46875 39.492188 145.46875 39.492188 L 132.339844 39.492188 L 135.828125 35.648438 L 140 35.648438 C 141 35.648438 141.808594 34.835938 141.808594 33.839844 C 141.808594 32.839844 141 32.03125 140 32.03125 L 139.109375 32.03125 L 148.394531 21.804688 L 168.800781 21.804688 L 159.515625 32.03125 L 147.621094 32.03125 C 146.621094 32.03125 145.8125 32.839844 145.8125 33.839844 C 145.8125 34.835938 146.621094 35.648438 147.621094 35.648438 L 156.230469 35.648438 L 152.726562 39.507812 C 151.855469 39.617188 151.179688 40.351562 151.152344 41.246094 L 140.707031 52.746094 " fill-opacity="1" fill-rule="nonzero"/></g><path fill="#ff7777" d="M 120.570312 74.929688 L 100.167969 74.929688 L 107 67.40625 L 107 68.816406 C 107 69.410156 107.105469 69.871094 107.375 70.144531 C 107.652344 70.421875 108.0625 70.578125 108.664062 70.578125 L 115.730469 70.578125 C 116.171875 70.578125 116.515625 70.453125 116.746094 70.242188 C 116.980469 70.027344 117.101562 69.738281 117.101562 69.394531 C 117.101562 69.042969 116.980469 68.734375 116.746094 68.519531 C 116.515625 68.308594 116.171875 68.183594 115.730469 68.183594 L 109.800781 68.183594 L 109.800781 64.851562 L 115.066406 64.851562 C 115.503906 64.851562 115.832031 64.734375 116.050781 64.527344 C 116.269531 64.320312 116.382812 64.039062 116.382812 63.714844 C 116.382812 63.386719 116.269531 63.101562 116.046875 62.898438 C 115.824219 62.699219 115.496094 62.585938 115.066406 62.585938 L 111.375 62.585938 L 113.914062 59.789062 L 115.53125 59.789062 C 115.976562 59.789062 116.320312 59.648438 116.542969 59.445312 C 116.773438 59.234375 116.890625 58.941406 116.890625 58.597656 C 116.890625 58.265625 116.773438 57.949219 116.542969 57.742188 C 116.414062 57.617188 116.238281 57.519531 116.03125 57.457031 L 120.308594 52.746094 L 140.707031 52.746094 L 133.964844 60.175781 L 134.074219 59.726562 C 134.207031 59.183594 134.273438 58.796875 134.273438 58.546875 C 134.273438 58.171875 134.136719 57.855469 133.875 57.605469 C 133.613281 57.359375 133.292969 57.230469 132.921875 57.230469 C 132.546875 57.230469 132.253906 57.335938 132.050781 57.535156 C 131.859375 57.722656 131.722656 57.941406 131.640625 58.183594 C 131.566406 58.40625 131.488281 58.71875 131.40625 59.113281 L 130.246094 64.269531 L 129.558594 65.027344 L 128.082031 59.585938 C 127.925781 59.011719 127.796875 58.589844 127.703125 58.332031 C 127.601562 58.0625 127.417969 57.8125 127.160156 57.585938 C 126.894531 57.351562 126.523438 57.230469 126.050781 57.230469 C 125.589844 57.230469 125.21875 57.347656 124.945312 57.570312 C 124.675781 57.789062 124.480469 58.050781 124.359375 58.347656 C 124.25 58.632812 124.121094 59.050781 123.980469 59.589844 L 122.234375 66.074219 L 120.671875 59.113281 C 120.546875 58.527344 120.398438 58.070312 120.230469 57.757812 C 120.042969 57.410156 119.683594 57.230469 119.15625 57.230469 C 118.777344 57.230469 118.457031 57.363281 118.195312 57.613281 C 117.9375 57.863281 117.804688 58.179688 117.804688 58.546875 C 117.804688 58.824219 117.871094 59.207031 118.003906 59.726562 L 120.140625 68.359375 C 120.203125 68.617188 120.277344 68.898438 120.359375 69.195312 C 120.445312 69.507812 120.554688 69.78125 120.6875 70.007812 C 120.828125 70.246094 121.015625 70.433594 121.242188 70.5625 C 121.46875 70.695312 121.757812 70.761719 122.101562 70.761719 C 122.527344 70.761719 122.878906 70.648438 123.140625 70.429688 C 123.398438 70.214844 123.582031 69.964844 123.683594 69.691406 C 123.78125 69.433594 123.914062 69.007812 124.078125 68.421875 L 126.050781 61.207031 L 127.648438 67.128906 L 120.570312 74.929688 " fill-opacity="1" fill-rule="nonzero"/><path fill="#ffffff" d="M 115.730469 70.578125 L 108.664062 70.578125 C 108.0625 70.578125 107.652344 70.421875 107.375 70.144531 C 107.105469 69.871094 107 69.410156 107 68.816406 L 107 67.40625 L 111.375 62.585938 L 115.066406 62.585938 C 115.496094 62.585938 115.824219 62.699219 116.046875 62.898438 C 116.269531 63.101562 116.382812 63.386719 116.382812 63.714844 C 116.382812 64.039062 116.269531 64.320312 116.050781 64.527344 C 115.832031 64.734375 115.503906 64.851562 115.066406 64.851562 L 109.800781 64.851562 L 109.800781 68.183594 L 115.730469 68.183594 C 116.171875 68.183594 116.515625 68.308594 116.746094 68.519531 C 116.980469 68.734375 117.101562 69.042969 117.101562 69.394531 C 117.101562 69.738281 116.980469 70.027344 116.746094 70.242188 C 116.515625 70.453125 116.171875 70.578125 115.730469 70.578125 M 115.53125 59.789062 L 113.914062 59.789062 L 116.03125 57.457031 C 116.238281 57.519531 116.414062 57.617188 116.542969 57.742188 C 116.773438 57.949219 116.890625 58.265625 116.890625 58.597656 C 116.890625 58.941406 116.773438 59.234375 116.542969 59.445312 C 116.320312 59.648438 115.976562 59.789062 115.53125 59.789062 " fill-opacity="1" fill-rule="nonzero"/><path fill="#ffffff" d="M 122.101562 70.761719 C 121.757812 70.761719 121.46875 70.695312 121.242188 70.5625 C 121.015625 70.433594 120.828125 70.246094 120.6875 70.007812 C 120.554688 69.78125 120.445312 69.507812 120.359375 69.195312 C 120.277344 68.898438 120.203125 68.617188 120.140625 68.359375 L 118.003906 59.726562 C 117.871094 59.207031 117.804688 58.824219 117.804688 58.546875 C 117.804688 58.179688 117.9375 57.863281 118.195312 57.613281 C 118.457031 57.363281 118.777344 57.230469 119.15625 57.230469 C 119.683594 57.230469 120.042969 57.410156 120.230469 57.757812 C 120.398438 58.070312 120.546875 58.527344 120.671875 59.113281 L 122.234375 66.074219 L 123.980469 59.589844 C 124.121094 59.050781 124.25 58.632812 124.359375 58.347656 C 124.480469 58.050781 124.675781 57.789062 124.945312 57.570312 C 125.21875 57.347656 125.589844 57.230469 126.050781 57.230469 C 126.523438 57.230469 126.894531 57.351562 127.160156 57.585938 C 127.417969 57.8125 127.601562 58.0625 127.703125 58.332031 C 127.796875 58.589844 127.925781 59.011719 128.082031 59.585938 L 129.558594 65.027344 L 127.648438 67.128906 L 126.050781 61.207031 L 124.078125 68.421875 C 123.914062 69.007812 123.78125 69.433594 123.683594 69.691406 C 123.582031 69.964844 123.398438 70.214844 123.140625 70.429688 C 122.878906 70.648438 122.527344 70.761719 122.101562 70.761719 M 130.246094 64.269531 L 131.40625 59.113281 C 131.488281 58.71875 131.566406 58.40625 131.640625 58.183594 C 131.722656 57.941406 131.859375 57.722656 132.050781 57.535156 C 132.253906 57.335938 132.546875 57.230469 132.921875 57.230469 C 133.292969 57.230469 133.613281 57.359375 133.875 57.605469 C 134.136719 57.855469 134.273438 58.171875 134.273438 58.546875 C 134.273438 58.796875 134.207031 59.183594 134.074219 59.726562 L 133.964844 60.175781 L 130.246094 64.269531 " fill-opacity="1" fill-rule="nonzero"/><path fill="#bfc8cd" d="M 111.105469 85.351562 L 102.296875 85.351562 C 101.53125 85.351562 100.914062 84.542969 100.914062 83.542969 C 100.914062 82.542969 101.53125 81.734375 102.296875 81.734375 L 114.390625 81.734375 L 111.105469 85.351562 " fill-opacity="1" fill-rule="nonzero"/><path fill="#bfc8cd" d="M 96.164062 85.351562 L 90.710938 85.351562 L 93.992188 81.734375 L 96.164062 81.734375 C 96.929688 81.734375 97.546875 82.542969 97.546875 83.542969 C 97.546875 84.542969 96.929688 85.351562 96.164062 85.351562 " fill-opacity="1" fill-rule="nonzero"/><path fill="#bfc8cd" d="M 95.964844 100.273438 L 84.59375 100.273438 C 83.71875 100.273438 83.011719 99.5625 83.011719 98.691406 L 83.011719 98.238281 C 83.011719 97.367188 83.71875 96.65625 84.59375 96.65625 L 95.964844 96.65625 C 96.839844 96.65625 97.546875 97.367188 97.546875 98.238281 L 97.546875 98.691406 C 97.546875 99.5625 96.839844 100.273438 95.964844 100.273438 " fill-opacity="1" fill-rule="nonzero"/><path fill="#bfc8cd" d="M 84.058594 115.140625 C 83.457031 114.945312 83.011719 114.234375 83.011719 113.386719 C 83.011719 112.386719 83.628906 111.578125 84.394531 111.578125 L 87.292969 111.578125 L 84.058594 115.140625 " fill-opacity="1" fill-rule="nonzero"/><path fill="#bfc8cd" d="M 104.332031 92.8125 L 97.8125 92.8125 C 97.046875 92.8125 96.425781 92 96.425781 91.003906 C 96.425781 90.007812 97.046875 89.195312 97.8125 89.195312 L 104.628906 89.195312 C 105.382812 89.195312 105.992188 89.984375 106.011719 90.960938 L 104.332031 92.8125 " fill-opacity="1" fill-rule="nonzero"/><path fill="#bfc8cd" d="M 91.984375 92.8125 L 84.394531 92.8125 C 84.257812 92.8125 84.128906 92.785156 84.003906 92.738281 L 87.21875 89.195312 L 91.984375 89.195312 C 92.746094 89.195312 93.367188 90.007812 93.367188 91.003906 C 93.367188 92 92.746094 92.8125 91.984375 92.8125 " fill-opacity="1" fill-rule="nonzero"/><path fill="#bfc8cd" d="M 90.785156 107.734375 L 84.394531 107.734375 C 83.628906 107.734375 83.011719 106.921875 83.011719 105.925781 C 83.011719 104.925781 83.628906 104.117188 84.394531 104.117188 L 91.984375 104.117188 C 92.511719 104.117188 92.96875 104.503906 93.203125 105.070312 L 90.785156 107.734375 " fill-opacity="1" fill-rule="nonzero"/><path fill="#bfc8cd" d="M 151.152344 41.246094 C 151.179688 40.351562 151.855469 39.617188 152.726562 39.507812 L 151.152344 41.246094 " fill-opacity="1" fill-rule="nonzero"/><path fill="#bfc8cd" d="M 145.46875 43.109375 L 130.070312 43.109375 C 129.765625 43.109375 129.484375 43.039062 129.238281 42.910156 L 132.339844 39.492188 L 145.46875 39.492188 C 146.46875 39.492188 147.277344 40.304688 147.277344 41.300781 C 147.277344 42.300781 146.46875 43.109375 145.46875 43.109375 " fill-opacity="1" fill-rule="nonzero"/><path fill="#bfc8cd" d="M 156.230469 35.648438 L 147.621094 35.648438 C 146.621094 35.648438 145.8125 34.835938 145.8125 33.839844 C 145.8125 32.839844 146.621094 32.03125 147.621094 32.03125 L 159.515625 32.03125 L 156.230469 35.648438 " fill-opacity="1" fill-rule="nonzero"/><path fill="#bfc8cd" d="M 140 35.648438 L 135.828125 35.648438 L 139.109375 32.03125 L 140 32.03125 C 141 32.03125 141.808594 32.839844 141.808594 33.839844 C 141.808594 34.835938 141 35.648438 140 35.648438 " fill-opacity="1" fill-rule="nonzero"/><path fill="#ff4a4a" d="M 211.410156 52.746094 L 189.371094 52.746094 C 187.496094 52.746094 185.976562 54.261719 185.976562 56.132812 L 185.976562 71.542969 C 185.976562 73.414062 187.496094 74.929688 189.371094 74.929688 L 211.410156 74.929688 C 213.285156 74.929688 214.804688 73.414062 214.804688 71.542969 L 214.804688 56.132812 C 214.804688 54.261719 213.285156 52.746094 211.410156 52.746094 " fill-opacity="1" fill-rule="nonzero"/><path fill="#fba78d" d="M 257.476562 182.835938 C 252.703125 175.003906 252.648438 176.214844 249.890625 171.128906 C 248.972656 169.429688 248.0625 167.605469 246.101562 165.621094 C 244.628906 164.132812 244.042969 164.050781 239.894531 161.144531 C 236.351562 158.660156 234.554688 157.390625 233.347656 155.984375 C 231.871094 154.265625 231.851562 153.621094 229.898438 151.507812 C 228.09375 149.554688 226.503906 148.359375 226.105469 148.066406 C 223.835938 146.386719 223.390625 146.683594 220.589844 144.96875 C 219.75 144.453125 217.835938 143.011719 214.039062 140.148438 C 211.320312 138.097656 210.742188 137.640625 209.558594 137.394531 C 208.957031 137.269531 208.191406 137.199219 207.398438 137.253906 C 205.363281 137.707031 203.679688 140.882812 203.550781 139.671875 C 203.039062 141.125 203.066406 141.574219 203.367188 143.632812 C 204.332031 150.171875 210.765625 157.953125 214.039062 160.804688 C 217.046875 163.414062 217.488281 162.582031 219.902344 164.933594 C 222.933594 167.890625 224.207031 171.144531 225.414062 174.226562 C 226.105469 175.988281 226.097656 179.734375 227.828125 184.210938 C 249.59375 240.414062 269.808594 207.5 267.132812 201.082031 C 264.007812 193.585938 260.679688 188.082031 257.476562 182.835938 " fill-opacity="1" fill-rule="nonzero"/><path fill="#d86a50" d="M 214.542969 143.082031 C 214.453125 143.054688 214.355469 143.0625 214.269531 143.109375 C 214.214844 143.144531 214.128906 143.183594 214.011719 143.238281 C 213.886719 143.292969 213.730469 143.367188 213.550781 143.464844 C 212.296875 144.128906 211.523438 145.027344 210.960938 145.679688 C 210.445312 146.28125 210.191406 146.738281 210.023438 147.039062 C 209.832031 147.382812 209.195312 147.273438 208.460938 146.609375 C 208.164062 146.339844 207.792969 146.007812 207.328125 145.613281 C 206.101562 144.5625 205.128906 143.734375 204.425781 142.453125 C 204.179688 142 203.976562 141.5 203.828125 140.96875 C 203.777344 140.785156 203.589844 140.675781 203.402344 140.714844 C 203.207031 140.761719 203.085938 140.964844 203.136719 141.164062 C 203.304688 141.746094 203.523438 142.296875 203.800781 142.792969 C 204.566406 144.195312 205.628906 145.101562 206.863281 146.15625 C 207.320312 146.546875 207.683594 146.875 207.976562 147.140625 C 208.753906 147.835938 209.152344 148.199219 209.640625 148.179688 C 209.703125 148.175781 209.765625 148.167969 209.832031 148.152344 C 210.28125 148.050781 210.445312 147.757812 210.652344 147.382812 C 210.8125 147.09375 211.035156 146.691406 211.503906 146.148438 C 212.03125 145.535156 212.753906 144.699219 213.886719 144.09375 C 214.050781 144.007812 214.191406 143.941406 214.316406 143.886719 C 214.425781 143.835938 214.53125 143.785156 214.628906 143.730469 C 214.898438 143.574219 214.84375 143.167969 214.542969 143.082031 " fill-opacity="1" fill-rule="nonzero"/><path fill="#d86a50" d="M 223.554688 147.542969 C 222.863281 147.574219 222.195312 147.722656 221.5625 147.976562 C 219.402344 148.832031 218.234375 150.710938 217.730469 151.761719 C 217.640625 151.945312 217.726562 152.164062 217.914062 152.246094 C 218.089844 152.320312 218.292969 152.242188 218.375 152.070312 C 218.835938 151.117188 219.890625 149.40625 221.828125 148.640625 C 222.386719 148.417969 222.976562 148.289062 223.585938 148.257812 C 223.777344 148.246094 223.925781 148.09375 223.929688 147.902344 C 223.929688 147.699219 223.761719 147.53125 223.554688 147.542969 " fill-opacity="1" fill-rule="nonzero"/><path fill="#d86a50" d="M 224.902344 149.035156 C 224.808594 148.855469 224.585938 148.789062 224.410156 148.886719 C 223.378906 149.445312 222.417969 150.136719 221.546875 150.945312 C 220.820312 151.617188 220.15625 152.371094 219.570312 153.1875 C 219.453125 153.351562 219.492188 153.582031 219.65625 153.695312 C 219.820312 153.800781 220.039062 153.765625 220.148438 153.609375 C 220.707031 152.832031 221.34375 152.113281 222.035156 151.46875 C 222.863281 150.703125 223.777344 150.042969 224.757812 149.511719 C 224.925781 149.421875 224.988281 149.207031 224.902344 149.035156 " fill-opacity="1" fill-rule="nonzero"/><path fill="#d86a50" d="M 246.398438 165.328125 C 245.359375 164.28125 243.066406 162.726562 240.410156 160.933594 C 239.269531 160.164062 238.09375 159.367188 236.898438 158.535156 C 236.730469 158.417969 236.496094 158.460938 236.375 158.625 L 236.328125 158.695312 C 236.207031 158.867188 236.25 159.101562 236.417969 159.21875 C 237.621094 160.054688 238.796875 160.851562 239.941406 161.625 C 242.5625 163.394531 244.824219 164.925781 245.804688 165.914062 C 247.570312 167.699219 252.058594 175.121094 253.035156 176.753906 C 253.140625 176.929688 253.367188 176.988281 253.542969 176.882812 L 253.617188 176.84375 C 253.796875 176.738281 253.859375 176.503906 253.75 176.328125 C 252.757812 174.667969 248.222656 167.167969 246.398438 165.328125 " fill-opacity="1" fill-rule="nonzero"/><path fill="#ef8c78" d="M 245.550781 209.648438 C 243.003906 209.371094 241.210938 208.015625 239.859375 207.019531 C 237.117188 203.703125 234.660156 203.183594 233.582031 202.46875 C 230.902344 200.703125 228.15625 199.375 225.441406 198.394531 C 224.695312 199.414062 224.507812 200.417969 225.054688 201.386719 C 226.113281 203.273438 227.136719 205.023438 228.992188 207.402344 C 234.484375 214.449219 241.824219 220.066406 243.777344 228.425781 C 243.886719 228.882812 243.996094 229.367188 244.109375 229.863281 L 248.136719 229.863281 C 247.519531 226.324219 246.832031 223.265625 246.101562 220.621094 C 245.277344 217.640625 246.628906 214.507812 249.328125 212.992188 C 250.929688 212.097656 257.496094 204.199219 257.078125 203.75 C 256.421875 203.042969 251.875 210.34375 245.550781 209.648438 " fill-opacity="1" fill-rule="nonzero"/><path fill="#d86a50" d="M 245.3125 209.148438 C 239.722656 207.46875 234.890625 201.691406 230.9375 191.957031 C 229.496094 188.40625 227.453125 182.496094 225.902344 174.523438 L 225.898438 174.515625 C 225.859375 174.308594 225.65625 174.175781 225.449219 174.222656 L 225.367188 174.238281 C 225.167969 174.285156 225.039062 174.476562 225.078125 174.675781 L 225.082031 174.683594 C 226.644531 182.71875 228.707031 188.683594 230.164062 192.273438 C 234.214844 202.246094 239.226562 208.191406 245.066406 209.945312 C 245.269531 210.007812 245.484375 209.890625 245.539062 209.683594 L 245.5625 209.601562 C 245.617188 209.40625 245.503906 209.207031 245.3125 209.148438 " fill-opacity="1" fill-rule="nonzero"/><path fill="#d86a50" d="M 228.609375 151.816406 C 228.476562 151.660156 228.242188 151.636719 228.082031 151.765625 C 225.660156 153.722656 222.847656 155.457031 219.910156 156.808594 C 219.722656 156.894531 219.636719 157.117188 219.722656 157.304688 L 219.757812 157.378906 C 219.84375 157.570312 220.070312 157.65625 220.257812 157.570312 C 223.261719 156.1875 226.132812 154.414062 228.613281 152.414062 C 228.773438 152.28125 228.792969 152.042969 228.664062 151.882812 L 228.609375 151.816406 " fill-opacity="1" fill-rule="nonzero"/><path fill="#ffffff" d="M 213.015625 140.726562 C 211.171875 139.089844 210.253906 138.269531 209.628906 137.882812 C 209.359375 137.722656 209.09375 137.570312 208.828125 137.429688 C 207.570312 136.773438 206.058594 136.761719 204.84375 137.492188 C 204.464844 137.71875 204.128906 138 203.847656 138.355469 L 203.839844 138.367188 C 203.476562 138.832031 203.324219 139.429688 203.433594 140.007812 C 203.605469 140.90625 203.886719 141.5625 204.074219 141.941406 C 204.753906 143.3125 205.738281 144.230469 206.917969 145.324219 C 208.566406 146.851562 208.9375 147.453125 209.492188 147.351562 C 210.050781 147.25 209.945312 146.707031 211.046875 145.527344 C 211.621094 144.914062 212.402344 144.082031 213.625 143.496094 C 214.238281 143.203125 214.542969 143.175781 214.640625 142.886719 C 214.8125 142.382812 214.136719 141.722656 213.015625 140.726562 " fill-opacity="1" fill-rule="nonzero"/></svg>