<svg xmlns="http://www.w3.org/2000/svg" xmlns:xlink="http://www.w3.org/1999/xlink" width="300" zoomAndPan="magnify" viewBox="0 0 224.87999 225" height="300" preserveAspectRatio="xMidYMid meet" version="1.0"><defs><clipPath id="de61f1991f"><path d="M 0 0.0585938 L 224.761719 0.0585938 L 224.761719 224.9375 L 0 224.9375 Z M 0 0.0585938 " clip-rule="nonzero"/></clipPath><clipPath id="bb529d943a"><path d="M 45 44.097656 L 183.285156 44.097656 L 183.285156 182.027344 L 45 182.027344 Z M 45 44.097656 " clip-rule="nonzero"/></clipPath></defs><path fill="#ffffff" d="M 159.167969 181.328125 L 65.398438 181.328125 L 65.398438 61.753906 L 81.222656 61.753906 L 81.222656 63.214844 C 81.222656 65.257812 82.882812 66.914062 84.925781 66.914062 L 139.640625 66.914062 C 141.6875 66.914062 143.34375 65.257812 143.34375 63.214844 L 143.34375 61.753906 L 159.167969 61.753906 Z M 88.628906 55.042969 L 102.238281 55.042969 C 103.316406 55.042969 104.339844 54.574219 105.042969 53.757812 C 105.746094 52.945312 106.058594 51.863281 105.902344 50.796875 L 105.890625 50.710938 C 105.839844 50.375 105.789062 50.058594 105.789062 49.851562 C 105.789062 46.269531 108.703125 43.359375 112.285156 43.359375 C 115.863281 43.359375 118.777344 46.269531 118.777344 49.851562 C 118.777344 50.054688 118.730469 50.371094 118.679688 50.707031 L 118.667969 50.800781 C 118.507812 51.867188 118.824219 52.945312 119.527344 53.761719 C 120.230469 54.574219 121.253906 55.042969 122.328125 55.042969 L 135.941406 55.042969 L 135.941406 59.511719 L 88.628906 59.511719 Z M 162.871094 54.347656 L 143.34375 54.347656 L 143.34375 51.339844 C 143.34375 49.296875 141.6875 47.640625 139.640625 47.640625 L 126.003906 47.640625 C 124.941406 41.023438 119.195312 35.953125 112.285156 35.953125 C 105.375 35.953125 99.625 41.023438 98.5625 47.640625 L 84.925781 47.640625 C 82.882812 47.640625 81.222656 49.296875 81.222656 51.339844 L 81.222656 54.347656 L 61.699219 54.347656 C 59.652344 54.347656 57.996094 56.007812 57.996094 58.050781 L 57.996094 185.03125 C 57.996094 187.074219 59.652344 188.734375 61.699219 188.734375 L 162.871094 188.734375 C 164.914062 188.734375 166.570312 187.074219 166.570312 185.03125 L 166.570312 58.050781 C 166.570312 56.007812 164.914062 54.347656 162.871094 54.347656 " fill-opacity="1" fill-rule="nonzero"/><path fill="#ffffff" d="M 76.757812 93.816406 C 77.453125 94.511719 78.394531 94.902344 79.375 94.902344 C 79.402344 94.902344 79.429688 94.902344 79.457031 94.902344 C 80.464844 94.878906 81.421875 94.445312 82.105469 93.699219 L 92.558594 82.277344 C 93.9375 80.769531 93.835938 78.429688 92.324219 77.050781 C 90.816406 75.667969 88.476562 75.773438 87.097656 77.28125 L 79.257812 85.847656 L 75.992188 82.582031 C 74.546875 81.136719 72.203125 81.136719 70.753906 82.582031 C 69.308594 84.027344 69.308594 86.371094 70.753906 87.816406 L 76.757812 93.816406 " fill-opacity="1" fill-rule="nonzero"/><path fill="#ffffff" d="M 101.503906 82.207031 C 99.648438 82.207031 98.144531 83.863281 98.144531 85.910156 C 98.144531 87.953125 99.648438 89.609375 101.503906 89.609375 L 152.300781 89.609375 C 154.160156 89.609375 155.664062 87.953125 155.664062 85.910156 C 155.664062 83.863281 154.160156 82.207031 152.300781 82.207031 L 101.503906 82.207031 " fill-opacity="1" fill-rule="nonzero"/><path fill="#ffffff" d="M 76.757812 117.394531 C 77.453125 118.089844 78.394531 118.480469 79.375 118.480469 C 79.402344 118.480469 79.429688 118.480469 79.457031 118.476562 C 80.464844 118.457031 81.421875 118.023438 82.105469 117.277344 L 92.558594 105.855469 C 93.9375 104.347656 93.835938 102.007812 92.324219 100.625 C 90.816406 99.246094 88.476562 99.347656 87.097656 100.859375 L 79.257812 109.425781 L 75.992188 106.160156 C 74.546875 104.714844 72.203125 104.714844 70.757812 106.160156 C 69.308594 107.605469 69.308594 109.949219 70.757812 111.394531 L 76.757812 117.394531 " fill-opacity="1" fill-rule="nonzero"/><path fill="#ffffff" d="M 152.300781 105.785156 L 101.503906 105.785156 C 99.648438 105.785156 98.144531 107.441406 98.144531 109.488281 C 98.144531 111.53125 99.648438 113.1875 101.503906 113.1875 L 152.300781 113.1875 C 154.160156 113.1875 155.664062 111.53125 155.664062 109.488281 C 155.664062 107.441406 154.160156 105.785156 152.300781 105.785156 " fill-opacity="1" fill-rule="nonzero"/><path fill="#ffffff" d="M 76.757812 140.972656 C 77.453125 141.667969 78.394531 142.058594 79.375 142.058594 C 79.402344 142.058594 79.429688 142.058594 79.457031 142.058594 C 80.464844 142.035156 81.421875 141.601562 82.105469 140.855469 L 92.558594 129.433594 C 93.9375 127.925781 93.835938 125.585938 92.324219 124.203125 C 90.816406 122.824219 88.476562 122.925781 87.097656 124.4375 L 79.257812 133 L 75.992188 129.738281 C 74.546875 128.292969 72.203125 128.292969 70.757812 129.738281 C 69.308594 131.183594 69.308594 133.527344 70.757812 134.972656 L 76.757812 140.972656 " fill-opacity="1" fill-rule="nonzero"/><path fill="#ffffff" d="M 152.300781 129.363281 L 101.503906 129.363281 C 99.648438 129.363281 98.144531 131.019531 98.144531 133.0625 C 98.144531 135.109375 99.648438 136.765625 101.503906 136.765625 L 152.300781 136.765625 C 154.160156 136.765625 155.664062 135.109375 155.664062 133.0625 C 155.664062 131.019531 154.160156 129.363281 152.300781 129.363281 " fill-opacity="1" fill-rule="nonzero"/><path fill="#ffffff" d="M 92.324219 147.78125 C 90.816406 146.402344 88.476562 146.503906 87.097656 148.011719 L 79.257812 156.578125 L 75.992188 153.316406 C 74.546875 151.867188 72.203125 151.871094 70.757812 153.316406 C 69.308594 154.761719 69.308594 157.105469 70.757812 158.550781 L 76.757812 164.550781 C 77.453125 165.246094 78.394531 165.636719 79.375 165.636719 C 79.402344 165.636719 79.429688 165.636719 79.457031 165.632812 C 80.464844 165.613281 81.421875 165.175781 82.105469 164.433594 L 92.558594 153.011719 C 93.9375 151.503906 93.835938 149.164062 92.324219 147.78125 " fill-opacity="1" fill-rule="nonzero"/><path fill="#ffffff" d="M 152.300781 152.941406 L 101.503906 152.941406 C 99.648438 152.941406 98.144531 154.597656 98.144531 156.640625 C 98.144531 158.6875 99.648438 160.34375 101.503906 160.34375 L 152.300781 160.34375 C 154.160156 160.34375 155.664062 158.6875 155.664062 156.640625 C 155.664062 154.597656 154.160156 152.941406 152.300781 152.941406 " fill-opacity="1" fill-rule="nonzero"/><g clip-path="url(#de61f1991f)"><path fill="#003333" d="M 112.28125 7.464844 C 54.453125 7.464844 7.402344 54.511719 7.402344 112.34375 C 7.402344 170.175781 54.453125 217.222656 112.28125 217.222656 C 170.113281 217.222656 217.164062 170.175781 217.164062 112.34375 C 217.164062 54.511719 170.113281 7.464844 112.28125 7.464844 Z M 112.28125 224.628906 C 82.292969 224.628906 54.09375 212.949219 32.886719 191.742188 C 11.679688 170.53125 0 142.335938 0 112.34375 C 0 82.351562 11.679688 54.15625 32.886719 32.949219 C 54.09375 11.738281 82.292969 0.0585938 112.28125 0.0585938 C 142.277344 0.0585938 170.472656 11.738281 191.679688 32.949219 C 212.886719 54.15625 224.566406 82.351562 224.566406 112.34375 C 224.566406 142.335938 212.886719 170.53125 191.679688 191.742188 C 170.472656 212.949219 142.277344 224.628906 112.28125 224.628906 " fill-opacity="1" fill-rule="nonzero"/></g><path fill="#3db36b" d="M 106.953125 71.542969 C 97.582031 71.542969 90.03125 79.09375 90.03125 88.464844 C 90.03125 97.835938 97.582031 105.386719 106.953125 105.386719 C 116.324219 105.386719 123.875 97.835938 123.875 88.464844 C 123.875 79.09375 116.195312 71.542969 106.953125 71.542969 Z M 106.953125 100.179688 C 100.445312 100.179688 95.238281 94.972656 95.238281 88.464844 C 95.238281 81.957031 100.445312 76.75 106.953125 76.75 C 113.460938 76.75 118.667969 81.957031 118.667969 88.464844 C 118.667969 94.972656 113.332031 100.179688 106.953125 100.179688 Z M 106.953125 100.179688 " fill-opacity="1" fill-rule="nonzero"/><path fill="#3db36b" d="M 93.675781 126.085938 C 92.242188 126.085938 91.070312 127.257812 91.070312 128.6875 L 91.070312 137.800781 C 91.070312 140.664062 93.546875 143.136719 96.539062 143.136719 L 97.449219 143.136719 L 98.621094 137.929688 L 96.539062 137.929688 C 96.410156 137.929688 96.277344 137.800781 96.277344 137.800781 L 96.277344 128.6875 C 96.277344 127.257812 95.109375 126.085938 93.675781 126.085938 Z M 93.675781 126.085938 " fill-opacity="1" fill-rule="nonzero"/><path fill="#3db36b" d="M 119.96875 113.195312 L 130.253906 113.195312 C 127.910156 110.074219 124.265625 107.992188 119.96875 107.992188 L 93.9375 107.992188 C 87.035156 107.992188 80.660156 113.585938 80.660156 119.707031 L 80.660156 145.742188 C 80.660156 148.472656 82.089844 150.945312 84.304688 152.25 L 70.894531 152.25 C 72.585938 154.070312 74.28125 155.894531 76.234375 157.457031 L 152.902344 157.457031 C 154.726562 155.894531 156.550781 154.070312 158.242188 152.25 C 159.804688 150.558594 161.234375 148.734375 162.535156 146.78125 L 167.875 121.527344 C 168.003906 120.746094 167.875 119.964844 167.351562 119.316406 C 166.832031 118.664062 166.050781 118.402344 165.269531 118.402344 L 110.078125 118.402344 C 108.90625 118.402344 107.734375 119.316406 107.472656 120.488281 L 100.835938 152.25 L 95.5 152.25 L 96.277344 148.34375 L 88.597656 148.34375 C 87.167969 148.34375 85.734375 147.042969 85.734375 145.742188 L 85.734375 119.707031 C 85.734375 116.84375 89.511719 113.195312 93.804688 113.195312 Z M 112.289062 123.609375 L 162.277344 123.609375 L 156.160156 152.25 L 106.171875 152.25 Z M 112.289062 123.609375 " fill-opacity="1" fill-rule="nonzero"/><path fill="#3db36b" d="M 20.386719 74.277344 C 20.257812 74.144531 20 74.144531 19.867188 74.144531 C 18.695312 74.015625 17.523438 74.796875 17.132812 75.96875 C 16.875 76.878906 17.132812 77.921875 17.785156 78.570312 C 18.304688 79.351562 19.738281 82.347656 20.257812 83.648438 C 21.820312 87.421875 22.082031 91.199219 22.339844 95.234375 C 22.339844 96.015625 22.472656 96.664062 22.472656 97.445312 C 22.472656 97.835938 22.601562 98.097656 22.601562 98.488281 C 22.601562 98.878906 22.730469 99.269531 22.730469 99.660156 C 22.863281 106.6875 28.070312 114.5 37.570312 115.929688 C 38.484375 116.0625 39.523438 116.191406 40.566406 116.320312 C 40.695312 114.628906 40.824219 112.9375 41.085938 111.113281 C 40.042969 110.984375 39.003906 110.855469 38.222656 110.722656 C 31.453125 109.683594 27.808594 104.34375 27.808594 99.398438 C 27.808594 98.75 27.679688 98.226562 27.679688 97.707031 C 27.679688 97.445312 27.546875 97.1875 27.546875 96.925781 C 27.546875 96.144531 27.417969 95.492188 27.417969 94.710938 C 27.15625 90.417969 26.765625 85.992188 24.945312 81.566406 C 30.933594 84.039062 38.613281 87.8125 42.128906 91.328125 C 44.46875 93.542969 45.640625 96.40625 46.164062 99.269531 C 47.335938 97.707031 48.765625 96.273438 50.457031 94.84375 C 49.546875 92.238281 48.117188 89.765625 45.902344 87.683594 C 39.261719 81.175781 22.992188 75.1875 20.648438 74.277344 C 20.519531 74.277344 20.519531 74.277344 20.386719 74.277344 Z M 20.386719 74.277344 " fill-opacity="1" fill-rule="nonzero"/><path fill="#3db36b" d="M 34.1875 99.789062 C 33.667969 101.089844 34.1875 102.652344 35.488281 103.175781 C 38.351562 104.476562 40.433594 107.339844 41.605469 109.683594 C 42.128906 107.601562 42.777344 105.515625 43.820312 103.433594 C 42.257812 101.480469 40.304688 99.527344 37.703125 98.359375 C 36.269531 97.835938 34.707031 98.488281 34.1875 99.789062 Z M 34.1875 99.789062 " fill-opacity="1" fill-rule="nonzero"/><g clip-path="url(#bb529d943a)"><path fill="#3db36b" d="M 114.632812 44.207031 C 113.203125 44.207031 112.03125 45.378906 112.03125 46.808594 C 112.03125 48.242188 113.203125 49.414062 114.632812 49.414062 C 149.78125 49.414062 178.417969 78.050781 178.417969 113.195312 C 178.417969 148.34375 149.78125 176.980469 114.632812 176.980469 C 84.5625 176.980469 59.050781 156.414062 52.542969 127.644531 C 54.234375 127.777344 56.1875 127.777344 57.75 127.777344 C 58.007812 127.777344 58.269531 127.777344 58.527344 127.777344 C 68.160156 127.644531 74.410156 120.488281 75.582031 113.585938 C 75.582031 113.195312 75.710938 112.808594 75.84375 112.417969 C 75.972656 112.027344 75.972656 111.765625 76.101562 111.375 C 76.234375 110.59375 76.363281 109.941406 76.625 109.160156 C 77.535156 105.125 78.316406 101.351562 80.269531 97.96875 C 80.917969 96.796875 82.871094 93.933594 83.523438 93.28125 C 84.171875 92.761719 84.5625 91.847656 84.433594 90.808594 C 84.171875 89.375 82.871094 88.464844 81.441406 88.59375 C 81.441406 88.59375 81.441406 88.59375 81.308594 88.59375 C 81.179688 88.59375 81.179688 88.59375 81.050781 88.59375 C 78.316406 89.117188 61.652344 92.890625 54.234375 98.488281 C 42.648438 107.210938 46.554688 124.523438 46.683594 125.304688 C 46.683594 125.5625 46.8125 125.824219 46.945312 125.953125 C 53.0625 158.757812 81.308594 182.1875 114.632812 182.1875 C 152.644531 182.1875 183.625 151.207031 183.625 113.195312 C 183.625 75.1875 152.644531 44.207031 114.632812 44.207031 Z M 57.226562 102.785156 C 61.523438 99.660156 69.722656 96.925781 75.582031 95.363281 C 73.109375 99.527344 72.195312 103.953125 71.285156 108.121094 C 71.15625 108.769531 71.027344 109.550781 70.765625 110.203125 C 70.765625 110.464844 70.636719 110.722656 70.503906 110.984375 C 70.375 111.503906 70.246094 112.15625 70.113281 112.675781 C 69.332031 117.492188 65.039062 122.441406 58.136719 122.570312 C 57.359375 122.570312 56.578125 122.570312 55.664062 122.570312 C 56.445312 120.617188 58.789062 115.671875 62.695312 113.847656 C 63.996094 113.328125 64.648438 111.765625 63.996094 110.464844 C 63.476562 109.160156 61.914062 108.511719 60.613281 109.160156 C 55.015625 111.636719 52.019531 117.625 50.847656 120.488281 C 50.71875 115.539062 51.238281 107.339844 57.226562 102.785156 Z M 57.226562 102.785156 " fill-opacity="1" fill-rule="nonzero"/></g><path fill="#3db36b" d="M 134.160156 130.121094 C 129.863281 130.121094 126.347656 133.632812 126.347656 137.929688 C 126.347656 142.226562 129.863281 145.742188 134.160156 145.742188 C 138.453125 145.742188 141.96875 142.226562 141.96875 137.929688 C 141.96875 133.632812 138.453125 130.121094 134.160156 130.121094 Z M 134.160156 140.535156 C 132.726562 140.535156 131.554688 139.363281 131.554688 137.929688 C 131.554688 136.5 132.726562 135.328125 134.160156 135.328125 C 135.589844 135.328125 136.761719 136.5 136.761719 137.929688 C 136.761719 139.363281 135.589844 140.535156 134.160156 140.535156 Z M 134.160156 140.535156 " fill-opacity="1" fill-rule="nonzero"/></svg>