<?xml version="1.0" encoding="UTF-8"?>
<!DOCTYPE svg PUBLIC "-//W3C//DTD SVG 1.1//EN" "http://www.w3.org/Graphics/SVG/1.1/DTD/svg11.dtd">
<svg xmlns="http://www.w3.org/2000/svg" version="1.1" width="512px" height="512px" style="shape-rendering:geometricPrecision; text-rendering:geometricPrecision; image-rendering:optimizeQuality; fill-rule:evenodd; clip-rule:evenodd" xmlns:xlink="http://www.w3.org/1999/xlink">
<g><path style="opacity:0.952" fill="#087f47" d="M 301.5,27.5 C 300.167,27.5 298.833,27.5 297.5,27.5C 297.476,31.7867 298.81,35.4533 301.5,38.5C 303.684,43.2185 305.684,48.0519 307.5,53C 310.525,53.3607 313.525,53.8607 316.5,54.5C 318.171,54.3318 319.504,53.6651 320.5,52.5C 321.674,51.4863 322.34,50.153 322.5,48.5C 323.167,48.5 323.5,48.1667 323.5,47.5C 328.733,43.1939 334.066,38.8606 339.5,34.5C 348.946,25.7647 358.279,16.9314 367.5,8C 369.167,7.16667 370.833,6.33333 372.5,5.5C 399.355,20.5673 425.022,37.0673 449.5,55C 455.274,58.596 460.941,62.4293 466.5,66.5C 467.766,68.9724 467.766,71.3057 466.5,73.5C 466.419,70.4866 465.086,68.4866 462.5,67.5C 456.518,63.1915 450.518,58.8582 444.5,54.5C 437.82,68.235 431.153,81.9017 424.5,95.5C 421.801,101.535 418.801,107.535 415.5,113.5C 416.547,115.056 417.214,116.723 417.5,118.5C 418.5,118.5 419.5,118.5 420.5,118.5C 421.401,119.29 422.068,120.29 422.5,121.5C 422.791,122.649 423.624,123.316 425,123.5C 427.137,122.923 429.304,122.59 431.5,122.5C 439.405,123.777 447.405,123.444 455.5,121.5C 452.914,120.52 450.247,120.187 447.5,120.5C 447.5,119.833 447.5,119.167 447.5,118.5C 455.178,119.112 462.845,119.946 470.5,121C 474.984,125.078 479.984,128.411 485.5,131C 487.439,132.432 488.772,134.265 489.5,136.5C 488.839,137.718 488.172,139.051 487.5,140.5C 486.5,159.822 486.167,179.155 486.5,198.5C 483.858,198.488 482.525,199.821 482.5,202.5C 465.851,214.141 449.185,225.808 432.5,237.5C 429.994,244.852 427.994,252.352 426.5,260C 423.232,266.065 420.565,272.398 418.5,279C 427.003,292.533 436.003,305.867 445.5,319C 431.35,339.313 417.017,359.48 402.5,379.5C 396.523,378.835 390.523,378.502 384.5,378.5C 379.354,377.449 374.021,376.782 368.5,376.5C 368.389,375.883 368.056,375.383 367.5,375C 361.825,374.301 356.158,373.968 350.5,374C 349.619,374.708 348.953,375.542 348.5,376.5C 337.146,386.681 325.313,396.347 313,405.5C 311.76,412.472 309.927,419.138 307.5,425.5C 306.629,428.003 305.963,430.67 305.5,433.5C 305.076,438.533 303.743,443.199 301.5,447.5C 300.343,450.273 299.676,453.273 299.5,456.5C 298.641,460.274 297.641,463.941 296.5,467.5C 282.512,472.601 268.845,478.268 255.5,484.5C 249.011,486.499 242.677,488.999 236.5,492C 242.809,497.487 249.476,502.487 256.5,507C 257.448,507.483 258.448,507.649 259.5,507.5C 260.791,507.263 261.791,507.596 262.5,508.5C 260.149,510.203 257.482,510.703 254.5,510C 245.496,503.635 236.496,497.301 227.5,491C 217.597,488.295 207.597,485.795 197.5,483.5C 195.921,479.889 194.588,476.223 193.5,472.5C 193.795,470.265 193.461,468.265 192.5,466.5C 191.112,458.726 188.445,451.559 184.5,445C 182.833,444.333 181.167,444.333 179.5,445C 163.333,459.334 147.666,474.168 132.5,489.5C 131.107,490.26 129.607,490.926 128,491.5C 122.798,489.483 117.965,486.816 113.5,483.5C 113.389,482.883 113.056,482.383 112.5,482C 110.527,481.505 108.527,481.338 106.5,481.5C 106.5,482.833 106.5,484.167 106.5,485.5C 99.5697,486.028 93.9031,483.695 89.5,478.5C 73.3043,469.483 57.471,459.816 42,449.5C 49.0495,432.376 56.8828,415.542 65.5,399C 63.6803,398.8 62.347,397.966 61.5,396.5C 67.7641,396.236 71.0974,392.903 71.5,386.5C 70.6032,380.595 67.2699,377.595 61.5,377.5C 53.7609,377.574 46.0943,378.241 38.5,379.5C 25.9086,374.192 12.9086,369.858 -0.5,366.5C -0.5,342.167 -0.5,317.833 -0.5,293.5C 18.8282,280.872 38.1616,268.206 57.5,255.5C 61.2539,241.831 66.2539,228.665 72.5,216C 63.5109,202.026 54.1776,188.36 44.5,175C 60.6215,152.718 76.9548,130.718 93.5,109C 110.332,111.132 127.165,113.632 144,116.5C 151.322,112.757 157.822,107.924 163.5,102C 169.305,98.2089 175.138,94.3756 181,90.5C 187.014,69.8817 192.848,49.2151 198.5,28.5C 222.039,19.432 245.706,10.7653 269.5,2.5C 277.223,5.02953 283.556,9.52953 288.5,16C 293.673,19.0134 298.006,22.8467 301.5,27.5 Z M 447.5,118.5 C 447.5,119.167 447.5,119.833 447.5,120.5C 446.833,120.5 446.167,120.5 445.5,120.5C 445.5,119.167 446.167,118.5 447.5,118.5 Z M 307.5,190.5 C 310.643,202.296 311.31,214.296 309.5,226.5C 296.426,275.398 266.093,307.898 218.5,324C 214.534,324.828 210.534,325.328 206.5,325.5C 206.5,324.833 206.5,324.167 206.5,323.5C 206.114,319.308 205.447,315.141 204.5,311C 205.534,297.578 208.534,284.745 213.5,272.5C 217.324,264.33 221.324,256.33 225.5,248.5C 228.802,244.191 232.136,239.857 235.5,235.5C 241.614,228.93 247.947,222.597 254.5,216.5C 257.109,215.557 259.109,213.89 260.5,211.5C 274.733,201.555 290.4,194.555 307.5,190.5 Z"/></g>
<g><path style="opacity:1" fill="#fcfdfd" d="M 267.5,30.5 C 268.137,36.8357 270.137,42.5023 273.5,47.5C 274.903,52.6271 276.569,57.6271 278.5,62.5C 288.992,63.1667 299.326,63.8334 309.5,64.5C 313.339,65.293 317.339,65.9597 321.5,66.5C 323.038,66.5466 324.038,65.8799 324.5,64.5C 339.33,50.5046 354.33,36.6712 369.5,23C 370.729,22.2189 372.062,21.7189 373.5,21.5C 385.015,27.5006 396.182,34.1672 407,41.5C 406.987,44.8969 406.321,48.2302 405,51.5C 400.207,59.5915 396.041,67.9249 392.5,76.5C 390.71,80.0374 389.043,83.7041 387.5,87.5C 385.354,91.7193 383.354,96.0526 381.5,100.5C 384.94,106.448 388.607,112.281 392.5,118C 395.325,123.478 397.158,129.311 398,135.5C 405.428,136.317 412.928,136.317 420.5,135.5C 431.497,134.792 442.497,134.125 453.5,133.5C 453.5,149.833 453.5,166.167 453.5,182.5C 450.883,183.786 448.55,185.453 446.5,187.5C 443.398,189.037 440.732,191.037 438.5,193.5C 427.094,200.716 415.76,208.216 404.5,216C 401.508,217.665 399.175,219.998 397.5,223C 394.03,238.583 388.696,253.416 381.5,267.5C 390.577,280.887 399.577,294.22 408.5,307.5C 395.331,326.111 381.831,344.111 368,361.5C 351.296,358.188 334.463,356.021 317.5,355C 305.248,365.76 292.581,375.926 279.5,385.5C 278.417,385.539 277.417,385.873 276.5,386.5C 275.402,389.753 274.736,393.086 274.5,396.5C 273.351,396.791 272.684,397.624 272.5,399C 271.884,402.53 271.218,406.03 270.5,409.5C 266.58,422.772 262.913,436.105 259.5,449.5C 255.29,450.261 251.123,451.261 247,452.5C 233.088,457.746 219.254,463.08 205.5,468.5C 205.41,466.304 205.077,464.137 204.5,462C 200.38,450.803 196.38,439.637 192.5,428.5C 192.326,426.139 191.993,423.806 191.5,421.5C 182.177,422.068 172.844,422.401 163.5,422.5C 156.493,422.059 149.493,421.892 142.5,422C 126.312,436.856 110.146,451.689 94,466.5C 82.9148,460.414 72.0814,453.914 61.5,447C 60.552,446.517 59.552,446.351 58.5,446.5C 58.3398,444.801 58.5065,443.134 59,441.5C 60.5989,437.69 62.4322,434.024 64.5,430.5C 66.2451,428.967 67.2451,426.967 67.5,424.5C 72.5567,412.719 77.89,401.052 83.5,389.5C 84.9931,388.688 85.6598,387.355 85.5,385.5C 85.4805,384.274 85.1471,383.274 84.5,382.5C 77.1012,372.082 71.4345,360.748 67.5,348.5C 66.2067,347.842 64.7067,347.508 63,347.5C 46.5292,349.036 30.0292,350.036 13.5,350.5C 13.5,333.5 13.5,316.5 13.5,299.5C 31.7952,286.68 50.4618,274.347 69.5,262.5C 73.6044,245.89 79.6044,230.056 87.5,215C 79.1011,201.432 70.1011,188.266 60.5,175.5C 64.5052,169.506 68.8386,163.839 73.5,158.5C 76.2768,156.049 78.2768,153.049 79.5,149.5C 79.5,148.833 79.8333,148.5 80.5,148.5C 82.5869,147.415 83.9202,145.749 84.5,143.5C 88.8925,135.94 94.2259,129.106 100.5,123C 109.208,123.14 117.875,123.974 126.5,125.5C 130.567,127.054 134.9,127.72 139.5,127.5C 144.129,128.481 148.796,128.648 153.5,128C 165.412,116.385 178.412,106.218 192.5,97.5C 198.745,78.3288 204.245,58.9954 209,39.5C 212.116,35.5266 216.283,33.5266 221.5,33.5C 223.674,33.2503 225.341,32.2503 226.5,30.5C 238.38,26.3107 250.213,21.9774 262,17.5C 262.945,17.9054 263.612,18.572 264,19.5C 264.94,23.2983 266.107,26.965 267.5,30.5 Z M 307.5,190.5 C 310.643,202.296 311.31,214.296 309.5,226.5C 296.426,275.398 266.093,307.898 218.5,324C 214.534,324.828 210.534,325.328 206.5,325.5C 206.5,324.833 206.5,324.167 206.5,323.5C 206.114,319.308 205.447,315.141 204.5,311C 205.534,297.578 208.534,284.745 213.5,272.5C 217.324,264.33 221.324,256.33 225.5,248.5C 228.802,244.191 232.136,239.857 235.5,235.5C 241.614,228.93 247.947,222.597 254.5,216.5C 257.109,215.557 259.109,213.89 260.5,211.5C 274.733,201.555 290.4,194.555 307.5,190.5 Z"/></g>
<g><path style="opacity:1" fill="#89c2a7" d="M 226.5,30.5 C 225.341,32.2503 223.674,33.2503 221.5,33.5C 222.486,31.5923 224.152,30.5923 226.5,30.5 Z"/></g>
<g><path style="opacity:0.987" fill="#7a0d06" d="M 323.5,45.5 C 323.5,46.1667 323.5,46.8333 323.5,47.5C 323.5,48.1667 323.167,48.5 322.5,48.5C 322.44,47.9569 322.107,47.6236 321.5,47.5C 320.548,49.0453 320.215,50.712 320.5,52.5C 319.504,53.6651 318.171,54.3318 316.5,54.5C 313.525,53.8607 310.525,53.3607 307.5,53C 305.684,48.0519 303.684,43.2185 301.5,38.5C 300.422,35.5696 299.922,32.5696 300,29.5C 306.591,34.5464 313.091,39.713 319.5,45C 320.793,45.49 322.127,45.6567 323.5,45.5 Z"/></g>
<g><path style="opacity:0.328" fill="#1a6d3b" d="M 301.5,27.5 C 307.579,31.3885 313.579,35.5551 319.5,40C 321.464,41.451 322.797,43.2843 323.5,45.5C 322.127,45.6567 320.793,45.49 319.5,45C 313.091,39.713 306.591,34.5464 300,29.5C 299.922,32.5696 300.422,35.5696 301.5,38.5C 298.81,35.4533 297.476,31.7867 297.5,27.5C 298.833,27.5 300.167,27.5 301.5,27.5 Z"/></g>
<g><path style="opacity:1" fill="#aad3bf" d="M 267.5,30.5 C 268.117,30.6107 268.617,30.944 269,31.5C 270.224,36.9944 271.724,42.3277 273.5,47.5C 270.137,42.5023 268.137,36.8357 267.5,30.5 Z"/></g>
<g><path style="opacity:0.788" fill="#414a2a" d="M 322.5,48.5 C 322.34,50.153 321.674,51.4863 320.5,52.5C 320.215,50.712 320.548,49.0453 321.5,47.5C 322.107,47.6236 322.44,47.9569 322.5,48.5 Z"/></g>
<g><path style="opacity:0.996" fill="#95221d" d="M 462.5,67.5 C 463.815,68.667 464.481,70.167 464.5,72C 461.242,79.0804 458.242,86.2471 455.5,93.5C 454.503,93.4701 453.836,93.9701 453.5,95C 451.257,100.569 448.924,106.069 446.5,111.5C 446.5,111.833 446.5,112.167 446.5,112.5C 444.621,113.895 443.621,115.895 443.5,118.5C 441.751,119.985 439.751,120.985 437.5,121.5C 432.375,121.765 427.375,121.765 422.5,121.5C 422.068,120.29 421.401,119.29 420.5,118.5C 419.554,116.868 418.554,115.201 417.5,113.5C 420.443,107.724 422.776,101.724 424.5,95.5C 431.153,81.9017 437.82,68.235 444.5,54.5C 450.518,58.8582 456.518,63.1915 462.5,67.5 Z"/></g>
<g><path style="opacity:1" fill="#90c6ac" d="M 309.5,64.5 C 314.5,64.5 319.5,64.5 324.5,64.5C 324.038,65.8799 323.038,66.5466 321.5,66.5C 317.339,65.9597 313.339,65.293 309.5,64.5 Z"/></g>
<g><path style="opacity:0.459" fill="#3a5f38" d="M 462.5,67.5 C 465.086,68.4866 466.419,70.4866 466.5,73.5C 462.944,82.0883 458.944,90.4217 454.5,98.5C 454.366,96.7085 454.699,95.0418 455.5,93.5C 458.242,86.2471 461.242,79.0804 464.5,72C 464.481,70.167 463.815,68.667 462.5,67.5 Z"/></g>
<g><path style="opacity:1" fill="#65ae8a" d="M 392.5,76.5 C 392.67,81.1519 391.003,84.8185 387.5,87.5C 389.043,83.7041 390.71,80.0374 392.5,76.5 Z"/></g>
<g><path style="opacity:1" fill="#b5b5b5" d="M 296.5,94.5 C 300.981,93.3516 305.648,93.1849 310.5,94C 311.416,94.2784 312.082,94.7784 312.5,95.5C 307.203,94.7255 301.87,94.3921 296.5,94.5 Z"/></g>
<g><path style="opacity:1" fill="#333333" d="M 251.5,96.5 C 258.011,95.1819 264.678,95.1819 271.5,96.5C 269.575,99.172 266.908,100.172 263.5,99.5C 265.389,98.678 267.389,97.8447 269.5,97C 263.509,96.5005 257.509,96.3338 251.5,96.5 Z"/></g>
<g><path style="opacity:1" fill="#0e0e0e" d="M 240.5,98.5 C 238.473,98.3379 236.473,98.5045 234.5,99C 233.748,99.6708 233.414,100.504 233.5,101.5C 233.5,102.167 233.5,102.833 233.5,103.5C 231.307,105.522 230.307,108.189 230.5,111.5C 229.596,112.209 229.263,113.209 229.5,114.5C 236.687,114.825 243.687,114.491 250.5,113.5C 251.345,112.329 252.011,110.995 252.5,109.5C 254.109,106.407 255.109,103.073 255.5,99.5C 254.167,99.5 252.833,99.5 251.5,99.5C 251.5,98.5 251.5,97.5 251.5,96.5C 257.509,96.3338 263.509,96.5005 269.5,97C 267.389,97.8447 265.389,98.678 263.5,99.5C 262.262,101.214 261.595,103.214 261.5,105.5C 259.759,107.395 258.759,109.728 258.5,112.5C 258.5,112.833 258.5,113.167 258.5,113.5C 256.755,115.033 255.755,117.033 255.5,119.5C 255.5,120.167 255.5,120.833 255.5,121.5C 253.621,122.895 252.621,124.895 252.5,127.5C 251.788,129.928 250.788,132.261 249.5,134.5C 249.957,135.298 250.624,135.631 251.5,135.5C 252.398,136.158 253.398,136.824 254.5,137.5C 248.528,138.664 242.528,138.83 236.5,138C 237.858,137.066 239.192,136.232 240.5,135.5C 243.488,132.191 245.488,128.191 246.5,123.5C 248.28,122.01 248.946,120.01 248.5,117.5C 241.313,117.175 234.313,117.509 227.5,118.5C 226.883,118.611 226.383,118.944 226,119.5C 224.905,123.608 223.738,127.608 222.5,131.5C 221.566,132.568 221.232,133.901 221.5,135.5C 222.833,135.5 224.167,135.5 225.5,135.5C 225.5,136.5 225.5,137.5 225.5,138.5C 219.158,138.666 212.825,138.5 206.5,138C 207.381,137.292 208.047,136.458 208.5,135.5C 210.5,135.5 212.5,135.5 214.5,135.5C 214.34,133.801 214.506,132.134 215,130.5C 218.366,121.946 221.532,113.279 224.5,104.5C 226.377,103.341 226.877,101.674 226,99.5C 223.974,99.0853 222.474,98.0853 221.5,96.5C 228.011,95.1819 234.678,95.1819 241.5,96.5C 241.137,97.1835 240.804,97.8501 240.5,98.5 Z"/></g>
<g><path style="opacity:1" fill="#131313" d="M 334.5,105.5 C 332.345,107.617 331.345,110.284 331.5,113.5C 330.596,114.209 330.263,115.209 330.5,116.5C 328.896,117.287 328.229,118.62 328.5,120.5C 327.053,121.134 326.387,122.301 326.5,124C 327.074,125.607 327.74,127.107 328.5,128.5C 327.167,129.167 326.167,130.167 325.5,131.5C 323.896,132.287 323.229,133.62 323.5,135.5C 325.167,135.5 326.833,135.5 328.5,135.5C 328.67,136.822 328.337,137.989 327.5,139C 321.175,139.5 314.842,139.666 308.5,139.5C 308.33,138.178 308.663,137.011 309.5,136C 311.708,135.809 313.708,135.309 315.5,134.5C 317.088,132.887 318.088,130.887 318.5,128.5C 318.5,127.833 318.5,127.167 318.5,126.5C 320.088,124.887 321.088,122.887 321.5,120.5C 321.5,119.833 321.5,119.167 321.5,118.5C 323.088,116.887 324.088,114.887 324.5,112.5C 324.629,110.784 324.962,109.117 325.5,107.5C 327.253,104.854 328.253,101.854 328.5,98.5C 326.833,98.5 325.167,98.5 323.5,98.5C 323.414,97.5041 323.748,96.6708 324.5,96C 330.825,95.5005 337.158,95.3338 343.5,95.5C 343.5,96.5 343.5,97.5 343.5,98.5C 341.167,98.5 338.833,98.5 336.5,98.5C 335.551,100.737 334.884,103.071 334.5,105.5 Z"/></g>
<g><path style="opacity:1" fill="#101010" d="M 354.5,95.5 C 361.2,95.17 367.866,95.5033 374.5,96.5C 374.145,97.5223 373.478,98.189 372.5,98.5C 370.473,98.3379 368.473,98.5045 366.5,99C 365.748,99.6708 365.414,100.504 365.5,101.5C 364.89,102.391 364.557,103.391 364.5,104.5C 362.903,106.848 361.903,109.514 361.5,112.5C 360.058,113.82 359.392,115.486 359.5,117.5C 357.759,119.395 356.759,121.728 356.5,124.5C 355.74,128.027 354.406,131.36 352.5,134.5C 352.957,135.298 353.624,135.631 354.5,135.5C 355.398,136.158 356.398,136.824 357.5,137.5C 351.193,138.664 344.859,138.831 338.5,138C 339.056,137.617 339.389,137.117 339.5,136.5C 341.369,135.835 343.369,135.169 345.5,134.5C 346.127,133.583 346.461,132.583 346.5,131.5C 348.088,129.887 349.088,127.887 349.5,125.5C 349.92,121.993 350.92,118.659 352.5,115.5C 353.857,114.41 354.857,113.076 355.5,111.5C 355.946,108.723 355.946,106.056 355.5,103.5C 355.842,102.662 356.508,102.328 357.5,102.5C 358.434,101.432 358.768,100.099 358.5,98.5C 357.167,98.5 355.833,98.5 354.5,98.5C 354.5,97.5 354.5,96.5 354.5,95.5 Z"/></g>
<g><path style="opacity:1" fill="#131313" d="M 296.5,94.5 C 301.87,94.3921 307.203,94.7255 312.5,95.5C 313.833,95.5 315.167,95.5 316.5,95.5C 316.218,99.6799 314.885,103.347 312.5,106.5C 310.917,104.492 309.917,102.159 309.5,99.5C 305.253,98.3982 300.92,98.2316 296.5,99C 293.334,99.3221 290.667,100.489 288.5,102.5C 286.05,103.711 284.05,105.378 282.5,107.5C 279.607,109.748 277.94,112.748 277.5,116.5C 276.883,116.611 276.383,116.944 276,117.5C 275.192,121.027 275.359,124.36 276.5,127.5C 276.75,129.674 277.75,131.341 279.5,132.5C 281.854,135.46 285.02,136.793 289,136.5C 291.898,136.363 294.731,135.863 297.5,135C 298.267,133.53 298.933,132.03 299.5,130.5C 299.414,129.504 299.748,128.671 300.5,128C 302.387,127.22 304.054,127.387 305.5,128.5C 303.446,131.008 302.446,134.008 302.5,137.5C 301.508,137.328 300.842,137.662 300.5,138.5C 291.8,138.711 283.133,138.377 274.5,137.5C 268.128,133.232 265.961,127.232 268,119.5C 269.908,116.785 271.241,113.785 272,110.5C 274.876,106.991 278.043,103.825 281.5,101C 286.842,99.2872 291.842,97.1206 296.5,94.5 Z"/></g>
<g><path style="opacity:1" fill="#828282" d="M 354.5,95.5 C 354.5,96.5 354.5,97.5 354.5,98.5C 355.833,98.5 357.167,98.5 358.5,98.5C 358.768,100.099 358.434,101.432 357.5,102.5C 357.5,101.5 357.5,100.5 357.5,99.5C 355.856,99.7135 354.356,99.3802 353,98.5C 352.415,97.0024 352.915,96.0024 354.5,95.5 Z"/></g>
<g><path style="opacity:1" fill="#7b7b7b" d="M 372.5,98.5 C 370.066,99.1311 367.732,100.131 365.5,101.5C 365.414,100.504 365.748,99.6708 366.5,99C 368.473,98.5045 370.473,98.3379 372.5,98.5 Z"/></g>
<g><path style="opacity:1" fill="#b6b6b6" d="M 221.5,96.5 C 222.474,98.0853 223.974,99.0853 226,99.5C 226.877,101.674 226.377,103.341 224.5,104.5C 225.824,101.205 224.491,99.872 220.5,100.5C 220.232,98.901 220.566,97.5676 221.5,96.5 Z"/></g>
<g><path style="opacity:1" fill="#c9c9c9" d="M 309.5,99.5 C 309.737,100.791 309.404,101.791 308.5,102.5C 306.777,101.2 304.61,100.533 302,100.5C 297.395,100.589 292.895,101.255 288.5,102.5C 290.667,100.489 293.334,99.3221 296.5,99C 300.92,98.2316 305.253,98.3982 309.5,99.5 Z"/></g>
<g><path style="opacity:1" fill="#2e683b" d="M 424.5,95.5 C 422.776,101.724 420.443,107.724 417.5,113.5C 418.554,115.201 419.554,116.868 420.5,118.5C 419.5,118.5 418.5,118.5 417.5,118.5C 417.214,116.723 416.547,115.056 415.5,113.5C 418.801,107.535 421.801,101.535 424.5,95.5 Z"/></g>
<g><path style="opacity:1" fill="#939393" d="M 240.5,98.5 C 238.173,99.3657 235.839,100.366 233.5,101.5C 233.414,100.504 233.748,99.6708 234.5,99C 236.473,98.5045 238.473,98.3379 240.5,98.5 Z"/></g>
<g><path style="opacity:1" fill="#b9b9b9" d="M 323.5,98.5 C 325.167,98.5 326.833,98.5 328.5,98.5C 328.253,101.854 327.253,104.854 325.5,107.5C 325.779,104.882 326.446,102.382 327.5,100C 325.942,99.79 324.609,99.29 323.5,98.5 Z"/></g>
<g><path style="opacity:0.412" fill="#4e5131" d="M 455.5,93.5 C 454.699,95.0418 454.366,96.7085 454.5,98.5C 454.051,102.048 453.051,105.381 451.5,108.5C 449.589,109.075 447.922,110.075 446.5,111.5C 448.924,106.069 451.257,100.569 453.5,95C 453.836,93.9701 454.503,93.4701 455.5,93.5 Z"/></g>
<g><path style="opacity:1" fill="#535353" d="M 309.5,99.5 C 309.917,102.159 310.917,104.492 312.5,106.5C 311.432,107.434 310.099,107.768 308.5,107.5C 308.5,105.833 308.5,104.167 308.5,102.5C 309.404,101.791 309.737,100.791 309.5,99.5 Z"/></g>
<g><path style="opacity:1" fill="#a1a1a1" d="M 364.5,104.5 C 364.693,107.811 363.693,110.478 361.5,112.5C 361.903,109.514 362.903,106.848 364.5,104.5 Z"/></g>
<g><path style="opacity:1" fill="#8f8f8f" d="M 355.5,111.5 C 354.857,113.076 353.857,114.41 352.5,115.5C 353.218,113.863 353.384,112.197 353,110.5C 352.329,111.252 351.496,111.586 350.5,111.5C 353.038,106.639 354.704,106.639 355.5,111.5 Z"/></g>
<g><path style="opacity:1" fill="#616161" d="M 334.5,105.5 C 333.871,108.397 332.871,111.064 331.5,113.5C 331.345,110.284 332.345,107.617 334.5,105.5 Z"/></g>
<g><path style="opacity:1" fill="#a4a4a4" d="M 261.5,105.5 C 261.357,108.385 260.357,110.718 258.5,112.5C 258.759,109.728 259.759,107.395 261.5,105.5 Z"/></g>
<g><path style="opacity:1" fill="#cbcbcb" d="M 233.5,103.5 C 232.583,106.417 231.916,109.417 231.5,112.5C 237.833,112.5 244.167,112.5 250.5,112.5C 250.285,110.821 250.952,109.821 252.5,109.5C 252.011,110.995 251.345,112.329 250.5,113.5C 243.416,114.126 236.75,113.459 230.5,111.5C 230.307,108.189 231.307,105.522 233.5,103.5 Z"/></g>
<g><path style="opacity:1" fill="#7e7e7e" d="M 230.5,111.5 C 236.75,113.459 243.416,114.126 250.5,113.5C 243.687,114.491 236.687,114.825 229.5,114.5C 229.263,113.209 229.596,112.209 230.5,111.5 Z"/></g>
<g><path style="opacity:0.298" fill="#236c3d" d="M 451.5,108.5 C 450.098,110.875 448.765,113.209 447.5,115.5C 446.89,114.609 446.557,113.609 446.5,112.5C 446.5,112.167 446.5,111.833 446.5,111.5C 447.922,110.075 449.589,109.075 451.5,108.5 Z"/></g>
<g><path style="opacity:1" fill="#afafaf" d="M 282.5,107.5 C 282.113,111.279 280.447,114.279 277.5,116.5C 277.94,112.748 279.607,109.748 282.5,107.5 Z"/></g>
<g><path style="opacity:0.133" fill="#564b2e" d="M 446.5,112.5 C 446.557,113.609 446.89,114.609 447.5,115.5C 445.97,116.211 444.637,117.211 443.5,118.5C 443.621,115.895 444.621,113.895 446.5,112.5 Z"/></g>
<g><path style="opacity:1" fill="#707070" d="M 258.5,113.5 C 258.245,115.967 257.245,117.967 255.5,119.5C 255.755,117.033 256.755,115.033 258.5,113.5 Z"/></g>
<g><path style="opacity:1" fill="#292929" d="M 355.5,103.5 C 355.946,106.056 355.946,108.723 355.5,111.5C 354.704,106.639 353.038,106.639 350.5,111.5C 343.496,116.514 336.829,121.847 330.5,127.5C 329.833,127.833 329.167,128.167 328.5,128.5C 327.74,127.107 327.074,125.607 326.5,124C 326.387,122.301 327.053,121.134 328.5,120.5C 326.712,126.213 327.712,126.879 331.5,122.5C 339.422,116.189 347.422,109.855 355.5,103.5 Z"/></g>
<g><path style="opacity:1" fill="#727272" d="M 227.5,118.5 C 234.313,117.509 241.313,117.175 248.5,117.5C 248.946,120.01 248.28,122.01 246.5,123.5C 247.038,121.883 247.371,120.216 247.5,118.5C 240.833,118.5 234.167,118.5 227.5,118.5 Z"/></g>
<g><path style="opacity:1" fill="#949494" d="M 324.5,112.5 C 324.088,114.887 323.088,116.887 321.5,118.5C 321.621,115.895 322.621,113.895 324.5,112.5 Z"/></g>
<g><path style="opacity:0.937" fill="#486a45" d="M 447.5,115.5 C 447.5,116.5 447.5,117.5 447.5,118.5C 446.167,118.5 445.5,119.167 445.5,120.5C 442.994,121.75 440.327,122.416 437.5,122.5C 437.5,122.167 437.5,121.833 437.5,121.5C 439.751,120.985 441.751,119.985 443.5,118.5C 444.637,117.211 445.97,116.211 447.5,115.5 Z"/></g>
<g><path style="opacity:1" fill="#606060" d="M 277.5,116.5 C 276.656,120.099 276.323,123.766 276.5,127.5C 275.359,124.36 275.192,121.027 276,117.5C 276.383,116.944 276.883,116.611 277.5,116.5 Z"/></g>
<g><path style="opacity:1" fill="#a2a2a2" d="M 330.5,116.5 C 330.179,117.817 329.846,119.151 329.5,120.5C 329.747,121.713 330.414,122.38 331.5,122.5C 327.712,126.879 326.712,126.213 328.5,120.5C 328.229,118.62 328.896,117.287 330.5,116.5 Z"/></g>
<g><path style="opacity:0.996" fill="#73523d" d="M 422.5,121.5 C 427.375,121.765 432.375,121.765 437.5,121.5C 437.5,121.833 437.5,122.167 437.5,122.5C 435.5,122.5 433.5,122.5 431.5,122.5C 429.304,122.59 427.137,122.923 425,123.5C 423.624,123.316 422.791,122.649 422.5,121.5 Z"/></g>
<g><path style="opacity:1" fill="#5baa86" d="M 445.5,120.5 C 446.167,120.5 446.833,120.5 447.5,120.5C 450.247,120.187 452.914,120.52 455.5,121.5C 447.405,123.444 439.405,123.777 431.5,122.5C 433.5,122.5 435.5,122.5 437.5,122.5C 440.327,122.416 442.994,121.75 445.5,120.5 Z"/></g>
<g><path style="opacity:1" fill="#636363" d="M 359.5,117.5 C 359.241,120.272 358.241,122.605 356.5,124.5C 356.759,121.728 357.759,119.395 359.5,117.5 Z"/></g>
<g><path style="opacity:1" fill="#73b797" d="M 126.5,125.5 C 131.1,125.28 135.433,125.946 139.5,127.5C 134.9,127.72 130.567,127.054 126.5,125.5 Z"/></g>
<g><path style="opacity:1" fill="#939393" d="M 321.5,120.5 C 321.088,122.887 320.088,124.887 318.5,126.5C 318.621,123.895 319.621,121.895 321.5,120.5 Z"/></g>
<g><path style="opacity:1" fill="#878787" d="M 227.5,118.5 C 227.175,123.463 225.508,127.796 222.5,131.5C 223.738,127.608 224.905,123.608 226,119.5C 226.383,118.944 226.883,118.611 227.5,118.5 Z"/></g>
<g><path style="opacity:1" fill="#676767" d="M 255.5,121.5 C 255.088,123.887 254.088,125.887 252.5,127.5C 252.621,124.895 253.621,122.895 255.5,121.5 Z"/></g>
<g><path style="opacity:1" fill="#a3a3a3" d="M 330.5,127.5 C 329.461,129.531 327.795,130.864 325.5,131.5C 326.167,130.167 327.167,129.167 328.5,128.5C 329.167,128.167 329.833,127.833 330.5,127.5 Z"/></g>
<g><path style="opacity:1" fill="#848484" d="M 349.5,125.5 C 349.088,127.887 348.088,129.887 346.5,131.5C 346.621,128.895 347.621,126.895 349.5,125.5 Z"/></g>
<g><path style="opacity:1" fill="#919191" d="M 318.5,128.5 C 318.088,130.887 317.088,132.887 315.5,134.5C 315.621,131.895 316.621,129.895 318.5,128.5 Z"/></g>
<g><path style="opacity:1" fill="#9f9f9f" d="M 299.5,130.5 C 298.933,132.03 298.267,133.53 297.5,135C 294.731,135.863 291.898,136.363 289,136.5C 285.02,136.793 281.854,135.46 279.5,132.5C 284.923,134.508 290.59,135.008 296.5,134C 296.974,132.271 297.974,131.105 299.5,130.5 Z"/></g>
<g><path style="opacity:1" fill="#9a9a9a" d="M 305.5,128.5 C 305.117,131.811 304.117,134.811 302.5,137.5C 302.446,134.008 303.446,131.008 305.5,128.5 Z"/></g>
<g><path style="opacity:1" fill="#555555" d="M 208.5,135.5 C 208.047,136.458 207.381,137.292 206.5,138C 212.825,138.5 219.158,138.666 225.5,138.5C 225.5,137.5 225.5,136.5 225.5,135.5C 226.434,136.568 226.768,137.901 226.5,139.5C 219.5,139.5 212.5,139.5 205.5,139.5C 205.088,137.027 206.088,135.694 208.5,135.5 Z"/></g>
<g><path style="opacity:1" fill="#4d4d4d" d="M 240.5,135.5 C 239.192,136.232 237.858,137.066 236.5,138C 242.528,138.83 248.528,138.664 254.5,137.5C 253.398,136.824 252.398,136.158 251.5,135.5C 252.833,135.5 254.167,135.5 255.5,135.5C 255.5,136.833 255.5,138.167 255.5,139.5C 248.5,139.5 241.5,139.5 234.5,139.5C 235.031,136.221 237.031,134.887 240.5,135.5 Z"/></g>
<g><path style="opacity:1" fill="#454545" d="M 274.5,137.5 C 283.133,138.377 291.8,138.711 300.5,138.5C 293.725,140.239 286.725,140.739 279.5,140C 277.509,139.626 275.842,138.793 274.5,137.5 Z"/></g>
<g><path style="opacity:1" fill="#525252" d="M 354.5,135.5 C 355.833,135.5 357.167,135.5 358.5,135.5C 358.5,136.833 358.5,138.167 358.5,139.5C 351.5,139.5 344.5,139.5 337.5,139.5C 337.285,137.821 337.952,136.821 339.5,136.5C 339.389,137.117 339.056,137.617 338.5,138C 344.859,138.831 351.193,138.664 357.5,137.5C 356.398,136.824 355.398,136.158 354.5,135.5 Z"/></g>
<g><path style="opacity:0.051" fill="#7b3224" d="M 489.5,136.5 C 492.109,137.443 494.109,139.11 495.5,141.5C 492.467,141.125 490.467,139.458 489.5,136.5 Z"/></g>
<g><path style="opacity:1" fill="#92c7ad" d="M 84.5,143.5 C 83.9202,145.749 82.5869,147.415 80.5,148.5C 81.0798,146.251 82.4131,144.585 84.5,143.5 Z"/></g>
<g><path style="opacity:1" fill="#7fbea1" d="M 453.5,182.5 C 453.5,166.167 453.5,149.833 453.5,133.5C 442.497,134.125 431.497,134.792 420.5,135.5C 421.609,134.71 422.942,134.21 424.5,134C 434.478,133.011 444.478,132.511 454.5,132.5C 454.83,149.342 454.497,166.008 453.5,182.5 Z"/></g>
<g><path style="opacity:1" fill="#69b291" d="M 274.5,150.5 C 264.063,150.069 253.73,150.736 243.5,152.5C 245.305,150.803 247.639,149.97 250.5,150C 258.677,149.177 266.677,149.344 274.5,150.5 Z"/></g>
<g><path style="opacity:0.392" fill="#246f3e" d="M 489.5,136.5 C 490.467,139.458 492.467,141.125 495.5,141.5C 500.872,145.512 506.205,149.512 511.5,153.5C 511.5,174.5 511.5,195.5 511.5,216.5C 511.167,216.5 510.833,216.5 510.5,216.5C 511.155,196.139 510.488,176.139 508.5,156.5C 502.81,151.482 496.81,146.815 490.5,142.5C 489.791,141.596 488.791,141.263 487.5,141.5C 487.5,160.5 487.5,179.5 487.5,198.5C 485.858,199.803 484.191,201.136 482.5,202.5C 482.525,199.821 483.858,198.488 486.5,198.5C 486.167,179.155 486.5,159.822 487.5,140.5C 488.172,139.051 488.839,137.718 489.5,136.5 Z"/></g>
<g><path style="opacity:0.973" fill="#087f47" d="M 274.5,150.5 C 295.775,153.602 310.941,164.935 320,184.5C 320.822,187.117 321.322,189.784 321.5,192.5C 322.793,205.147 322.793,217.814 321.5,230.5C 319.295,241.615 315.795,252.281 311,262.5C 303.745,273.997 295.745,284.997 287,295.5C 270.804,312.511 251.638,324.844 229.5,332.5C 225.532,333.394 221.532,334.227 217.5,335C 216.944,335.383 216.611,335.883 216.5,336.5C 207.803,337.641 199.136,337.641 190.5,336.5C 186.346,334.926 182.013,333.592 177.5,332.5C 162.608,326.419 152.442,315.752 147,300.5C 145.507,294.537 144.341,288.537 143.5,282.5C 143.572,273.449 144.239,264.449 145.5,255.5C 145.89,252.161 146.39,248.827 147,245.5C 161.421,206.113 187.254,176.947 224.5,158C 226.518,157.495 228.518,156.995 230.5,156.5C 232.967,156.245 234.967,155.245 236.5,153.5C 238.806,153.007 241.139,152.674 243.5,152.5C 253.73,150.736 264.063,150.069 274.5,150.5 Z M 307.5,190.5 C 310.643,202.296 311.31,214.296 309.5,226.5C 296.426,275.398 266.093,307.898 218.5,324C 214.534,324.828 210.534,325.328 206.5,325.5C 206.5,324.833 206.5,324.167 206.5,323.5C 206.114,319.308 205.447,315.141 204.5,311C 205.534,297.578 208.534,284.745 213.5,272.5C 217.324,264.33 221.324,256.33 225.5,248.5C 228.802,244.191 232.136,239.857 235.5,235.5C 241.614,228.93 247.947,222.597 254.5,216.5C 257.109,215.557 259.109,213.89 260.5,211.5C 274.733,201.555 290.4,194.555 307.5,190.5 Z"/></g>
<g><path style="opacity:0.993" fill="#862a21" d="M 490.5,142.5 C 496.81,146.815 502.81,151.482 508.5,156.5C 508.83,176.674 508.497,196.674 507.5,216.5C 507.667,198.497 507.5,180.497 507,162.5C 505.687,163.573 504.187,164.24 502.5,164.5C 499.611,163.611 496.945,162.278 494.5,160.5C 493.15,161.95 491.484,162.617 489.5,162.5C 489.828,174.345 489.495,186.012 488.5,197.5C 487.846,178.803 488.513,160.47 490.5,142.5 Z"/></g>
<g><path style="opacity:1" fill="#8fc5ac" d="M 79.5,149.5 C 78.2768,153.049 76.2768,156.049 73.5,158.5C 74.7232,154.951 76.7232,151.951 79.5,149.5 Z"/></g>
<g><path style="opacity:1" fill="#8fc6ac" d="M 236.5,153.5 C 234.967,155.245 232.967,156.245 230.5,156.5C 232.033,154.755 234.033,153.755 236.5,153.5 Z"/></g>
<g><path style="opacity:0.996" fill="#96221e" d="M 507.5,216.5 C 493.115,225.686 479.115,235.353 465.5,245.5C 461.547,247.947 457.713,250.613 454,253.5C 452.872,255.345 452.372,257.345 452.5,259.5C 451.883,259.611 451.383,259.944 451,260.5C 450.304,263.478 449.804,266.478 449.5,269.5C 445.403,278.223 442.07,287.223 439.5,296.5C 440.054,298.61 440.888,300.61 442,302.5C 450.052,313.379 457.886,324.379 465.5,335.5C 451.904,355.608 438.071,375.608 424,395.5C 422.301,396.406 420.467,396.739 418.5,396.5C 418.389,395.883 418.056,395.383 417.5,395C 411.839,394.367 406.172,393.867 400.5,393.5C 393.1,392.681 385.767,391.681 378.5,390.5C 377.551,389.848 376.385,389.514 375,389.5C 373.319,389.608 372.152,390.275 371.5,391.5C 367.843,394.158 364.509,397.158 361.5,400.5C 352.633,407.855 343.466,414.855 334,421.5C 332.109,426.337 330.942,431.337 330.5,436.5C 329.143,440.062 328.143,443.729 327.5,447.5C 326.883,447.611 326.383,447.944 326,448.5C 325.281,452.145 324.781,455.812 324.5,459.5C 322.058,466.957 319.725,474.624 317.5,482.5C 315.139,483.855 312.806,485.188 310.5,486.5C 308.392,487.237 306.225,487.904 304,488.5C 302.97,488.836 302.47,489.503 302.5,490.5C 301.041,490.433 299.708,490.766 298.5,491.5C 287.736,496.333 276.736,500.666 265.5,504.5C 263.565,505.15 261.565,505.483 259.5,505.5C 259.624,503.048 260.624,501.048 262.5,499.5C 262.333,498.833 262.167,498.167 262,497.5C 258.646,495.078 255.146,493.078 251.5,491.5C 250.68,487.721 252.013,485.388 255.5,484.5C 268.845,478.268 282.512,472.601 296.5,467.5C 297.641,463.941 298.641,460.274 299.5,456.5C 301.265,453.877 301.932,450.877 301.5,447.5C 303.743,443.199 305.076,438.533 305.5,433.5C 306.117,433.389 306.617,433.056 307,432.5C 307.497,430.19 307.663,427.857 307.5,425.5C 309.927,419.138 311.76,412.472 313,405.5C 325.313,396.347 337.146,386.681 348.5,376.5C 350.094,376.08 351.594,375.414 353,374.5C 358.177,375.195 363.343,375.861 368.5,376.5C 374.021,376.782 379.354,377.449 384.5,378.5C 388.985,379.421 393.651,380.088 398.5,380.5C 400.045,380.489 401.378,380.156 402.5,379.5C 417.017,359.48 431.35,339.313 445.5,319C 436.003,305.867 427.003,292.533 418.5,279C 420.565,272.398 423.232,266.065 426.5,260C 427.994,252.352 429.994,244.852 432.5,237.5C 449.185,225.808 465.851,214.141 482.5,202.5C 484.191,201.136 485.858,199.803 487.5,198.5C 488.167,198.5 488.5,198.167 488.5,197.5C 489.495,186.012 489.828,174.345 489.5,162.5C 491.484,162.617 493.15,161.95 494.5,160.5C 496.945,162.278 499.611,163.611 502.5,164.5C 504.187,164.24 505.687,163.573 507,162.5C 507.5,180.497 507.667,198.497 507.5,216.5 Z"/></g>
<g><path style="opacity:0.996" fill="#653e2a" d="M 490.5,142.5 C 488.513,160.47 487.846,178.803 488.5,197.5C 488.5,198.167 488.167,198.5 487.5,198.5C 487.5,179.5 487.5,160.5 487.5,141.5C 488.791,141.263 489.791,141.596 490.5,142.5 Z"/></g>
<g><path style="opacity:0.996" fill="#96221e" d="M 307.5,186.5 C 297.136,190.241 286.636,194.241 276,198.5C 268.66,202.574 261.826,207.241 255.5,212.5C 255.5,213.167 255.167,213.5 254.5,213.5C 247.509,218.825 241.176,224.825 235.5,231.5C 230.399,236.936 226.066,242.936 222.5,249.5C 212.982,264.549 206.649,280.883 203.5,298.5C 202.183,307.038 202.183,315.705 203.5,324.5C 199.555,325.491 195.555,325.824 191.5,325.5C 188.966,322.422 186.966,319.089 185.5,315.5C 184.873,311.634 183.873,307.968 182.5,304.5C 182.198,296.082 182.531,287.748 183.5,279.5C 193.436,233.708 219.436,200.208 261.5,179C 269.129,175.526 277.129,173.193 285.5,172C 292.459,169.938 297.959,171.771 302,177.5C 304.3,180.258 306.133,183.258 307.5,186.5 Z"/></g>
<g><path style="opacity:1" fill="#81bea2" d="M 453.5,182.5 C 452.008,185.323 449.674,186.99 446.5,187.5C 448.55,185.453 450.883,183.786 453.5,182.5 Z"/></g>
<g><path style="opacity:1" fill="#83bfa3" d="M 446.5,187.5 C 444.684,190.652 442.017,192.652 438.5,193.5C 440.732,191.037 443.398,189.037 446.5,187.5 Z"/></g>
<g><path style="opacity:0.271" fill="#405c36" d="M 307.5,186.5 C 308.833,187.833 308.833,189.167 307.5,190.5C 290.4,194.555 274.733,201.555 260.5,211.5C 258.784,211.629 257.117,211.962 255.5,212.5C 261.826,207.241 268.66,202.574 276,198.5C 286.636,194.241 297.136,190.241 307.5,186.5 Z"/></g>
<g><path style="opacity:1" fill="#68b18e" d="M 321.5,192.5 C 322.117,192.611 322.617,192.944 323,193.5C 324.905,204.838 324.905,216.172 323,227.5C 322.768,228.737 322.268,229.737 321.5,230.5C 322.793,217.814 322.793,205.147 321.5,192.5 Z"/></g>
<g><path style="opacity:0.021" fill="#137641" d="M 260.5,211.5 C 259.109,213.89 257.109,215.557 254.5,216.5C 254.5,215.5 254.5,214.5 254.5,213.5C 255.167,213.5 255.5,213.167 255.5,212.5C 257.117,211.962 258.784,211.629 260.5,211.5 Z"/></g>
<g><path style="opacity:0.185" fill="#3e5d37" d="M 254.5,213.5 C 254.5,214.5 254.5,215.5 254.5,216.5C 247.947,222.597 241.614,228.93 235.5,235.5C 235.5,234.167 235.5,232.833 235.5,231.5C 241.176,224.825 247.509,218.825 254.5,213.5 Z"/></g>
<g><path style="opacity:0.147" fill="#455634" d="M 508.5,156.5 C 510.488,176.139 511.155,196.139 510.5,216.5C 497.45,226.858 483.784,236.525 469.5,245.5C 468.167,245.5 466.833,245.5 465.5,245.5C 479.115,235.353 493.115,225.686 507.5,216.5C 508.497,196.674 508.83,176.674 508.5,156.5 Z"/></g>
<g><path style="opacity:0.278" fill="#505232" d="M 235.5,231.5 C 235.5,232.833 235.5,234.167 235.5,235.5C 232.136,239.857 228.802,244.191 225.5,248.5C 224.391,248.557 223.391,248.89 222.5,249.5C 226.066,242.936 230.399,236.936 235.5,231.5 Z"/></g>
<g><path style="opacity:0.051" fill="#35653a" d="M 465.5,245.5 C 466.833,245.5 468.167,245.5 469.5,245.5C 464.83,249.171 460.163,252.837 455.5,256.5C 454.668,260.155 453.835,263.821 453,267.5C 452.617,268.056 452.117,268.389 451.5,268.5C 451.368,265.43 451.701,262.43 452.5,259.5C 452.372,257.345 452.872,255.345 454,253.5C 457.713,250.613 461.547,247.947 465.5,245.5 Z"/></g>
<g><path style="opacity:0.471" fill="#524d2f" d="M 452.5,259.5 C 451.701,262.43 451.368,265.43 451.5,268.5C 451.5,268.833 451.5,269.167 451.5,269.5C 450.833,269.5 450.167,269.5 449.5,269.5C 449.804,266.478 450.304,263.478 451,260.5C 451.383,259.944 451.883,259.611 452.5,259.5 Z"/></g>
<g><path style="opacity:1" fill="#6cb492" d="M 145.5,255.5 C 144.239,264.449 143.572,273.449 143.5,282.5C 142.352,278.019 142.185,273.352 143,268.5C 143.333,264.833 143.667,261.167 144,257.5C 144.278,256.584 144.778,255.918 145.5,255.5 Z"/></g>
<g><path style="opacity:0.365" fill="#3b6239" d="M 225.5,248.5 C 221.324,256.33 217.324,264.33 213.5,272.5C 208.534,284.745 205.534,297.578 204.5,311C 205.447,315.141 206.114,319.308 206.5,323.5C 205.504,323.586 204.671,323.252 204,322.5C 203.5,314.507 203.334,306.507 203.5,298.5C 206.649,280.883 212.982,264.549 222.5,249.5C 223.391,248.89 224.391,248.557 225.5,248.5 Z"/></g>
<g><path style="opacity:0.239" fill="#3b6038" d="M 449.5,269.5 C 450.167,269.5 450.833,269.5 451.5,269.5C 449.446,278.831 446.112,287.664 441.5,296C 450.049,309.141 459.049,321.974 468.5,334.5C 468.833,335.167 469.167,335.833 469.5,336.5C 469.253,337.713 468.586,338.38 467.5,338.5C 467.573,336.973 466.906,335.973 465.5,335.5C 457.886,324.379 450.052,313.379 442,302.5C 440.888,300.61 440.054,298.61 439.5,296.5C 442.07,287.223 445.403,278.223 449.5,269.5 Z"/></g>
<g><path style="opacity:0.996" fill="#3f5634" d="M 183.5,279.5 C 182.531,287.748 182.198,296.082 182.5,304.5C 181.834,300.514 181.501,296.347 181.5,292C 181.509,287.443 182.175,283.276 183.5,279.5 Z"/></g>
<g><path style="opacity:1" fill="#77b99a" d="M 13.5,299.5 C 13.5,316.5 13.5,333.5 13.5,350.5C 30.0292,350.036 46.5292,349.036 63,347.5C 64.7067,347.508 66.2067,347.842 67.5,348.5C 49.4849,350.002 31.4849,351.169 13.5,352C 12.1693,334.402 12.1693,316.902 13.5,299.5 Z"/></g>
<g><path style="opacity:0.996" fill="#396138" d="M 182.5,304.5 C 183.873,307.968 184.873,311.634 185.5,315.5C 183.12,312.325 182.12,308.658 182.5,304.5 Z"/></g>
<g><path style="opacity:0.996" fill="#6a3e29" d="M 203.5,298.5 C 203.334,306.507 203.5,314.507 204,322.5C 204.671,323.252 205.504,323.586 206.5,323.5C 206.5,324.167 206.5,324.833 206.5,325.5C 201.369,326.751 196.369,326.751 191.5,325.5C 195.555,325.824 199.555,325.491 203.5,324.5C 202.183,315.705 202.183,307.038 203.5,298.5 Z"/></g>
<g><path style="opacity:1" fill="#68b28f" d="M 229.5,332.5 C 229.389,333.117 229.056,333.617 228.5,334C 224.468,334.773 220.468,335.606 216.5,336.5C 216.611,335.883 216.944,335.383 217.5,335C 221.532,334.227 225.532,333.394 229.5,332.5 Z"/></g>
<g><path style="opacity:1" fill="#78b99a" d="M 177.5,332.5 C 182.013,333.592 186.346,334.926 190.5,336.5C 187.478,336.196 184.478,335.696 181.5,335C 179.68,334.8 178.347,333.966 177.5,332.5 Z"/></g>
<g><path style="opacity:1" fill="#060606" d="M 118.5,353.5 C 118.183,357.702 118.517,361.702 119.5,365.5C 119.918,366.222 120.584,366.722 121.5,367C 117.833,367.667 114.167,367.667 110.5,367C 111.416,366.722 112.082,366.222 112.5,365.5C 113.473,363.052 113.806,360.385 113.5,357.5C 109.833,357.5 106.167,357.5 102.5,357.5C 103.441,355.95 104.107,354.284 104.5,352.5C 105.492,352.328 106.158,352.662 106.5,353.5C 105.957,353.56 105.624,353.893 105.5,354.5C 108.086,355.48 110.753,355.813 113.5,355.5C 113.5,352.833 113.5,350.167 113.5,347.5C 113.082,346.778 112.416,346.278 111.5,346C 112.975,343.691 114.642,341.524 116.5,339.5C 117.167,344.317 117.834,348.983 118.5,353.5 Z"/></g>
<g><path style="opacity:0.49" fill="#455a35" d="M 465.5,335.5 C 466.906,335.973 467.573,336.973 467.5,338.5C 453.913,358.427 439.913,378.093 425.5,397.5C 423.5,397.833 421.5,398.167 419.5,398.5C 417.048,398.461 415.048,397.794 413.5,396.5C 415.167,396.5 416.833,396.5 418.5,396.5C 420.467,396.739 422.301,396.406 424,395.5C 438.071,375.608 451.904,355.608 465.5,335.5 Z"/></g>
<g><path style="opacity:1" fill="#272727" d="M 146.5,349.5 C 147.167,349.5 147.833,349.5 148.5,349.5C 147.747,356.058 146.08,356.725 143.5,351.5C 142.391,350.71 141.058,350.21 139.5,350C 141.81,349.503 144.143,349.337 146.5,349.5 Z"/></g>
<g><path style="opacity:1" fill="#484848" d="M 286.5,352.5 C 285.448,350.744 283.781,350.077 281.5,350.5C 281.768,352.099 281.434,353.432 280.5,354.5C 279.335,351.978 278.002,351.978 276.5,354.5C 275.176,355.85 274.176,355.683 273.5,354C 273.989,352.862 274.322,351.695 274.5,350.5C 280.412,348.544 286.745,347.877 293.5,348.5C 293.663,350.857 293.497,353.19 293,355.5C 291.989,356.337 290.822,356.67 289.5,356.5C 289.5,355.167 289.5,353.833 289.5,352.5C 288.5,352.5 287.5,352.5 286.5,352.5 Z"/></g>
<g><path style="opacity:1" fill="#3e3e3e" d="M 115.5,338.5 C 116.5,338.5 117.5,338.5 118.5,338.5C 118.5,343.5 118.5,348.5 118.5,353.5C 117.834,348.983 117.167,344.317 116.5,339.5C 114.642,341.524 112.975,343.691 111.5,346C 112.416,346.278 113.082,346.778 113.5,347.5C 113.167,347.5 112.833,347.5 112.5,347.5C 110.11,348.891 108.443,350.891 107.5,353.5C 107.167,353.5 106.833,353.5 106.5,353.5C 106.158,352.662 105.492,352.328 104.5,352.5C 107.465,347.211 111.132,342.544 115.5,338.5 Z"/></g>
<g><path style="opacity:1" fill="#ebebeb" d="M 112.5,347.5 C 112.5,349.833 112.5,352.167 112.5,354.5C 110.585,354.784 108.919,354.451 107.5,353.5C 108.443,350.891 110.11,348.891 112.5,347.5 Z"/></g>
<g><path style="opacity:1" fill="#b5b5b5" d="M 115.5,338.5 C 116.568,337.566 117.901,337.232 119.5,337.5C 119.5,346.833 119.5,356.167 119.5,365.5C 118.517,361.702 118.183,357.702 118.5,353.5C 118.5,348.5 118.5,343.5 118.5,338.5C 117.5,338.5 116.5,338.5 115.5,338.5 Z"/></g>
<g><path style="opacity:1" fill="#5c5c5c" d="M 146.5,349.5 C 144.143,349.337 141.81,349.503 139.5,350C 141.058,350.21 142.391,350.71 143.5,351.5C 141.833,351.5 140.167,351.5 138.5,351.5C 137.065,350.904 135.398,350.904 133.5,351.5C 137.508,348.5 141.841,347.834 146.5,349.5 Z"/></g>
<g><path style="opacity:1" fill="#171717" d="M 152.5,349.5 C 152.833,349.5 153.167,349.5 153.5,349.5C 156.572,349.183 159.572,349.516 162.5,350.5C 159.662,351.512 158.329,353.512 158.5,356.5C 157.883,356.611 157.383,356.944 157,357.5C 156.505,359.473 156.338,361.473 156.5,363.5C 155.167,364.167 155.167,364.833 156.5,365.5C 155.486,366.765 153.986,367.431 152,367.5C 150.5,367.333 149,367.167 147.5,367C 148.737,366.768 149.737,366.268 150.5,365.5C 152.154,360.874 153.821,356.207 155.5,351.5C 153.821,351.715 152.821,351.048 152.5,349.5 Z"/></g>
<g><path style="opacity:1" fill="#161616" d="M 167.5,349.5 C 170.898,349.18 174.232,349.513 177.5,350.5C 176.051,351.172 174.718,351.839 173.5,352.5C 171.903,354.848 170.903,357.514 170.5,360.5C 170.5,360.833 170.5,361.167 170.5,361.5C 167.934,363.288 167.934,365.121 170.5,367C 167.5,367.667 164.5,367.667 161.5,367C 162.737,366.768 163.737,366.268 164.5,365.5C 164.629,363.784 164.962,362.117 165.5,360.5C 166.945,358.429 167.945,356.096 168.5,353.5C 168.167,352.167 167.833,350.833 167.5,349.5 Z"/></g>
<g><path style="opacity:1" fill="#1a1a1a" d="M 217.5,352.5 C 213.364,350.935 211.364,352.602 211.5,357.5C 211.5,358.167 211.5,358.833 211.5,359.5C 209.859,360.871 208.859,362.704 208.5,365C 208.905,365.945 209.572,366.612 210.5,367C 205.706,368.007 203.706,367.84 204.5,366.5C 204.433,365.041 204.766,363.708 205.5,362.5C 205.4,359.892 206.067,357.558 207.5,355.5C 208.434,354.432 208.768,353.099 208.5,351.5C 206.071,351.585 204.071,352.585 202.5,354.5C 201.708,353.3 201.708,351.967 202.5,350.5C 208.645,349.51 214.978,349.177 221.5,349.5C 221.167,351.5 220.833,353.5 220.5,355.5C 219.5,355.5 218.5,355.5 217.5,355.5C 217.5,354.5 217.5,353.5 217.5,352.5 Z"/></g>
<g><path style="opacity:1" fill="#b0b0b0" d="M 247.5,349.5 C 251.653,348.834 255.987,348.501 260.5,348.5C 265.417,348.56 270.083,349.227 274.5,350.5C 274.322,351.695 273.989,352.862 273.5,354C 274.176,355.683 275.176,355.85 276.5,354.5C 275.817,356.176 274.483,356.843 272.5,356.5C 272.784,354.585 272.451,352.919 271.5,351.5C 270.306,350.223 268.64,349.556 266.5,349.5C 264.36,349.556 262.694,350.223 261.5,351.5C 259.833,351.5 258.167,351.5 256.5,351.5C 256.611,350.883 256.944,350.383 257.5,350C 254.183,349.502 250.85,349.335 247.5,349.5 Z"/></g>
<g><path style="opacity:1" fill="#1b1b1b" d="M 247.5,349.5 C 250.85,349.335 254.183,349.502 257.5,350C 256.944,350.383 256.611,350.883 256.5,351.5C 255.508,351.328 254.842,351.662 254.5,352.5C 253.069,353.78 252.402,355.447 252.5,357.5C 255.713,357.81 258.713,357.477 261.5,356.5C 262.494,354.666 262.494,352.999 261.5,351.5C 262.694,350.223 264.36,349.556 266.5,349.5C 268.64,349.556 270.306,350.223 271.5,351.5C 270.167,351.5 268.833,351.5 267.5,351.5C 266.833,353.833 266.167,356.167 265.5,358.5C 263.914,360.081 262.914,362.081 262.5,364.5C 262.624,365.107 262.957,365.44 263.5,365.5C 264.091,366.151 264.757,366.818 265.5,367.5C 261.833,368.833 258.167,368.833 254.5,367.5C 256.079,366.333 257.412,365 258.5,363.5C 260.104,362.713 260.771,361.38 260.5,359.5C 257.167,359.5 253.833,359.5 250.5,359.5C 250.371,361.216 250.038,362.883 249.5,364.5C 249.5,364.833 249.5,365.167 249.5,365.5C 249.611,366.117 249.944,366.617 250.5,367C 247.833,367.667 245.167,367.667 242.5,367C 243.737,366.768 244.737,366.268 245.5,365.5C 246.579,361.253 247.913,357.087 249.5,353C 248.571,351.923 247.904,350.756 247.5,349.5 Z"/></g>
<g><path style="opacity:1" fill="#171717" d="M 286.5,352.5 C 284.267,355.39 282.934,358.723 282.5,362.5C 280.226,364.145 280.226,365.645 282.5,367C 279.5,367.667 276.5,367.667 273.5,367C 274.737,366.768 275.737,366.268 276.5,365.5C 277.546,361.739 278.879,358.073 280.5,354.5C 281.434,353.432 281.768,352.099 281.5,350.5C 283.781,350.077 285.448,350.744 286.5,352.5 Z"/></g>
<g><path style="opacity:1" fill="#ececec" d="M 148.5,349.5 C 149.833,349.5 151.167,349.5 152.5,349.5C 152.821,351.048 153.821,351.715 155.5,351.5C 153.821,356.207 152.154,360.874 150.5,365.5C 149.167,365.5 147.833,365.5 146.5,365.5C 146.5,366.5 146.5,367.5 146.5,368.5C 145.167,368.167 143.833,367.833 142.5,367.5C 143.85,366.176 143.683,365.176 142,364.5C 139.23,365.348 136.397,365.681 133.5,365.5C 131.203,359.426 132.87,354.759 138.5,351.5C 140.167,351.5 141.833,351.5 143.5,351.5C 146.08,356.725 147.747,356.058 148.5,349.5 Z"/></g>
<g><path style="opacity:1" fill="#cacaca" d="M 153.5,349.5 C 156.64,348.359 159.973,348.192 163.5,349C 164.126,349.75 164.626,350.584 165,351.5C 165.417,350.244 166.25,349.577 167.5,349.5C 167.833,350.833 168.167,352.167 168.5,353.5C 164.799,355.441 161.299,357.774 158,360.5C 157.805,359.181 157.972,357.847 158.5,356.5C 158.329,353.512 159.662,351.512 162.5,350.5C 159.572,349.516 156.572,349.183 153.5,349.5 Z"/></g>
<g><path style="opacity:1" fill="#7e7e7e" d="M 217.5,352.5 C 216.448,352.351 215.448,352.517 214.5,353C 213.947,354.878 212.947,356.378 211.5,357.5C 211.364,352.602 213.364,350.935 217.5,352.5 Z"/></g>
<g><path style="opacity:1" fill="#939393" d="M 239.5,349.5 C 241.722,349.559 242.722,350.725 242.5,353C 242.475,354.876 241.809,356.376 240.5,357.5C 240.721,354.721 240.388,352.054 239.5,349.5 Z"/></g>
<g><path style="opacity:1" fill="#ededed" d="M 256.5,351.5 C 258.167,351.5 259.833,351.5 261.5,351.5C 262.494,352.999 262.494,354.666 261.5,356.5C 259.167,356.5 256.833,356.5 254.5,356.5C 254.5,355.167 254.5,353.833 254.5,352.5C 254.842,351.662 255.508,351.328 256.5,351.5 Z"/></g>
<g><path style="opacity:1" fill="#141414" d="M 138.5,351.5 C 132.87,354.759 131.203,359.426 133.5,365.5C 135.292,366.309 137.292,366.809 139.5,367C 135.779,367.678 132.112,367.511 128.5,366.5C 128.323,362.766 128.656,359.099 129.5,355.5C 130.527,353.806 131.861,352.473 133.5,351.5C 135.398,350.904 137.065,350.904 138.5,351.5 Z"/></g>
<g><path style="opacity:1" fill="#878787" d="M 112.5,347.5 C 112.833,347.5 113.167,347.5 113.5,347.5C 113.5,350.167 113.5,352.833 113.5,355.5C 110.753,355.813 108.086,355.48 105.5,354.5C 105.624,353.893 105.957,353.56 106.5,353.5C 106.833,353.5 107.167,353.5 107.5,353.5C 108.919,354.451 110.585,354.784 112.5,354.5C 112.5,352.167 112.5,349.833 112.5,347.5 Z"/></g>
<g><path style="opacity:1" fill="#929292" d="M 202.5,350.5 C 201.708,351.967 201.708,353.3 202.5,354.5C 204.071,352.585 206.071,351.585 208.5,351.5C 208.768,353.099 208.434,354.432 207.5,355.5C 207.557,351.867 206.557,351.7 204.5,355C 203.207,355.49 201.873,355.657 200.5,355.5C 200.12,353.302 200.787,351.635 202.5,350.5 Z"/></g>
<g><path style="opacity:1" fill="#1d1d1d" d="M 239.5,349.5 C 240.388,352.054 240.721,354.721 240.5,357.5C 240.5,358.167 240.167,358.5 239.5,358.5C 234.833,358.5 230.167,358.5 225.5,358.5C 225.201,360.604 225.534,362.604 226.5,364.5C 227.417,365.127 228.417,365.461 229.5,365.5C 232.244,364.795 234.911,364.795 237.5,365.5C 233.277,368.361 228.611,369.195 223.5,368C 220.063,364.682 219.563,360.849 222,356.5C 224.167,354.333 226.333,352.167 228.5,350C 232.28,348.515 235.946,348.348 239.5,349.5 Z"/></g>
<g><path style="opacity:1" fill="#f0f0f0" d="M 232.5,352.5 C 233.5,352.5 234.5,352.5 235.5,352.5C 235.5,353.5 235.5,354.5 235.5,355.5C 232.918,355.975 230.918,355.308 229.5,353.5C 230.391,352.89 231.391,352.557 232.5,352.5 Z"/></g>
<g><path style="opacity:1" fill="#949494" d="M 173.5,352.5 C 173.693,355.811 172.693,358.478 170.5,360.5C 170.903,357.514 171.903,354.848 173.5,352.5 Z"/></g>
<g><path style="opacity:1" fill="#212121" d="M 188.5,348.5 C 191.579,348.26 194.579,348.593 197.5,349.5C 199.143,352.881 198.143,354.881 194.5,355.5C 194.5,354.167 194.5,352.833 194.5,351.5C 187.609,350.731 183.609,353.731 182.5,360.5C 182.39,362.374 183.056,363.874 184.5,365C 187.531,365.495 190.531,365.329 193.5,364.5C 193.5,365.5 193.5,366.5 193.5,367.5C 188.822,368.569 184.156,368.569 179.5,367.5C 177.279,364.057 176.946,360.39 178.5,356.5C 181.447,353.163 184.781,350.496 188.5,348.5 Z"/></g>
<g><path style="opacity:1" fill="#ababab" d="M 232.5,352.5 C 233.568,351.566 234.901,351.232 236.5,351.5C 236.5,353.167 236.5,354.833 236.5,356.5C 233.428,356.817 230.428,356.484 227.5,355.5C 227.855,354.478 228.522,353.811 229.5,353.5C 230.918,355.308 232.918,355.975 235.5,355.5C 235.5,354.5 235.5,353.5 235.5,352.5C 234.5,352.5 233.5,352.5 232.5,352.5 Z"/></g>
<g><path style="opacity:1" fill="#676767" d="M 254.5,352.5 C 254.5,353.833 254.5,355.167 254.5,356.5C 256.833,356.5 259.167,356.5 261.5,356.5C 258.713,357.477 255.713,357.81 252.5,357.5C 252.402,355.447 253.069,353.78 254.5,352.5 Z"/></g>
<g><path style="opacity:1" fill="#2e2e2e" d="M 104.5,352.5 C 104.107,354.284 103.441,355.95 102.5,357.5C 102.443,358.609 102.11,359.609 101.5,360.5C 100.067,361.833 98.7332,363.333 97.5,365C 98.9733,365.71 99.6399,366.876 99.5,368.5C 95.8333,368.5 92.1667,368.5 88.5,368.5C 88.5,367.5 88.5,366.5 88.5,365.5C 90.1992,365.66 91.8659,365.494 93.5,365C 97.0566,360.708 100.723,356.541 104.5,352.5 Z"/></g>
<g><path style="opacity:1" fill="#8a8a8a" d="M 239.5,358.5 C 235.366,359.485 231.032,359.818 226.5,359.5C 226.455,362.077 227.455,364.077 229.5,365.5C 228.417,365.461 227.417,365.127 226.5,364.5C 225.534,362.604 225.201,360.604 225.5,358.5C 230.167,358.5 234.833,358.5 239.5,358.5 Z"/></g>
<g><path style="opacity:1" fill="#969696" d="M 102.5,357.5 C 106.167,357.5 109.833,357.5 113.5,357.5C 113.806,360.385 113.473,363.052 112.5,365.5C 112.5,363.167 112.5,360.833 112.5,358.5C 108.587,358.187 104.921,358.853 101.5,360.5C 102.11,359.609 102.443,358.609 102.5,357.5 Z"/></g>
<g><path style="opacity:1" fill="#565656" d="M 168.5,353.5 C 167.945,356.096 166.945,358.429 165.5,360.5C 165.631,359.624 165.298,358.957 164.5,358.5C 161.805,360.178 159.139,361.844 156.5,363.5C 156.338,361.473 156.505,359.473 157,357.5C 157.383,356.944 157.883,356.611 158.5,356.5C 157.972,357.847 157.805,359.181 158,360.5C 161.299,357.774 164.799,355.441 168.5,353.5 Z"/></g>
<g><path style="opacity:1" fill="#a0a0a0" d="M 258.5,363.5 C 258.414,362.504 258.748,361.671 259.5,361C 256.854,360.503 254.187,360.336 251.5,360.5C 251.771,362.38 251.104,363.713 249.5,364.5C 250.038,362.883 250.371,361.216 250.5,359.5C 253.833,359.5 257.167,359.5 260.5,359.5C 260.771,361.38 260.104,362.713 258.5,363.5 Z"/></g>
<g><path style="opacity:1" fill="#555555" d="M 129.5,355.5 C 128.656,359.099 128.323,362.766 128.5,366.5C 125.809,362.603 126.142,358.937 129.5,355.5 Z"/></g>
<g><path style="opacity:1" fill="#666666" d="M 265.5,358.5 C 264.985,360.894 264.319,363.228 263.5,365.5C 262.957,365.44 262.624,365.107 262.5,364.5C 262.914,362.081 263.914,360.081 265.5,358.5 Z"/></g>
<g><path style="opacity:1" fill="#434343" d="M 142.5,367.5 C 138.22,368.54 133.887,368.706 129.5,368C 128.944,367.617 128.611,367.117 128.5,366.5C 132.112,367.511 135.779,367.678 139.5,367C 137.292,366.809 135.292,366.309 133.5,365.5C 136.397,365.681 139.23,365.348 142,364.5C 143.683,365.176 143.85,366.176 142.5,367.5 Z"/></g>
<g><path style="opacity:1" fill="#4c4c4c" d="M 112.5,365.5 C 112.082,366.222 111.416,366.722 110.5,367C 114.167,367.667 117.833,367.667 121.5,367C 120.584,366.722 119.918,366.222 119.5,365.5C 120.5,365.5 121.5,365.5 122.5,365.5C 122.5,366.5 122.5,367.5 122.5,368.5C 117.786,368.827 113.12,368.493 108.5,367.5C 109.32,365.889 110.654,365.222 112.5,365.5 Z"/></g>
<g><path style="opacity:1" fill="#4e4e4e" d="M 150.5,365.5 C 149.737,366.268 148.737,366.768 147.5,367C 149,367.167 150.5,367.333 152,367.5C 153.986,367.431 155.486,366.765 156.5,365.5C 157.404,366.209 157.737,367.209 157.5,368.5C 153.833,368.5 150.167,368.5 146.5,368.5C 146.5,367.5 146.5,366.5 146.5,365.5C 147.833,365.5 149.167,365.5 150.5,365.5 Z"/></g>
<g><path style="opacity:1" fill="#4d4d4d" d="M 170.5,361.5 C 170.461,362.583 170.127,363.583 169.5,364.5C 170.853,365.524 171.52,366.857 171.5,368.5C 167.833,368.5 164.167,368.5 160.5,368.5C 160.5,367.5 160.5,366.5 160.5,365.5C 161.833,365.5 163.167,365.5 164.5,365.5C 163.737,366.268 162.737,366.768 161.5,367C 164.5,367.667 167.5,367.667 170.5,367C 167.934,365.121 167.934,363.288 170.5,361.5 Z"/></g>
<g><path style="opacity:1" fill="#5c5c5c" d="M 211.5,359.5 C 210.322,362.477 210.322,365.477 211.5,368.5C 207.5,368.5 203.5,368.5 199.5,368.5C 199.5,367.5 199.5,366.5 199.5,365.5C 200.833,365.5 202.167,365.5 203.5,365.5C 203.285,363.821 203.952,362.821 205.5,362.5C 204.766,363.708 204.433,365.041 204.5,366.5C 203.706,367.84 205.706,368.007 210.5,367C 209.572,366.612 208.905,365.945 208.5,365C 208.859,362.704 209.859,360.871 211.5,359.5 Z"/></g>
<g><path style="opacity:1" fill="#4f4f4f" d="M 245.5,365.5 C 244.737,366.268 243.737,366.768 242.5,367C 245.167,367.667 247.833,367.667 250.5,367C 249.944,366.617 249.611,366.117 249.5,365.5C 250.5,365.5 251.5,365.5 252.5,365.5C 252.5,366.5 252.5,367.5 252.5,368.5C 248.5,368.5 244.5,368.5 240.5,368.5C 240.5,367.5 240.5,366.5 240.5,365.5C 242.167,365.5 243.833,365.5 245.5,365.5 Z"/></g>
<g><path style="opacity:1" fill="#545454" d="M 282.5,362.5 C 283.167,364.5 283.833,366.5 284.5,368.5C 280.116,368.826 275.783,368.492 271.5,367.5C 272.668,365.783 274.335,365.116 276.5,365.5C 275.737,366.268 274.737,366.768 273.5,367C 276.5,367.667 279.5,367.667 282.5,367C 280.226,365.645 280.226,364.145 282.5,362.5 Z"/></g>
<g><path style="opacity:0.996" fill="#564b2e" d="M 368.5,376.5 C 363.343,375.861 358.177,375.195 353,374.5C 351.594,375.414 350.094,376.08 348.5,376.5C 348.953,375.542 349.619,374.708 350.5,374C 356.158,373.968 361.825,374.301 367.5,375C 368.056,375.383 368.389,375.883 368.5,376.5 Z"/></g>
<g><path style="opacity:1" fill="#5c452b" d="M 61.5,377.5 C 54.6756,378.821 47.6756,379.821 40.5,380.5C 39.5084,380.672 38.8417,380.338 38.5,379.5C 46.0943,378.241 53.7609,377.574 61.5,377.5 Z"/></g>
<g><path style="opacity:0.998" fill="#87241c" d="M 61.5,377.5 C 67.2699,377.595 70.6032,380.595 71.5,386.5C 71.0974,392.903 67.7641,396.236 61.5,396.5C 54.3938,391.161 47.3938,385.828 40.5,380.5C 47.6756,379.821 54.6756,378.821 61.5,377.5 Z"/></g>
<g><path style="opacity:0.996" fill="#524d2f" d="M 384.5,378.5 C 390.523,378.502 396.523,378.835 402.5,379.5C 401.378,380.156 400.045,380.489 398.5,380.5C 393.651,380.088 388.985,379.421 384.5,378.5 Z"/></g>
<g><path style="opacity:1" fill="#87c2a7" d="M 84.5,382.5 C 85.1471,383.274 85.4805,384.274 85.5,385.5C 85.6598,387.355 84.9931,388.688 83.5,389.5C 84.2186,387.236 84.552,384.903 84.5,382.5 Z"/></g>
<g><path style="opacity:0.933" fill="#61432b" d="M 378.5,390.5 C 376.05,390.298 373.717,390.631 371.5,391.5C 372.152,390.275 373.319,389.608 375,389.5C 376.385,389.514 377.551,389.848 378.5,390.5 Z"/></g>
<g><path style="opacity:1" fill="#65af8b" d="M 279.5,385.5 C 277.242,388.905 275.576,392.571 274.5,396.5C 274.736,393.086 275.402,389.753 276.5,386.5C 277.417,385.873 278.417,385.539 279.5,385.5 Z"/></g>
<g><path style="opacity:0.618" fill="#4c5433" d="M 400.5,393.5 C 406.172,393.867 411.839,394.367 417.5,395C 418.056,395.383 418.389,395.883 418.5,396.5C 416.833,396.5 415.167,396.5 413.5,396.5C 409.119,396.628 404.785,396.295 400.5,395.5C 400.5,394.833 400.5,394.167 400.5,393.5 Z"/></g>
<g><path style="opacity:0.071" fill="#2f683b" d="M 378.5,390.5 C 385.767,391.681 393.1,392.681 400.5,393.5C 400.5,394.167 400.5,394.833 400.5,395.5C 392.65,395.218 384.983,394.218 377.5,392.5C 375.833,392.833 374.167,393.167 372.5,393.5C 368.224,397.969 363.557,401.969 358.5,405.5C 359.759,404.021 360.759,402.354 361.5,400.5C 364.509,397.158 367.843,394.158 371.5,391.5C 373.717,390.631 376.05,390.298 378.5,390.5 Z"/></g>
<g><path style="opacity:1" fill="#64ae8a" d="M 274.5,396.5 C 273.716,401.234 272.382,405.567 270.5,409.5C 271.218,406.03 271.884,402.53 272.5,399C 272.684,397.624 273.351,396.791 274.5,396.5 Z"/></g>
<g><path style="opacity:0.506" fill="#485633" d="M 361.5,400.5 C 360.759,402.354 359.759,404.021 358.5,405.5C 352.148,411.841 345.148,417.508 337.5,422.5C 336.004,424.973 335.004,427.64 334.5,430.5C 332.744,431.552 332.077,433.219 332.5,435.5C 332.5,435.833 332.5,436.167 332.5,436.5C 331.833,436.5 331.167,436.5 330.5,436.5C 330.942,431.337 332.109,426.337 334,421.5C 343.466,414.855 352.633,407.855 361.5,400.5 Z"/></g>
<g><path style="opacity:1" fill="#4aa178" d="M 192.5,428.5 C 190.787,427.365 190.12,425.698 190.5,423.5C 181.318,423.827 172.318,423.493 163.5,422.5C 172.844,422.401 182.177,422.068 191.5,421.5C 191.993,423.806 192.326,426.139 192.5,428.5 Z"/></g>
<g><path style="opacity:1" fill="#82bfa2" d="M 67.5,424.5 C 67.2451,426.967 66.2451,428.967 64.5,430.5C 64.7549,428.033 65.7549,426.033 67.5,424.5 Z"/></g>
<g><path style="opacity:0.996" fill="#65412a" d="M 307.5,425.5 C 307.663,427.857 307.497,430.19 307,432.5C 306.617,433.056 306.117,433.389 305.5,433.5C 305.963,430.67 306.629,428.003 307.5,425.5 Z"/></g>
<g><path style="opacity:0.082" fill="#0f7943" d="M 334.5,430.5 C 334.88,432.698 334.213,434.365 332.5,435.5C 332.077,433.219 332.744,431.552 334.5,430.5 Z"/></g>
<g><path style="opacity:0.996" fill="#96231e" d="M 192.5,466.5 C 192.719,467.675 192.386,468.675 191.5,469.5C 188.146,472.188 185.146,475.188 182.5,478.5C 177.935,482.277 173.602,486.277 169.5,490.5C 163.526,496.139 157.526,501.805 151.5,507.5C 149.738,507.643 148.071,507.309 146.5,506.5C 140.137,501.986 133.47,497.986 126.5,494.5C 126.389,493.883 126.056,493.383 125.5,493C 128.601,493.042 130.934,491.875 132.5,489.5C 147.666,474.168 163.333,459.334 179.5,445C 181.167,444.333 182.833,444.333 184.5,445C 188.445,451.559 191.112,458.726 192.5,466.5 Z"/></g>
<g><path style="opacity:0.302" fill="#33673b" d="M 330.5,436.5 C 331.167,436.5 331.833,436.5 332.5,436.5C 330.829,443.057 329.329,449.724 328,456.5C 327.617,457.056 327.117,457.389 326.5,457.5C 326.342,454.098 326.676,450.764 327.5,447.5C 328.143,443.729 329.143,440.062 330.5,436.5 Z"/></g>
<g><path style="opacity:0.996" fill="#62442b" d="M 301.5,447.5 C 301.932,450.877 301.265,453.877 299.5,456.5C 299.676,453.273 300.343,450.273 301.5,447.5 Z"/></g>
<g><path style="opacity:0.965" fill="#5e462c" d="M 327.5,447.5 C 326.676,450.764 326.342,454.098 326.5,457.5C 326.5,457.833 326.5,458.167 326.5,458.5C 325.833,458.833 325.167,459.167 324.5,459.5C 324.781,455.812 325.281,452.145 326,448.5C 326.383,447.944 326.883,447.611 327.5,447.5 Z"/></g>
<g><path style="opacity:0.663" fill="#4c5131" d="M 192.5,466.5 C 193.461,468.265 193.795,470.265 193.5,472.5C 190.238,473.769 187.571,475.769 185.5,478.5C 184.5,478.5 183.5,478.5 182.5,478.5C 185.146,475.188 188.146,472.188 191.5,469.5C 192.386,468.675 192.719,467.675 192.5,466.5 Z"/></g>
<g><path style="opacity:0.788" fill="#3f5e37" d="M 326.5,458.5 C 324.535,467.141 322.368,475.808 320,484.5C 316.447,486.874 312.613,488.541 308.5,489.5C 309.551,488.778 310.218,487.778 310.5,486.5C 312.806,485.188 315.139,483.855 317.5,482.5C 319.725,474.624 322.058,466.957 324.5,459.5C 325.167,459.167 325.833,458.833 326.5,458.5 Z"/></g>
<g><path style="opacity:0.984" fill="#823023" d="M 113.5,483.5 C 117.965,486.816 122.798,489.483 128,491.5C 129.607,490.926 131.107,490.26 132.5,489.5C 130.934,491.875 128.601,493.042 125.5,493C 126.056,493.383 126.389,493.883 126.5,494.5C 120.758,491.007 114.758,488.007 108.5,485.5C 108.5,484.5 108.5,483.5 108.5,482.5C 110.216,482.629 111.883,482.962 113.5,483.5 Z"/></g>
<g><path style="opacity:0.145" fill="#286d3e" d="M 182.5,478.5 C 183.5,478.5 184.5,478.5 185.5,478.5C 180.506,483.973 175.173,488.973 169.5,493.5C 169.5,492.5 169.5,491.5 169.5,490.5C 173.602,486.277 177.935,482.277 182.5,478.5 Z"/></g>
<g><path style="opacity:0.322" fill="#5a472d" d="M 310.5,486.5 C 310.218,487.778 309.551,488.778 308.5,489.5C 307.292,490.234 305.959,490.567 304.5,490.5C 303.833,490.5 303.167,490.5 302.5,490.5C 302.47,489.503 302.97,488.836 304,488.5C 306.225,487.904 308.392,487.237 310.5,486.5 Z"/></g>
<g><path style="opacity:0.996" fill="#862b21" d="M 255.5,484.5 C 252.013,485.388 250.68,487.721 251.5,491.5C 255.146,493.078 258.646,495.078 262,497.5C 262.167,498.167 262.333,498.833 262.5,499.5C 260.624,501.048 259.624,503.048 259.5,505.5C 261.565,505.483 263.565,505.15 265.5,504.5C 263.751,505.985 261.751,506.985 259.5,507.5C 258.448,507.649 257.448,507.483 256.5,507C 249.476,502.487 242.809,497.487 236.5,492C 242.677,488.999 249.011,486.499 255.5,484.5 Z"/></g>
<g><path style="opacity:0.212" fill="#2e663b" d="M 302.5,490.5 C 303.167,490.5 303.833,490.5 304.5,490.5C 302.182,492.956 299.182,494.289 295.5,494.5C 296.694,493.728 297.694,492.728 298.5,491.5C 299.708,490.766 301.041,490.433 302.5,490.5 Z"/></g>
<g><path style="opacity:0.055" fill="#435b36" d="M 298.5,491.5 C 297.694,492.728 296.694,493.728 295.5,494.5C 284.814,499.607 273.814,504.274 262.5,508.5C 261.791,507.596 260.791,507.263 259.5,507.5C 261.751,506.985 263.751,505.985 265.5,504.5C 276.736,500.666 287.736,496.333 298.5,491.5 Z"/></g>
<g><path style="opacity:0.306" fill="#504d30" d="M 169.5,490.5 C 169.5,491.5 169.5,492.5 169.5,493.5C 165.391,498.948 160.391,503.281 154.5,506.5C 153.609,507.11 152.609,507.443 151.5,507.5C 157.526,501.805 163.526,496.139 169.5,490.5 Z"/></g>
<g><path style="opacity:0.212" fill="#3c5d37" d="M 113.5,483.5 C 111.883,482.962 110.216,482.629 108.5,482.5C 108.5,483.5 108.5,484.5 108.5,485.5C 114.758,488.007 120.758,491.007 126.5,494.5C 133.47,497.986 140.137,501.986 146.5,506.5C 148.071,507.309 149.738,507.643 151.5,507.5C 152.609,507.443 153.609,507.11 154.5,506.5C 153.327,509.754 150.994,510.92 147.5,510C 133.829,501.831 120.162,493.665 106.5,485.5C 106.5,484.167 106.5,482.833 106.5,481.5C 108.527,481.338 110.527,481.505 112.5,482C 113.056,482.383 113.389,482.883 113.5,483.5 Z"/></g>
</svg>
