<svg xmlns="http://www.w3.org/2000/svg" xmlns:xlink="http://www.w3.org/1999/xlink" width="300" zoomAndPan="magnify" viewBox="0 0 224.87999 225" height="300" preserveAspectRatio="xMidYMid meet" version="1.0"><defs><clipPath id="e7cb2c603a"><path d="M 0 0.0585938 L 224.761719 0.0585938 L 224.761719 224.9375 L 0 224.9375 Z M 0 0.0585938 " clip-rule="nonzero"/></clipPath></defs><g clip-path="url(#e7cb2c603a)"><path fill="#ffffff" d="M 0 0.0585938 L 224.878906 0.0585938 L 224.878906 224.941406 L 0 224.941406 Z M 0 0.0585938 " fill-opacity="1" fill-rule="nonzero"/><path fill="#ffffff" d="M 0 0.0585938 L 224.878906 0.0585938 L 224.878906 224.941406 L 0 224.941406 Z M 0 0.0585938 " fill-opacity="1" fill-rule="nonzero"/><path fill="#003333" d="M 224.878906 112.5 C 224.878906 114.339844 224.835938 116.179688 224.746094 118.015625 C 224.652344 119.855469 224.519531 121.691406 224.339844 123.519531 C 224.15625 125.351562 223.933594 127.179688 223.664062 129 C 223.394531 130.820312 223.078125 132.632812 222.71875 134.4375 C 222.359375 136.242188 221.957031 138.035156 221.511719 139.820312 C 221.0625 141.605469 220.574219 143.378906 220.039062 145.140625 C 219.503906 146.902344 218.925781 148.648438 218.308594 150.378906 C 217.6875 152.113281 217.023438 153.828125 216.320312 155.527344 C 215.617188 157.230469 214.871094 158.910156 214.085938 160.574219 C 213.296875 162.238281 212.46875 163.882812 211.601562 165.503906 C 210.734375 167.125 209.828125 168.726562 208.882812 170.304688 C 207.9375 171.882812 206.953125 173.4375 205.929688 174.96875 C 204.90625 176.5 203.847656 178.003906 202.753906 179.480469 C 201.65625 180.957031 200.523438 182.410156 199.355469 183.832031 C 198.191406 185.253906 196.988281 186.648438 195.753906 188.011719 C 194.515625 189.375 193.25 190.707031 191.945312 192.007812 C 190.644531 193.308594 189.3125 194.578125 187.949219 195.8125 C 186.585938 197.046875 185.195312 198.25 183.769531 199.417969 C 182.347656 200.585938 180.898438 201.714844 179.421875 202.8125 C 177.941406 203.910156 176.4375 204.96875 174.910156 205.992188 C 173.378906 207.011719 171.824219 207.996094 170.246094 208.941406 C 168.667969 209.890625 167.066406 210.796875 165.445312 211.664062 C 163.820312 212.53125 162.179688 213.359375 160.515625 214.144531 C 158.851562 214.929688 157.167969 215.675781 155.46875 216.382812 C 153.769531 217.085938 152.050781 217.746094 150.320312 218.367188 C 148.585938 218.988281 146.839844 219.5625 145.078125 220.097656 C 143.320312 220.632812 141.546875 221.125 139.761719 221.570312 C 137.976562 222.015625 136.179688 222.421875 134.375 222.78125 C 132.570312 223.136719 130.757812 223.453125 128.9375 223.722656 C 127.117188 223.992188 125.292969 224.21875 123.460938 224.398438 C 121.628906 224.578125 119.796875 224.714844 117.957031 224.804688 C 116.121094 224.894531 114.28125 224.941406 112.441406 224.941406 C 110.601562 224.941406 108.761719 224.894531 106.921875 224.804688 C 105.085938 224.714844 103.25 224.578125 101.417969 224.398438 C 99.585938 224.21875 97.761719 223.992188 95.941406 223.722656 C 94.121094 223.453125 92.308594 223.136719 90.503906 222.78125 C 88.699219 222.421875 86.90625 222.015625 85.121094 221.570312 C 83.335938 221.125 81.5625 220.632812 79.800781 220.097656 C 78.039062 219.5625 76.292969 218.988281 74.558594 218.367188 C 72.828125 217.746094 71.109375 217.085938 69.410156 216.382812 C 67.710938 215.675781 66.027344 214.929688 64.367188 214.144531 C 62.703125 213.359375 61.058594 212.53125 59.4375 211.664062 C 57.8125 210.796875 56.210938 209.890625 54.632812 208.941406 C 53.054688 207.996094 51.5 207.011719 49.972656 205.992188 C 48.441406 204.96875 46.9375 203.910156 45.460938 202.8125 C 43.980469 201.714844 42.53125 200.585938 41.109375 199.417969 C 39.6875 198.25 38.292969 197.046875 36.929688 195.8125 C 35.566406 194.578125 34.234375 193.308594 32.933594 192.007812 C 31.632812 190.707031 30.363281 189.375 29.128906 188.011719 C 27.890625 186.648438 26.691406 185.253906 25.523438 183.832031 C 24.355469 182.410156 23.222656 180.957031 22.128906 179.480469 C 21.03125 178.003906 19.972656 176.5 18.949219 174.96875 C 17.925781 173.4375 16.941406 171.882812 15.996094 170.304688 C 15.050781 168.726562 14.144531 167.125 13.277344 165.503906 C 12.410156 163.882812 11.582031 162.238281 10.796875 160.574219 C 10.007812 158.910156 9.261719 157.230469 8.558594 155.527344 C 7.855469 153.828125 7.191406 152.113281 6.574219 150.378906 C 5.953125 148.648438 5.375 146.902344 4.839844 145.140625 C 4.308594 143.378906 3.816406 141.605469 3.371094 139.820312 C 2.921875 138.035156 2.519531 136.242188 2.160156 134.4375 C 1.800781 132.632812 1.488281 130.820312 1.21875 129 C 0.945312 127.179688 0.722656 125.351562 0.542969 123.519531 C 0.359375 121.691406 0.226562 119.855469 0.136719 118.015625 C 0.046875 116.179688 0 114.339844 0 112.5 C 0 110.660156 0.046875 108.820312 0.136719 106.984375 C 0.226562 105.144531 0.359375 103.308594 0.542969 101.480469 C 0.722656 99.648438 0.945312 97.820312 1.21875 96 C 1.488281 94.179688 1.800781 92.367188 2.160156 90.5625 C 2.519531 88.757812 2.921875 86.964844 3.371094 85.179688 C 3.816406 83.394531 4.308594 81.621094 4.839844 79.859375 C 5.375 78.097656 5.953125 76.351562 6.574219 74.621094 C 7.191406 72.886719 7.855469 71.171875 8.558594 69.472656 C 9.261719 67.769531 10.007812 66.089844 10.796875 64.425781 C 11.582031 62.761719 12.410156 61.117188 13.277344 59.496094 C 14.144531 57.875 15.050781 56.273438 15.996094 54.695312 C 16.941406 53.117188 17.925781 51.5625 18.949219 50.03125 C 19.972656 48.5 21.03125 46.996094 22.128906 45.519531 C 23.222656 44.042969 24.355469 42.589844 25.523438 41.167969 C 26.691406 39.746094 27.890625 38.351562 29.128906 36.988281 C 30.363281 35.625 31.632812 34.292969 32.933594 32.992188 C 34.234375 31.691406 35.566406 30.421875 36.929688 29.1875 C 38.292969 27.953125 39.6875 26.75 41.109375 25.582031 C 42.53125 24.414062 43.980469 23.285156 45.460938 22.1875 C 46.9375 21.089844 48.441406 20.03125 49.972656 19.007812 C 51.5 17.988281 53.054688 17.003906 54.632812 16.058594 C 56.210938 15.109375 57.8125 14.203125 59.4375 13.335938 C 61.058594 12.46875 62.703125 11.640625 64.367188 10.855469 C 66.027344 10.070312 67.710938 9.324219 69.410156 8.617188 C 71.109375 7.914062 72.828125 7.253906 74.558594 6.632812 C 76.292969 6.011719 78.039062 5.4375 79.800781 4.902344 C 81.5625 4.367188 83.335938 3.875 85.121094 3.429688 C 86.90625 2.984375 88.699219 2.578125 90.503906 2.21875 C 92.308594 1.863281 94.121094 1.546875 95.941406 1.277344 C 97.761719 1.007812 99.585938 0.78125 101.417969 0.601562 C 103.25 0.421875 105.085938 0.285156 106.921875 0.195312 C 108.761719 0.105469 110.601562 0.0585938 112.441406 0.0585938 C 114.28125 0.0585938 116.121094 0.105469 117.957031 0.195312 C 119.796875 0.285156 121.628906 0.421875 123.460938 0.601562 C 125.292969 0.78125 127.117188 1.007812 128.9375 1.277344 C 130.757812 1.546875 132.570312 1.863281 134.375 2.21875 C 136.179688 2.578125 137.976562 2.984375 139.761719 3.429688 C 141.546875 3.875 143.320312 4.367188 145.078125 4.902344 C 146.839844 5.4375 148.585938 6.011719 150.320312 6.632812 C 152.050781 7.253906 153.769531 7.914062 155.46875 8.617188 C 157.167969 9.324219 158.851562 10.070312 160.515625 10.855469 C 162.179688 11.640625 163.820312 12.46875 165.445312 13.335938 C 167.066406 14.203125 168.667969 15.109375 170.246094 16.058594 C 171.824219 17.003906 173.378906 17.988281 174.910156 19.007812 C 176.4375 20.03125 177.941406 21.089844 179.421875 22.1875 C 180.898438 23.285156 182.347656 24.414062 183.769531 25.582031 C 185.195312 26.75 186.585938 27.953125 187.949219 29.1875 C 189.3125 30.421875 190.644531 31.691406 191.945312 32.992188 C 193.25 34.292969 194.515625 35.625 195.753906 36.988281 C 196.988281 38.351562 198.191406 39.746094 199.355469 41.167969 C 200.523438 42.589844 201.65625 44.042969 202.753906 45.519531 C 203.847656 46.996094 204.90625 48.5 205.929688 50.03125 C 206.953125 51.5625 207.9375 53.117188 208.882812 54.695312 C 209.828125 56.273438 210.734375 57.875 211.601562 59.496094 C 212.46875 61.117188 213.296875 62.761719 214.085938 64.425781 C 214.871094 66.089844 215.617188 67.769531 216.320312 69.472656 C 217.023438 71.171875 217.6875 72.886719 218.308594 74.621094 C 218.925781 76.351562 219.503906 78.097656 220.039062 79.859375 C 220.574219 81.621094 221.0625 83.394531 221.511719 85.179688 C 221.957031 86.964844 222.359375 88.757812 222.71875 90.5625 C 223.078125 92.367188 223.394531 94.179688 223.664062 96 C 223.933594 97.820312 224.15625 99.648438 224.339844 101.480469 C 224.519531 103.308594 224.652344 105.144531 224.746094 106.984375 C 224.835938 108.820312 224.878906 110.660156 224.878906 112.5 Z M 224.878906 112.5 " fill-opacity="1" fill-rule="nonzero"/></g><path fill="#ffffff" d="M 217.371094 112.5 C 217.371094 114.21875 217.332031 115.933594 217.246094 117.648438 C 217.160156 119.363281 217.035156 121.078125 216.867188 122.785156 C 216.699219 124.496094 216.488281 126.199219 216.238281 127.898438 C 215.984375 129.59375 215.691406 131.285156 215.355469 132.972656 C 215.019531 134.65625 214.644531 136.332031 214.226562 137.996094 C 213.8125 139.664062 213.351562 141.316406 212.855469 142.960938 C 212.355469 144.605469 211.816406 146.234375 211.238281 147.851562 C 210.660156 149.46875 210.042969 151.070312 209.386719 152.65625 C 208.726562 154.242188 208.03125 155.8125 207.296875 157.363281 C 206.5625 158.917969 205.792969 160.449219 204.980469 161.964844 C 204.171875 163.480469 203.328125 164.972656 202.445312 166.445312 C 201.5625 167.917969 200.640625 169.371094 199.6875 170.796875 C 198.734375 172.226562 197.746094 173.628906 196.722656 175.007812 C 195.699219 176.386719 194.644531 177.742188 193.554688 179.070312 C 192.464844 180.394531 191.34375 181.695312 190.191406 182.96875 C 189.035156 184.242188 187.851562 185.484375 186.636719 186.699219 C 185.425781 187.914062 184.179688 189.097656 182.910156 190.25 C 181.636719 191.402344 180.335938 192.523438 179.007812 193.613281 C 177.679688 194.703125 176.328125 195.757812 174.949219 196.78125 C 173.570312 197.804688 172.164062 198.792969 170.738281 199.75 C 169.308594 200.703125 167.859375 201.621094 166.386719 202.503906 C 164.914062 203.386719 163.417969 204.234375 161.90625 205.042969 C 160.390625 205.851562 158.855469 206.625 157.304688 207.359375 C 155.753906 208.09375 154.183594 208.789062 152.597656 209.445312 C 151.007812 210.101562 149.40625 210.71875 147.789062 211.296875 C 146.175781 211.878906 144.542969 212.414062 142.898438 212.914062 C 141.257812 213.414062 139.601562 213.871094 137.9375 214.289062 C 136.269531 214.707031 134.59375 215.082031 132.910156 215.417969 C 131.226562 215.75 129.535156 216.046875 127.835938 216.296875 C 126.136719 216.550781 124.433594 216.757812 122.726562 216.925781 C 121.015625 217.097656 119.304688 217.222656 117.589844 217.304688 C 115.875 217.390625 114.15625 217.433594 112.441406 217.433594 C 110.722656 217.433594 109.007812 217.390625 107.292969 217.304688 C 105.574219 217.222656 103.863281 217.097656 102.15625 216.925781 C 100.445312 216.757812 98.742188 216.550781 97.042969 216.296875 C 95.34375 216.046875 93.652344 215.75 91.96875 215.417969 C 90.285156 215.082031 88.609375 214.707031 86.945312 214.289062 C 85.277344 213.871094 83.621094 213.414062 81.980469 212.914062 C 80.335938 212.414062 78.707031 211.878906 77.089844 211.296875 C 75.472656 210.71875 73.871094 210.101562 72.285156 209.445312 C 70.699219 208.789062 69.128906 208.09375 67.574219 207.359375 C 66.023438 206.625 64.488281 205.851562 62.976562 205.042969 C 61.460938 204.234375 59.964844 203.386719 58.492188 202.503906 C 57.019531 201.621094 55.570312 200.703125 54.140625 199.75 C 52.714844 198.792969 51.3125 197.804688 49.929688 196.78125 C 48.550781 195.757812 47.199219 194.703125 45.871094 193.613281 C 44.542969 192.523438 43.242188 191.402344 41.972656 190.25 C 40.699219 189.097656 39.457031 187.914062 38.242188 186.699219 C 37.027344 185.484375 35.84375 184.242188 34.691406 182.96875 C 33.535156 181.695312 32.414062 180.394531 31.324219 179.070312 C 30.238281 177.742188 29.179688 176.386719 28.15625 175.007812 C 27.132812 173.628906 26.144531 172.226562 25.191406 170.796875 C 24.238281 169.371094 23.320312 167.917969 22.4375 166.445312 C 21.554688 164.972656 20.707031 163.480469 19.898438 161.964844 C 19.089844 160.449219 18.316406 158.917969 17.582031 157.363281 C 16.847656 155.8125 16.152344 154.242188 15.496094 152.65625 C 14.835938 151.070312 14.21875 149.46875 13.640625 147.851562 C 13.0625 146.234375 12.523438 144.605469 12.027344 142.960938 C 11.527344 141.316406 11.070312 139.664062 10.652344 137.996094 C 10.234375 136.332031 9.859375 134.65625 9.523438 132.972656 C 9.1875 131.285156 8.894531 129.59375 8.644531 127.898438 C 8.390625 126.199219 8.179688 124.496094 8.011719 122.785156 C 7.84375 121.078125 7.71875 119.363281 7.632812 117.648438 C 7.550781 115.933594 7.507812 114.21875 7.507812 112.5 C 7.507812 110.78125 7.550781 109.066406 7.632812 107.351562 C 7.71875 105.636719 7.84375 103.925781 8.011719 102.214844 C 8.179688 100.503906 8.390625 98.800781 8.644531 97.101562 C 8.894531 95.40625 9.1875 93.714844 9.523438 92.027344 C 9.859375 90.34375 10.234375 88.667969 10.652344 87.003906 C 11.070312 85.335938 11.527344 83.683594 12.027344 82.039062 C 12.523438 80.394531 13.0625 78.765625 13.640625 77.148438 C 14.21875 75.53125 14.835938 73.929688 15.496094 72.34375 C 16.152344 70.757812 16.847656 69.1875 17.582031 67.636719 C 18.316406 66.082031 19.089844 64.550781 19.898438 63.035156 C 20.707031 61.519531 21.554688 60.027344 22.4375 58.554688 C 23.320312 57.082031 24.238281 55.628906 25.191406 54.203125 C 26.144531 52.773438 27.132812 51.371094 28.15625 49.992188 C 29.179688 48.613281 30.238281 47.257812 31.324219 45.929688 C 32.414062 44.605469 33.535156 43.304688 34.691406 42.03125 C 35.84375 40.757812 37.027344 39.515625 38.242188 38.300781 C 39.457031 37.085938 40.699219 35.902344 41.972656 34.75 C 43.242188 33.597656 44.542969 32.476562 45.871094 31.386719 C 47.199219 30.296875 48.550781 29.238281 49.929688 28.21875 C 51.3125 27.195312 52.714844 26.207031 54.140625 25.25 C 55.570312 24.296875 57.019531 23.378906 58.492188 22.496094 C 59.964844 21.613281 61.460938 20.765625 62.976562 19.957031 C 64.488281 19.148438 66.023438 18.375 67.574219 17.640625 C 69.128906 16.90625 70.699219 16.210938 72.285156 15.554688 C 73.871094 14.898438 75.472656 14.28125 77.089844 13.703125 C 78.707031 13.121094 80.335938 12.585938 81.980469 12.085938 C 83.621094 11.585938 85.277344 11.128906 86.945312 10.710938 C 88.609375 10.292969 90.285156 9.917969 91.96875 9.582031 C 93.652344 9.25 95.34375 8.953125 97.042969 8.703125 C 98.742188 8.449219 100.445312 8.242188 102.15625 8.074219 C 103.863281 7.902344 105.574219 7.777344 107.292969 7.695312 C 109.007812 7.609375 110.722656 7.566406 112.441406 7.566406 C 114.15625 7.566406 115.875 7.609375 117.589844 7.695312 C 119.304688 7.777344 121.015625 7.902344 122.726562 8.074219 C 124.433594 8.242188 126.136719 8.449219 127.835938 8.703125 C 129.535156 8.953125 131.226562 9.25 132.910156 9.582031 C 134.59375 9.917969 136.269531 10.292969 137.9375 10.710938 C 139.601562 11.128906 141.257812 11.585938 142.898438 12.085938 C 144.542969 12.585938 146.175781 13.121094 147.789062 13.703125 C 149.40625 14.28125 151.007812 14.898438 152.597656 15.554688 C 154.183594 16.210938 155.753906 16.90625 157.304688 17.640625 C 158.855469 18.375 160.390625 19.148438 161.90625 19.957031 C 163.417969 20.765625 164.914062 21.613281 166.386719 22.496094 C 167.859375 23.378906 169.308594 24.296875 170.738281 25.25 C 172.164062 26.207031 173.570312 27.195312 174.949219 28.21875 C 176.328125 29.238281 177.679688 30.296875 179.007812 31.386719 C 180.335938 32.476562 181.636719 33.597656 182.910156 34.75 C 184.179688 35.902344 185.425781 37.085938 186.636719 38.300781 C 187.851562 39.515625 189.035156 40.757812 190.191406 42.03125 C 191.34375 43.304688 192.464844 44.605469 193.554688 45.929688 C 194.644531 47.257812 195.699219 48.613281 196.722656 49.992188 C 197.746094 51.371094 198.734375 52.773438 199.6875 54.203125 C 200.640625 55.628906 201.5625 57.082031 202.445312 58.554688 C 203.328125 60.027344 204.171875 61.519531 204.980469 63.035156 C 205.792969 64.550781 206.5625 66.082031 207.296875 67.636719 C 208.03125 69.1875 208.726562 70.757812 209.386719 72.34375 C 210.042969 73.929688 210.660156 75.53125 211.238281 77.148438 C 211.816406 78.765625 212.355469 80.394531 212.855469 82.039062 C 213.351562 83.683594 213.8125 85.335938 214.226562 87.003906 C 214.644531 88.667969 215.019531 90.34375 215.355469 92.027344 C 215.691406 93.714844 215.984375 95.40625 216.238281 97.101562 C 216.488281 98.800781 216.699219 100.503906 216.867188 102.214844 C 217.035156 103.925781 217.160156 105.636719 217.246094 107.351562 C 217.332031 109.066406 217.371094 110.78125 217.371094 112.5 Z M 217.371094 112.5 " fill-opacity="1" fill-rule="nonzero"/><path fill="#003333" d="M 170.136719 158.640625 L 54.828125 158.640625 C 53.5625 158.640625 52.550781 157.628906 52.550781 156.445312 L 52.550781 82.722656 C 52.550781 81.457031 53.5625 80.445312 54.828125 80.445312 L 91.941406 80.445312 C 93.207031 80.445312 94.21875 81.457031 94.21875 82.722656 C 94.21875 83.988281 93.207031 85 91.941406 85 L 57.105469 85 L 57.105469 154.167969 L 167.859375 154.167969 L 167.859375 85 L 133.023438 85 C 131.757812 85 130.746094 83.988281 130.746094 82.722656 C 130.746094 81.457031 131.757812 80.445312 133.023438 80.445312 L 170.136719 80.445312 C 171.316406 80.445312 172.328125 81.457031 172.328125 82.722656 L 172.328125 156.445312 C 172.328125 157.628906 171.316406 158.640625 170.136719 158.640625 Z M 170.136719 158.640625 " fill-opacity="1" fill-rule="evenodd"/><path fill="#003333" d="M 119.695312 174.582031 L 105.4375 174.582031 C 104.171875 174.582031 103.160156 173.570312 103.160156 172.304688 L 103.160156 156.445312 C 103.160156 155.183594 104.171875 154.167969 105.4375 154.167969 L 119.695312 154.167969 C 120.875 154.167969 121.886719 155.183594 121.886719 156.445312 L 121.886719 172.304688 C 121.886719 173.570312 120.875 174.582031 119.695312 174.582031 Z M 107.714844 170.113281 L 117.417969 170.113281 L 117.417969 158.640625 L 107.714844 158.640625 Z M 107.714844 170.113281 " fill-opacity="1" fill-rule="evenodd"/><path fill="#003333" d="M 138 184.535156 L 86.882812 184.535156 C 85.617188 184.535156 84.605469 183.523438 84.605469 182.257812 L 84.605469 172.472656 C 84.605469 171.207031 85.617188 170.195312 86.882812 170.195312 L 138 170.195312 C 139.261719 170.195312 140.277344 171.207031 140.277344 172.472656 L 140.277344 182.257812 C 140.277344 183.523438 139.261719 184.535156 138 184.535156 Z M 89.160156 179.980469 L 135.804688 179.980469 L 135.804688 174.667969 L 89.160156 174.667969 Z M 89.160156 179.980469 " fill-opacity="1" fill-rule="evenodd"/><path fill="#003333" d="M 170.136719 145.144531 L 54.828125 145.144531 C 53.5625 145.144531 52.550781 144.132812 52.550781 142.949219 C 52.550781 141.683594 53.5625 140.671875 54.828125 140.671875 L 170.136719 140.671875 C 171.316406 140.671875 172.328125 141.683594 172.328125 142.949219 C 172.328125 144.132812 171.316406 145.144531 170.136719 145.144531 Z M 170.136719 145.144531 " fill-opacity="1" fill-rule="evenodd"/><path fill="#3db36b" d="M 112.609375 124.816406 C 101.390625 124.816406 90.507812 120.429688 82.75 112.414062 C 81.90625 111.570312 81.90625 110.136719 82.832031 109.292969 C 83.675781 108.367188 85.109375 108.449219 85.953125 109.292969 C 95.148438 118.742188 109.066406 122.539062 122.308594 119.078125 C 142.214844 113.765625 154.109375 93.097656 148.796875 72.9375 C 148.796875 72.855469 148.796875 72.855469 148.796875 72.855469 C 148.625 72.601562 148.457031 72.097656 148.457031 71.503906 C 148.457031 70.238281 149.46875 69.226562 150.734375 69.226562 C 151.746094 69.226562 152.675781 69.988281 152.929688 71 C 153.011719 71.167969 153.179688 71.503906 153.179688 71.925781 C 159 94.449219 145.675781 117.5625 123.488281 123.464844 C 119.863281 124.394531 116.234375 124.816406 112.609375 124.816406 Z M 148.710938 72.347656 Z M 152.929688 71.503906 Z M 74.230469 96.21875 C 73.132812 96.21875 72.289062 95.460938 72.035156 94.535156 C 71.953125 94.28125 71.78125 93.941406 71.699219 93.605469 C 65.878906 71.082031 79.207031 47.972656 101.472656 42.066406 C 116.066406 38.019531 131.671875 42.234375 142.214844 53.03125 C 143.058594 53.960938 143.058594 55.394531 142.132812 56.238281 C 141.203125 57.082031 139.855469 57.082031 138.925781 56.152344 C 129.5625 46.539062 115.730469 42.824219 102.65625 46.367188 C 82.75 51.683594 70.855469 72.433594 76.085938 92.507812 C 76.085938 92.59375 76.085938 92.59375 76.167969 92.59375 C 76.253906 92.847656 76.507812 93.351562 76.507812 93.941406 C 76.507812 95.207031 75.496094 96.21875 74.230469 96.21875 Z M 71.953125 94.027344 Z M 76.167969 93.183594 Z M 76.167969 93.183594 " fill-opacity="1" fill-rule="evenodd"/><path fill="#3db36b" d="M 140.613281 56.828125 L 131.585938 56.828125 C 130.324219 56.828125 129.308594 55.816406 129.308594 54.636719 C 129.308594 53.371094 130.324219 52.359375 131.585938 52.359375 L 138.335938 52.359375 L 138.335938 45.355469 C 138.335938 44.089844 139.347656 43.078125 140.613281 43.078125 C 141.792969 43.078125 142.804688 44.089844 142.804688 45.355469 L 142.804688 54.636719 C 142.804688 55.816406 141.792969 56.828125 140.613281 56.828125 Z M 140.613281 56.828125 " fill-opacity="1" fill-rule="evenodd"/><path fill="#3db36b" d="M 84.351562 122.367188 C 83.085938 122.367188 82.074219 121.355469 82.074219 120.175781 L 82.074219 110.898438 C 82.074219 109.632812 83.085938 108.621094 84.351562 108.621094 L 93.375 108.621094 C 94.558594 108.621094 95.570312 109.632812 95.570312 110.898438 C 95.570312 112.078125 94.558594 113.089844 93.375 113.089844 L 86.628906 113.089844 L 86.628906 120.175781 C 86.628906 121.355469 85.617188 122.367188 84.351562 122.367188 Z M 84.351562 122.367188 " fill-opacity="1" fill-rule="evenodd"/><path fill="#3db36b" d="M 117.5 113.679688 L 107.378906 113.679688 C 105.015625 113.679688 103.160156 111.824219 103.160156 109.464844 L 103.160156 103.390625 C 101.644531 102.714844 100.292969 101.957031 99.113281 101.195312 L 93.96875 104.066406 C 92.113281 105.246094 89.328125 104.65625 88.0625 102.800781 C 88.0625 102.800781 88.0625 102.714844 87.976562 102.714844 L 82.917969 93.691406 C 82.917969 93.605469 82.832031 93.4375 82.75 93.269531 C 82.15625 91.414062 82.917969 89.304688 84.519531 88.121094 C 84.605469 88.121094 84.605469 88.121094 84.6875 88.039062 L 89.75 85.171875 C 89.664062 84.242188 89.664062 83.484375 89.664062 82.722656 C 89.664062 81.878906 89.664062 81.035156 89.75 80.277344 L 84.6875 77.410156 C 84.605469 77.324219 84.605469 77.324219 84.519531 77.324219 C 82.917969 76.230469 82.242188 74.203125 82.75 72.097656 C 82.832031 71.84375 82.917969 71.675781 83 71.503906 L 88.0625 62.734375 C 88.0625 62.734375 88.0625 62.648438 88.148438 62.648438 C 89.328125 60.792969 92.113281 60.203125 93.96875 61.382812 L 99.113281 64.335938 C 100.378906 63.324219 101.8125 62.480469 103.246094 61.890625 L 103.246094 55.984375 C 103.246094 53.621094 105.101562 51.765625 107.464844 51.765625 L 117.585938 51.765625 C 119.945312 51.765625 121.804688 53.621094 121.804688 55.984375 L 121.804688 61.804688 C 123.238281 62.5625 124.585938 63.40625 125.851562 64.335938 L 130.996094 61.382812 C 132.851562 60.203125 135.382812 60.792969 136.5625 62.648438 C 136.648438 62.648438 136.648438 62.734375 136.648438 62.734375 L 141.710938 71.421875 C 141.792969 71.503906 141.792969 71.503906 141.792969 71.589844 C 142.804688 73.613281 142.300781 76.058594 140.445312 77.242188 C 140.445312 77.242188 140.359375 77.324219 140.359375 77.324219 L 135.128906 80.277344 C 135.128906 80.277344 135.128906 80.363281 135.128906 80.363281 C 135.214844 81.035156 135.300781 81.796875 135.300781 82.722656 C 135.300781 83.398438 135.214844 83.988281 135.128906 84.578125 C 135.128906 84.75 135.128906 84.917969 135.046875 85.085938 L 140.359375 88.039062 C 140.359375 88.121094 140.445312 88.121094 140.445312 88.121094 C 142.300781 89.386719 142.890625 91.835938 141.710938 93.691406 L 136.648438 102.714844 C 136.648438 102.714844 136.5625 102.800781 136.5625 102.800781 C 135.300781 104.65625 132.851562 105.246094 130.996094 104.066406 L 125.765625 101.113281 C 124.417969 102.039062 123.066406 102.800781 121.71875 103.390625 L 121.71875 109.464844 C 121.71875 111.824219 119.863281 113.679688 117.5 113.679688 Z M 107.714844 109.210938 L 117.246094 109.210938 L 117.246094 101.871094 C 117.246094 100.945312 117.839844 100.101562 118.683594 99.761719 C 120.621094 99.089844 122.394531 98.074219 124.417969 96.640625 C 125.09375 96.136719 126.019531 96.136719 126.78125 96.558594 L 133.023438 100.015625 L 137.660156 91.75 L 131.585938 88.375 C 130.914062 87.953125 130.492188 87.195312 130.492188 86.351562 C 130.492188 85.507812 130.574219 84.75 130.660156 84.074219 C 130.660156 83.566406 130.746094 83.144531 130.746094 82.722656 C 130.746094 82.132812 130.660156 81.542969 130.574219 80.953125 C 130.492188 80.363281 130.492188 79.773438 130.492188 79.097656 C 130.492188 78.253906 130.914062 77.496094 131.585938 77.074219 L 137.746094 73.613281 L 133.023438 65.433594 L 126.78125 68.890625 C 126.019531 69.3125 125.09375 69.3125 124.417969 68.804688 C 122.476562 67.457031 120.707031 66.105469 118.683594 65.433594 C 117.839844 65.09375 117.246094 64.25 117.246094 63.324219 L 117.246094 56.238281 L 107.714844 56.238281 L 107.714844 63.324219 C 107.714844 64.25 107.125 65.09375 106.199219 65.433594 C 104.34375 66.105469 102.316406 67.289062 100.714844 68.722656 C 99.957031 69.3125 98.945312 69.398438 98.101562 68.890625 L 91.691406 65.261719 L 87.050781 73.359375 C 87.050781 73.445312 87.050781 73.53125 87.050781 73.53125 L 93.292969 77.074219 C 94.136719 77.578125 94.640625 78.589844 94.390625 79.601562 C 94.136719 80.445312 94.136719 81.375 94.136719 82.722656 C 94.136719 83.820312 94.136719 84.75 94.390625 85.929688 C 94.558594 86.855469 94.136719 87.871094 93.292969 88.292969 L 87.050781 91.835938 L 91.691406 100.101562 L 98.101562 96.472656 C 98.859375 96.050781 99.871094 96.136719 100.628906 96.726562 C 101.980469 97.824219 103.835938 98.835938 106.199219 99.761719 C 107.042969 100.101562 107.632812 100.945312 107.632812 101.871094 L 107.632812 109.210938 Z M 107.714844 109.210938 " fill-opacity="1" fill-rule="evenodd"/><path fill="#3db36b" d="M 112.441406 97.0625 C 104.425781 97.0625 97.847656 90.652344 97.847656 82.722656 C 97.847656 78.84375 99.367188 75.21875 102.148438 72.433594 C 104.933594 69.648438 108.558594 68.132812 112.441406 68.132812 C 120.367188 68.132812 126.78125 74.625 126.78125 82.722656 C 126.78125 90.738281 120.539062 97.0625 112.441406 97.0625 Z M 112.441406 72.601562 C 106.957031 72.601562 102.316406 77.242188 102.316406 82.722656 C 102.316406 88.121094 106.871094 92.59375 112.441406 92.59375 C 118.007812 92.59375 122.308594 88.207031 122.308594 82.722656 C 122.308594 77.15625 117.921875 72.601562 112.441406 72.601562 Z M 112.441406 72.601562 " fill-opacity="1" fill-rule="evenodd"/></svg>