<svg xmlns="http://www.w3.org/2000/svg" xmlns:xlink="http://www.w3.org/1999/xlink" width="300" zoomAndPan="magnify" viewBox="0 0 224.87999 225" height="300" preserveAspectRatio="xMidYMid meet" version="1.0"><defs><clipPath id="cfa6af5dcc"><path d="M 0 0.0585938 L 224.761719 0.0585938 L 224.761719 224.9375 L 0 224.9375 Z M 0 0.0585938 " clip-rule="nonzero"/></clipPath></defs><path fill="#3db36b" d="M 159.390625 181.585938 L 65.492188 181.585938 L 65.492188 61.839844 L 81.339844 61.839844 L 81.339844 63.300781 C 81.339844 65.347656 83 67.007812 85.046875 67.007812 L 139.839844 67.007812 C 141.886719 67.007812 143.542969 65.347656 143.542969 63.300781 L 143.542969 61.839844 L 159.390625 61.839844 Z M 88.753906 55.121094 L 102.382812 55.121094 C 103.460938 55.121094 104.488281 54.652344 105.191406 53.835938 C 105.894531 53.019531 106.207031 51.9375 106.050781 50.867188 L 106.039062 50.78125 C 105.988281 50.445312 105.941406 50.128906 105.941406 49.921875 C 105.941406 46.335938 108.855469 43.417969 112.441406 43.417969 C 116.027344 43.417969 118.945312 46.335938 118.945312 49.921875 C 118.945312 50.125 118.894531 50.441406 118.847656 50.777344 L 118.832031 50.871094 C 118.675781 51.9375 118.988281 53.019531 119.695312 53.835938 C 120.398438 54.652344 121.421875 55.121094 122.5 55.121094 L 136.132812 55.121094 L 136.132812 59.59375 L 88.753906 59.59375 Z M 163.097656 54.425781 L 143.542969 54.425781 L 143.542969 51.414062 C 143.542969 49.367188 141.886719 47.707031 139.839844 47.707031 L 126.179688 47.707031 C 125.117188 41.082031 119.363281 36.003906 112.441406 36.003906 C 105.523438 36.003906 99.765625 41.082031 98.703125 47.707031 L 85.046875 47.707031 C 83 47.707031 81.339844 49.367188 81.339844 51.414062 L 81.339844 54.425781 L 61.785156 54.425781 C 59.738281 54.425781 58.078125 56.085938 58.078125 58.132812 L 58.078125 185.292969 C 58.078125 187.339844 59.738281 189 61.785156 189 L 163.097656 189 C 165.148438 189 166.804688 187.339844 166.804688 185.292969 L 166.804688 58.132812 C 166.804688 56.085938 165.148438 54.425781 163.097656 54.425781 " fill-opacity="1" fill-rule="nonzero"/><path fill="#3db36b" d="M 76.863281 93.949219 C 77.558594 94.644531 78.503906 95.035156 79.484375 95.035156 C 79.511719 95.035156 79.539062 95.035156 79.566406 95.035156 C 80.578125 95.011719 81.539062 94.578125 82.222656 93.832031 L 92.6875 82.394531 C 94.070312 80.886719 93.964844 78.539062 92.457031 77.15625 C 90.945312 75.773438 88.601562 75.878906 87.21875 77.390625 L 79.367188 85.96875 L 76.097656 82.699219 C 74.652344 81.25 72.304688 81.25 70.855469 82.699219 C 69.40625 84.144531 69.40625 86.492188 70.855469 87.941406 L 76.863281 93.949219 " fill-opacity="1" fill-rule="nonzero"/><path fill="#3db36b" d="M 101.648438 82.324219 C 99.789062 82.324219 98.28125 83.980469 98.28125 86.03125 C 98.28125 88.078125 99.789062 89.738281 101.648438 89.738281 L 152.515625 89.738281 C 154.375 89.738281 155.882812 88.078125 155.882812 86.03125 C 155.882812 83.980469 154.375 82.324219 152.515625 82.324219 L 101.648438 82.324219 " fill-opacity="1" fill-rule="nonzero"/><path fill="#3db36b" d="M 76.863281 117.558594 C 77.5625 118.257812 78.503906 118.648438 79.484375 118.648438 C 79.511719 118.648438 79.539062 118.644531 79.566406 118.644531 C 80.578125 118.621094 81.539062 118.1875 82.222656 117.441406 L 92.6875 106.003906 C 94.070312 104.496094 93.96875 102.152344 92.457031 100.769531 C 90.945312 99.386719 88.601562 99.488281 87.21875 101 L 79.367188 109.578125 L 76.097656 106.308594 C 74.652344 104.859375 72.304688 104.863281 70.855469 106.308594 C 69.40625 107.757812 69.40625 110.105469 70.855469 111.550781 L 76.863281 117.558594 " fill-opacity="1" fill-rule="nonzero"/><path fill="#3db36b" d="M 152.515625 105.933594 L 101.648438 105.933594 C 99.789062 105.933594 98.28125 107.59375 98.28125 109.640625 C 98.28125 111.6875 99.789062 113.347656 101.648438 113.347656 L 152.515625 113.347656 C 154.375 113.347656 155.882812 111.6875 155.882812 109.640625 C 155.882812 107.59375 154.375 105.933594 152.515625 105.933594 " fill-opacity="1" fill-rule="nonzero"/><path fill="#3db36b" d="M 76.863281 141.171875 C 77.5625 141.867188 78.503906 142.257812 79.484375 142.257812 C 79.511719 142.257812 79.539062 142.257812 79.566406 142.257812 C 80.578125 142.234375 81.539062 141.800781 82.222656 141.054688 L 92.6875 129.617188 C 94.070312 128.105469 93.96875 125.761719 92.457031 124.378906 C 90.945312 122.996094 88.601562 123.101562 87.21875 124.609375 L 79.367188 133.1875 L 76.097656 129.921875 C 74.652344 128.472656 72.304688 128.472656 70.855469 129.921875 C 69.40625 131.367188 69.40625 133.714844 70.855469 135.164062 L 76.863281 141.171875 " fill-opacity="1" fill-rule="nonzero"/><path fill="#3db36b" d="M 152.515625 129.542969 L 101.648438 129.542969 C 99.789062 129.542969 98.28125 131.203125 98.28125 133.25 C 98.28125 135.300781 99.789062 136.957031 101.648438 136.957031 L 152.515625 136.957031 C 154.375 136.957031 155.882812 135.300781 155.882812 133.25 C 155.882812 131.203125 154.375 129.542969 152.515625 129.542969 " fill-opacity="1" fill-rule="nonzero"/><path fill="#3db36b" d="M 92.457031 147.988281 C 90.945312 146.605469 88.601562 146.710938 87.21875 148.222656 L 79.367188 156.800781 L 76.097656 153.53125 C 74.652344 152.082031 72.304688 152.082031 70.855469 153.53125 C 69.40625 154.976562 69.40625 157.324219 70.855469 158.773438 L 76.863281 164.78125 C 77.5625 165.480469 78.503906 165.867188 79.484375 165.867188 C 79.511719 165.867188 79.539062 165.867188 79.566406 165.867188 C 80.578125 165.84375 81.539062 165.410156 82.222656 164.664062 L 92.6875 153.226562 C 94.070312 151.71875 93.96875 149.371094 92.457031 147.988281 " fill-opacity="1" fill-rule="nonzero"/><path fill="#3db36b" d="M 152.515625 153.15625 L 101.648438 153.15625 C 99.789062 153.15625 98.28125 154.816406 98.28125 156.863281 C 98.28125 158.910156 99.789062 160.570312 101.648438 160.570312 L 152.515625 160.570312 C 154.375 160.570312 155.882812 158.910156 155.882812 156.863281 C 155.882812 154.816406 154.375 153.15625 152.515625 153.15625 " fill-opacity="1" fill-rule="nonzero"/><g clip-path="url(#cfa6af5dcc)"><path fill="#003333" d="M 112.441406 7.472656 C 54.53125 7.472656 7.414062 54.589844 7.414062 112.503906 C 7.414062 170.414062 54.53125 217.53125 112.441406 217.53125 C 170.355469 217.53125 217.46875 170.414062 217.46875 112.503906 C 217.46875 54.589844 170.355469 7.472656 112.441406 7.472656 Z M 112.441406 224.945312 C 82.40625 224.945312 54.171875 213.25 32.933594 192.011719 C 11.695312 170.773438 0 142.535156 0 112.503906 C 0 82.46875 11.695312 54.230469 32.933594 32.992188 C 54.171875 11.753906 82.40625 0.0585938 112.441406 0.0585938 C 142.476562 0.0585938 170.710938 11.753906 191.949219 32.992188 C 213.1875 54.230469 224.882812 82.46875 224.882812 112.503906 C 224.882812 142.535156 213.1875 170.773438 191.949219 192.011719 C 170.710938 213.25 142.476562 224.945312 112.441406 224.945312 " fill-opacity="1" fill-rule="nonzero"/></g></svg>