
<svg xmlns="http://www.w3.org/2000/svg" xmlns:xlink="http://www.w3.org/1999/xlink" width="400" zoomAndPan="magnify" viewBox="0 0 300 299.999988" height="400" preserveAspectRatio="xMidYMid meet" version="1.0"><defs><clipPath id="3f794da5b7"><path d="M 262.375 78.558594 L 270.074219 78.558594 L 270.074219 264.386719 L 262.375 264.386719 Z M 262.375 78.558594 " clip-rule="nonzero"/></clipPath><clipPath id="b96d4a56cd"><path d="M 38.460938 5.144531 L 270.074219 5.144531 L 270.074219 82.859375 L 38.460938 82.859375 Z M 38.460938 5.144531 " clip-rule="nonzero"/></clipPath><clipPath id="6ea2895f55"><path d="M 34.582031 19 L 159 19 L 159 213 L 34.582031 213 Z M 34.582031 19 " clip-rule="nonzero"/></clipPath><clipPath id="dcbc6623c3"><path d="M 106.410156 267.253906 L 139.238281 267.253906 L 139.238281 286.394531 L 106.410156 286.394531 Z M 106.410156 267.253906 " clip-rule="nonzero"/></clipPath></defs><path fill="#f89d1f" d="M 161.207031 24.027344 C 161.074219 24.058594 160.933594 24.09375 160.792969 24.128906 C 160.761719 24.136719 160.730469 24.144531 160.699219 24.152344 C 160.554688 24.1875 160.410156 24.222656 160.261719 24.261719 C 160.242188 24.265625 160.21875 24.269531 160.195312 24.277344 C 160.0625 24.308594 159.921875 24.34375 159.78125 24.375 C 159.75 24.382812 159.71875 24.390625 159.6875 24.398438 C 159.527344 24.4375 159.367188 24.476562 159.203125 24.515625 C 159.171875 24.519531 159.140625 24.53125 159.109375 24.535156 C 158.960938 24.570312 158.808594 24.609375 158.652344 24.644531 C 158.625 24.648438 158.597656 24.65625 158.570312 24.660156 C 158.398438 24.699219 158.222656 24.742188 158.046875 24.78125 C 158.003906 24.792969 157.960938 24.800781 157.917969 24.8125 C 157.742188 24.851562 157.570312 24.890625 157.390625 24.929688 C 157.378906 24.933594 157.367188 24.933594 157.355469 24.9375 C 157.164062 24.980469 156.96875 25.023438 156.773438 25.066406 C 156.730469 25.074219 156.683594 25.082031 156.640625 25.09375 C 156.445312 25.136719 156.242188 25.179688 156.039062 25.222656 C 156.019531 25.226562 156 25.230469 155.980469 25.238281 C 155.789062 25.277344 155.597656 25.316406 155.402344 25.359375 C 155.355469 25.367188 155.308594 25.375 155.265625 25.386719 C 155.054688 25.429688 154.84375 25.476562 154.625 25.519531 C 154.585938 25.527344 154.546875 25.535156 154.507812 25.542969 C 154.316406 25.582031 154.121094 25.621094 153.921875 25.660156 C 153.878906 25.667969 153.835938 25.675781 153.792969 25.6875 C 153.570312 25.730469 153.34375 25.777344 153.117188 25.820312 C 153.066406 25.828125 153.015625 25.839844 152.964844 25.847656 C 152.753906 25.890625 152.535156 25.933594 152.316406 25.972656 C 152.289062 25.976562 152.261719 25.984375 152.234375 25.992188 C 151.996094 26.035156 151.753906 26.082031 151.511719 26.125 C 151.453125 26.136719 151.398438 26.148438 151.339844 26.15625 C 151.089844 26.203125 150.839844 26.25 150.585938 26.292969 C 150.570312 26.296875 150.554688 26.300781 150.539062 26.304688 C 150.316406 26.34375 150.09375 26.382812 149.863281 26.421875 C 149.800781 26.433594 149.734375 26.445312 149.667969 26.457031 C 149.441406 26.496094 149.214844 26.535156 148.988281 26.574219 C 148.964844 26.578125 148.941406 26.582031 148.921875 26.585938 C 148.671875 26.628906 148.421875 26.671875 148.171875 26.714844 C 148.105469 26.722656 148.039062 26.734375 147.972656 26.746094 C 147.75 26.78125 147.523438 26.820312 147.292969 26.859375 C 147.257812 26.863281 147.222656 26.871094 147.183594 26.875 C 146.925781 26.917969 146.664062 26.957031 146.402344 27 C 146.332031 27.007812 146.265625 27.019531 146.199219 27.03125 C 145.976562 27.066406 145.75 27.101562 145.523438 27.132812 C 145.472656 27.144531 145.417969 27.148438 145.367188 27.160156 C 145.097656 27.199219 144.824219 27.238281 144.550781 27.277344 C 144.488281 27.289062 144.421875 27.300781 144.359375 27.308594 C 144.132812 27.34375 143.902344 27.375 143.667969 27.40625 C 143.605469 27.417969 143.539062 27.425781 143.476562 27.433594 C 143.195312 27.476562 142.914062 27.515625 142.632812 27.554688 C 142.574219 27.558594 142.511719 27.566406 142.453125 27.578125 C 142.214844 27.609375 141.972656 27.640625 141.730469 27.671875 C 141.660156 27.683594 141.589844 27.691406 141.515625 27.699219 C 141.226562 27.738281 140.933594 27.777344 140.636719 27.816406 C 140.59375 27.820312 140.546875 27.828125 140.5 27.832031 C 140.242188 27.863281 139.984375 27.894531 139.722656 27.929688 C 139.644531 27.9375 139.566406 27.949219 139.488281 27.957031 C 139.183594 27.992188 138.882812 28.027344 138.574219 28.066406 C 138.550781 28.066406 138.527344 28.070312 138.503906 28.074219 C 138.21875 28.105469 137.929688 28.136719 137.644531 28.171875 C 137.558594 28.179688 137.476562 28.1875 137.394531 28.199219 C 137.097656 28.230469 136.800781 28.261719 136.5 28.292969 C 136.480469 28.296875 136.464844 28.296875 136.445312 28.300781 C 136.128906 28.332031 135.8125 28.363281 135.492188 28.398438 C 135.421875 28.402344 135.351562 28.410156 135.277344 28.417969 C 134.855469 28.460938 134.429688 28.5 134 28.539062 C 133.941406 28.546875 133.878906 28.550781 133.816406 28.554688 C 133.386719 28.59375 132.949219 28.632812 132.511719 28.671875 C 132.449219 28.675781 132.390625 28.683594 132.328125 28.6875 C 131.886719 28.722656 131.441406 28.757812 130.988281 28.792969 C 130.933594 28.796875 130.878906 28.804688 130.824219 28.804688 C 130.367188 28.84375 129.910156 28.875 129.445312 28.90625 C 129.394531 28.910156 129.34375 28.914062 129.292969 28.917969 C 128.824219 28.949219 128.351562 28.980469 127.875 29.007812 C 127.832031 29.011719 127.785156 29.015625 127.742188 29.015625 C 127.257812 29.046875 126.769531 29.074219 126.277344 29.097656 C 126.242188 29.101562 126.210938 29.101562 126.175781 29.105469 C 125.671875 29.132812 125.164062 29.15625 124.65625 29.179688 C 124.636719 29.179688 124.617188 29.179688 124.597656 29.179688 C 124.070312 29.203125 123.542969 29.222656 123.007812 29.242188 C 122.191406 29.273438 121.375 29.296875 120.558594 29.316406 C 120.445312 29.316406 120.328125 29.320312 120.210938 29.324219 C 119.445312 29.339844 118.679688 29.351562 117.914062 29.355469 C 117.792969 29.359375 117.671875 29.359375 117.550781 29.359375 C 116.785156 29.367188 116.023438 29.367188 115.265625 29.363281 C 115.148438 29.363281 115.027344 29.363281 114.90625 29.359375 C 114.144531 29.355469 113.382812 29.347656 112.621094 29.332031 C 112.511719 29.332031 112.402344 29.328125 112.292969 29.324219 C 111.765625 29.3125 111.238281 29.296875 110.710938 29.28125 C 110.292969 29.269531 109.871094 29.257812 109.453125 29.242188 C 109.011719 29.222656 108.574219 29.207031 108.136719 29.1875 C 107.71875 29.167969 107.300781 29.148438 106.886719 29.128906 C 106.449219 29.105469 106.011719 29.082031 105.578125 29.054688 C 105.160156 29.03125 104.746094 29.007812 104.332031 28.980469 C 103.898438 28.953125 103.464844 28.921875 103.03125 28.886719 C 102.617188 28.859375 102.203125 28.828125 101.792969 28.796875 C 101.351562 28.761719 100.914062 28.722656 100.472656 28.683594 C 100.082031 28.648438 99.683594 28.613281 99.292969 28.578125 C 98.851562 28.535156 98.410156 28.488281 97.96875 28.445312 C 97.582031 28.40625 97.191406 28.367188 96.800781 28.320312 C 96.359375 28.273438 95.921875 28.222656 95.480469 28.171875 C 95.097656 28.125 94.710938 28.082031 94.328125 28.03125 C 93.886719 27.976562 93.449219 27.917969 93.007812 27.859375 C 92.628906 27.808594 92.25 27.761719 91.871094 27.707031 C 91.40625 27.640625 90.945312 27.574219 90.484375 27.503906 C 90.140625 27.453125 89.796875 27.402344 89.453125 27.351562 C 88.96875 27.273438 88.488281 27.195312 88.003906 27.113281 C 87.6875 27.0625 87.367188 27.011719 87.050781 26.957031 C 86.519531 26.867188 85.988281 26.769531 85.460938 26.671875 C 85.195312 26.625 84.929688 26.582031 84.667969 26.53125 C 83.875 26.382812 83.085938 26.230469 82.300781 26.070312 C 81.972656 26.003906 81.648438 25.933594 81.320312 25.867188 C 81.109375 25.820312 80.894531 25.777344 80.683594 25.730469 C 80.4375 25.675781 80.191406 25.625 79.945312 25.570312 C 79.738281 25.523438 79.527344 25.476562 79.316406 25.429688 C 79.070312 25.375 78.824219 25.320312 78.578125 25.261719 C 78.371094 25.214844 78.164062 25.167969 77.960938 25.121094 C 77.710938 25.0625 77.464844 25.003906 77.214844 24.941406 C 77.011719 24.894531 76.808594 24.84375 76.609375 24.796875 C 76.355469 24.734375 76.105469 24.671875 75.855469 24.609375 C 75.65625 24.5625 75.460938 24.511719 75.261719 24.460938 C 75.007812 24.398438 74.75 24.332031 74.496094 24.265625 C 74.304688 24.214844 74.113281 24.164062 73.925781 24.117188 C 73.65625 24.042969 73.390625 23.972656 73.125 23.898438 C 72.949219 23.851562 72.769531 23.804688 72.59375 23.757812 C 72.300781 23.675781 72.011719 23.597656 71.71875 23.511719 C 71.570312 23.472656 71.417969 23.429688 71.269531 23.386719 C 71.199219 23.367188 71.128906 23.347656 71.058594 23.328125 C 70.625 23.199219 70.1875 23.074219 69.753906 22.945312 C 69.585938 22.898438 69.421875 22.847656 69.253906 22.796875 C 68.914062 22.695312 68.574219 22.589844 68.238281 22.488281 C 68.058594 22.429688 67.875 22.375 67.695312 22.320312 C 67.359375 22.214844 67.027344 22.109375 66.691406 22 C 66.523438 21.945312 66.355469 21.890625 66.1875 21.835938 C 65.789062 21.707031 65.386719 21.574219 64.988281 21.441406 C 64.894531 21.410156 64.800781 21.378906 64.707031 21.347656 C 64.214844 21.179688 63.726562 21.011719 63.238281 20.839844 C 63.105469 20.796875 62.972656 20.746094 62.839844 20.699219 C 62.484375 20.570312 62.128906 20.445312 61.773438 20.316406 C 61.601562 20.253906 61.429688 20.191406 61.257812 20.128906 C 60.9375 20.011719 60.617188 19.890625 60.296875 19.769531 C 60.125 19.703125 59.949219 19.640625 59.777344 19.574219 C 59.4375 19.445312 59.101562 19.3125 58.761719 19.183594 C 58.628906 19.128906 58.492188 19.078125 58.355469 19.023438 C 57.695312 18.761719 57.039062 18.496094 56.382812 18.226562 C 56.265625 18.179688 56.152344 18.132812 56.035156 18.082031 C 55.390625 17.8125 54.75 17.542969 54.109375 17.265625 C 54 17.21875 53.890625 17.167969 53.78125 17.121094 C 53.128906 16.835938 52.476562 16.542969 51.832031 16.25 C 51.765625 16.21875 51.703125 16.1875 51.636719 16.160156 C 50.992188 15.863281 50.351562 15.5625 49.714844 15.257812 C 49.664062 15.234375 49.613281 15.207031 49.566406 15.183594 C 48.921875 14.875 48.285156 14.558594 47.648438 14.242188 C 47.546875 14.1875 47.441406 14.136719 47.339844 14.085938 C 46.722656 13.773438 46.113281 13.457031 45.503906 13.140625 C 45.390625 13.078125 45.28125 13.019531 45.167969 12.960938 C 44.558594 12.636719 43.949219 12.308594 43.34375 11.976562 C 43.257812 11.929688 43.171875 11.878906 43.085938 11.832031 C 42.453125 11.480469 41.820312 11.125 41.191406 10.761719 C 40.308594 10.25 39.433594 9.734375 38.566406 9.203125 L 38.050781 190.765625 C 38.917969 191.292969 39.792969 191.8125 40.675781 192.324219 C 41.304688 192.6875 41.9375 193.042969 42.574219 193.394531 C 42.65625 193.441406 42.742188 193.488281 42.828125 193.535156 C 43.433594 193.871094 44.042969 194.199219 44.65625 194.523438 C 44.765625 194.582031 44.878906 194.640625 44.988281 194.699219 C 45.597656 195.019531 46.210938 195.335938 46.824219 195.644531 C 46.925781 195.699219 47.03125 195.75 47.132812 195.800781 C 47.769531 196.121094 48.40625 196.4375 49.050781 196.746094 C 49.101562 196.769531 49.148438 196.792969 49.199219 196.816406 C 49.835938 197.125 50.480469 197.425781 51.125 197.722656 C 51.1875 197.75 51.253906 197.78125 51.316406 197.808594 C 51.964844 198.105469 52.613281 198.394531 53.265625 198.683594 C 53.375 198.730469 53.484375 198.777344 53.597656 198.824219 C 54.234375 199.101562 54.875 199.375 55.519531 199.644531 C 55.636719 199.691406 55.753906 199.738281 55.867188 199.789062 C 56.523438 200.058594 57.179688 200.324219 57.84375 200.585938 C 57.871094 200.597656 57.894531 200.605469 57.921875 200.617188 C 58.03125 200.660156 58.140625 200.703125 58.25 200.742188 C 58.585938 200.875 58.921875 201.007812 59.261719 201.136719 C 59.433594 201.203125 59.609375 201.265625 59.78125 201.332031 C 60.101562 201.453125 60.421875 201.574219 60.742188 201.691406 C 60.914062 201.753906 61.085938 201.816406 61.257812 201.878906 C 61.613281 202.007812 61.96875 202.132812 62.320312 202.261719 C 62.457031 202.308594 62.589844 202.355469 62.726562 202.402344 C 63.210938 202.574219 63.703125 202.742188 64.191406 202.910156 C 64.285156 202.941406 64.378906 202.972656 64.472656 203.003906 C 64.871094 203.136719 65.273438 203.269531 65.675781 203.398438 C 65.839844 203.453125 66.011719 203.507812 66.179688 203.5625 C 66.511719 203.667969 66.84375 203.773438 67.179688 203.878906 C 67.359375 203.9375 67.542969 203.992188 67.722656 204.046875 C 68.0625 204.152344 68.398438 204.253906 68.738281 204.359375 C 68.90625 204.410156 69.074219 204.460938 69.242188 204.507812 C 69.675781 204.636719 70.109375 204.765625 70.546875 204.890625 C 70.605469 204.90625 70.664062 204.921875 70.726562 204.941406 C 70.734375 204.945312 70.746094 204.945312 70.753906 204.949219 C 70.90625 204.992188 71.058594 205.035156 71.207031 205.078125 C 71.5 205.15625 71.789062 205.238281 72.078125 205.320312 C 72.257812 205.367188 72.4375 205.414062 72.617188 205.464844 C 72.878906 205.535156 73.144531 205.605469 73.410156 205.675781 C 73.601562 205.726562 73.796875 205.777344 73.992188 205.828125 C 74.242188 205.894531 74.496094 205.957031 74.746094 206.023438 C 74.945312 206.074219 75.148438 206.125 75.347656 206.175781 C 75.59375 206.234375 75.84375 206.296875 76.089844 206.359375 C 76.296875 206.410156 76.5 206.457031 76.707031 206.507812 C 76.953125 206.566406 77.195312 206.625 77.445312 206.679688 C 77.652344 206.730469 77.859375 206.777344 78.070312 206.824219 C 78.3125 206.882812 78.558594 206.9375 78.800781 206.992188 C 79.011719 207.039062 79.222656 207.085938 79.433594 207.132812 C 79.679688 207.1875 79.921875 207.242188 80.167969 207.292969 C 80.378906 207.339844 80.59375 207.382812 80.804688 207.425781 C 80.960938 207.460938 81.117188 207.496094 81.273438 207.527344 C 81.445312 207.5625 81.617188 207.597656 81.789062 207.632812 C 82.574219 207.792969 83.363281 207.945312 84.152344 208.09375 C 84.414062 208.140625 84.679688 208.1875 84.941406 208.234375 C 85.472656 208.332031 86.003906 208.429688 86.535156 208.519531 C 86.855469 208.574219 87.175781 208.625 87.496094 208.675781 C 87.976562 208.757812 88.457031 208.835938 88.9375 208.914062 C 89.28125 208.964844 89.628906 209.015625 89.972656 209.066406 C 90.355469 209.121094 90.734375 209.183594 91.121094 209.234375 C 91.199219 209.246094 91.277344 209.257812 91.355469 209.269531 C 91.734375 209.324219 92.113281 209.371094 92.492188 209.421875 C 92.933594 209.480469 93.371094 209.539062 93.8125 209.59375 C 94.195312 209.640625 94.582031 209.6875 94.96875 209.730469 C 95.40625 209.78125 95.847656 209.835938 96.289062 209.882812 C 96.675781 209.925781 97.066406 209.964844 97.453125 210.007812 C 97.894531 210.050781 98.335938 210.097656 98.777344 210.136719 C 99.171875 210.175781 99.5625 210.210938 99.957031 210.246094 C 100.269531 210.273438 100.578125 210.304688 100.890625 210.328125 C 101.019531 210.339844 101.148438 210.347656 101.277344 210.359375 C 101.691406 210.390625 102.101562 210.421875 102.515625 210.449219 C 102.949219 210.480469 103.382812 210.515625 103.820312 210.542969 C 104.230469 210.570312 104.644531 210.59375 105.0625 210.617188 C 105.496094 210.644531 105.933594 210.667969 106.371094 210.691406 C 106.789062 210.710938 107.207031 210.730469 107.621094 210.75 C 108.0625 210.769531 108.5 210.789062 108.9375 210.804688 C 109.355469 210.816406 109.777344 210.832031 110.195312 210.84375 C 110.484375 210.851562 110.769531 210.863281 111.054688 210.871094 C 111.296875 210.875 111.535156 210.882812 111.777344 210.886719 C 111.886719 210.886719 111.996094 210.890625 112.109375 210.894531 C 112.867188 210.910156 113.628906 210.917969 114.394531 210.921875 C 114.511719 210.925781 114.632812 210.925781 114.75 210.925781 C 115.511719 210.929688 116.273438 210.929688 117.035156 210.921875 C 117.15625 210.921875 117.277344 210.921875 117.398438 210.917969 C 118.164062 210.914062 118.929688 210.902344 119.699219 210.886719 C 119.8125 210.882812 119.929688 210.878906 120.042969 210.875 C 120.734375 210.859375 121.429688 210.84375 122.125 210.816406 C 122.25 210.816406 122.371094 210.808594 122.496094 210.804688 C 123.027344 210.785156 123.554688 210.765625 124.082031 210.742188 C 124.101562 210.742188 124.121094 210.742188 124.140625 210.738281 C 124.652344 210.71875 125.160156 210.691406 125.664062 210.667969 C 125.695312 210.664062 125.730469 210.664062 125.761719 210.660156 C 126.253906 210.632812 126.742188 210.605469 127.230469 210.578125 C 127.273438 210.574219 127.316406 210.574219 127.359375 210.570312 C 127.835938 210.542969 128.308594 210.511719 128.78125 210.476562 C 128.828125 210.476562 128.878906 210.472656 128.929688 210.46875 C 129.390625 210.4375 129.851562 210.402344 130.304688 210.371094 C 130.363281 210.363281 130.421875 210.359375 130.476562 210.355469 C 130.929688 210.320312 131.375 210.285156 131.820312 210.246094 C 131.875 210.242188 131.933594 210.238281 131.992188 210.234375 C 132.433594 210.195312 132.871094 210.160156 133.304688 210.117188 C 133.363281 210.113281 133.425781 210.105469 133.488281 210.101562 C 133.917969 210.0625 134.339844 210.019531 134.761719 209.980469 C 134.796875 209.976562 134.832031 209.972656 134.863281 209.96875 C 134.902344 209.964844 134.9375 209.960938 134.976562 209.957031 C 135.296875 209.925781 135.613281 209.894531 135.929688 209.863281 C 135.949219 209.859375 135.96875 209.855469 135.984375 209.855469 C 136.285156 209.824219 136.585938 209.792969 136.878906 209.757812 C 136.964844 209.75 137.046875 209.742188 137.128906 209.730469 C 137.417969 209.699219 137.703125 209.667969 137.988281 209.636719 C 138.011719 209.632812 138.039062 209.628906 138.0625 209.625 C 138.367188 209.589844 138.671875 209.554688 138.972656 209.519531 C 139.050781 209.507812 139.128906 209.5 139.207031 209.492188 C 139.46875 209.457031 139.726562 209.425781 139.984375 209.394531 C 140.03125 209.386719 140.078125 209.382812 140.125 209.378906 C 140.417969 209.339844 140.710938 209.300781 141.003906 209.261719 C 141.074219 209.253906 141.144531 209.246094 141.21875 209.234375 C 141.460938 209.203125 141.699219 209.171875 141.941406 209.136719 C 142 209.128906 142.058594 209.121094 142.117188 209.113281 C 142.402344 209.074219 142.683594 209.035156 142.964844 208.996094 C 143.027344 208.988281 143.085938 208.976562 143.148438 208.96875 C 143.382812 208.9375 143.617188 208.902344 143.847656 208.871094 C 143.910156 208.859375 143.972656 208.851562 144.035156 208.84375 C 144.3125 208.800781 144.582031 208.761719 144.851562 208.71875 C 144.90625 208.714844 144.957031 208.703125 145.011719 208.695312 C 145.234375 208.660156 145.460938 208.628906 145.683594 208.59375 C 145.75 208.582031 145.820312 208.570312 145.886719 208.5625 C 146.148438 208.519531 146.410156 208.476562 146.667969 208.4375 C 146.707031 208.429688 146.742188 208.425781 146.78125 208.417969 C 147.007812 208.382812 147.234375 208.34375 147.457031 208.308594 C 147.523438 208.296875 147.589844 208.285156 147.65625 208.273438 C 147.910156 208.230469 148.160156 208.191406 148.410156 208.148438 C 148.425781 208.144531 148.441406 208.140625 148.460938 208.140625 C 148.695312 208.097656 148.925781 208.058594 149.152344 208.019531 C 149.21875 208.007812 149.285156 207.996094 149.351562 207.984375 C 149.578125 207.945312 149.800781 207.902344 150.023438 207.863281 C 150.039062 207.863281 150.050781 207.859375 150.0625 207.855469 C 150.066406 207.855469 150.070312 207.855469 150.074219 207.855469 C 150.328125 207.808594 150.578125 207.761719 150.824219 207.71875 C 150.882812 207.707031 150.941406 207.699219 150.996094 207.6875 C 151.242188 207.640625 151.484375 207.597656 151.722656 207.550781 C 151.746094 207.546875 151.769531 207.542969 151.796875 207.539062 C 152.015625 207.496094 152.234375 207.453125 152.453125 207.410156 C 152.5 207.402344 152.550781 207.390625 152.601562 207.382812 C 152.832031 207.335938 153.058594 207.292969 153.28125 207.246094 C 153.320312 207.238281 153.363281 207.230469 153.402344 207.222656 C 153.601562 207.183594 153.800781 207.144531 153.996094 207.105469 C 154.035156 207.09375 154.074219 207.089844 154.113281 207.078125 C 154.328125 207.035156 154.539062 206.992188 154.75 206.949219 C 154.796875 206.9375 154.839844 206.929688 154.886719 206.917969 C 155.082031 206.878906 155.273438 206.839844 155.460938 206.800781 C 155.484375 206.792969 155.503906 206.789062 155.523438 206.785156 C 155.730469 206.742188 155.929688 206.699219 156.125 206.65625 C 156.171875 206.644531 156.214844 206.636719 156.257812 206.625 C 156.457031 206.585938 156.648438 206.539062 156.839844 206.5 C 156.851562 206.496094 156.859375 206.496094 156.871094 206.492188 C 157.050781 206.453125 157.230469 206.410156 157.40625 206.371094 C 157.445312 206.363281 157.488281 206.351562 157.53125 206.34375 C 157.707031 206.304688 157.882812 206.261719 158.054688 206.222656 C 158.082031 206.214844 158.109375 206.210938 158.136719 206.203125 C 158.292969 206.167969 158.445312 206.132812 158.59375 206.097656 C 158.625 206.089844 158.660156 206.082031 158.691406 206.074219 C 158.855469 206.039062 159.015625 206 159.171875 205.960938 C 159.203125 205.953125 159.234375 205.945312 159.265625 205.9375 C 159.40625 205.902344 159.546875 205.871094 159.683594 205.839844 C 159.703125 205.832031 159.726562 205.828125 159.746094 205.824219 C 159.894531 205.785156 160.042969 205.75 160.183594 205.714844 C 160.214844 205.707031 160.246094 205.699219 160.277344 205.691406 C 160.417969 205.65625 160.558594 205.621094 160.695312 205.585938 L 161.207031 24.027344 " fill-opacity="1" fill-rule="nonzero"/><path fill="#f9b142" d="M 262.890625 82.742188 L 262.378906 264.308594 L 160.695312 205.585938 L 161.210938 24.023438 L 262.890625 82.742188 " fill-opacity="1" fill-rule="nonzero"/><g clip-path="url(#3f794da5b7)"><path fill="#f9c166" d="M 270.074219 78.570312 L 269.5625 260.128906 L 262.375 264.308594 L 262.890625 82.746094 L 270.074219 78.570312 " fill-opacity="1" fill-rule="nonzero"/></g><g clip-path="url(#b96d4a56cd)"><path fill="#fbc977" d="M 165.859375 18.386719 L 165.328125 18.699219 C 163.542969 19.734375 161.277344 19.386719 159.886719 17.859375 C 159.730469 17.90625 144.203125 22.566406 122.347656 23.347656 C 94.253906 24.355469 69.402344 18.726562 48.425781 6.617188 C 47.597656 6.136719 46.769531 5.644531 45.953125 5.144531 L 38.566406 9.203125 C 39.433594 9.734375 40.308594 10.253906 41.191406 10.761719 C 53.519531 17.878906 67.335938 23.027344 82.300781 26.070312 C 95.160156 28.683594 108.855469 29.753906 123.007812 29.246094 C 141 28.597656 155.015625 25.585938 161.207031 24.023438 L 262.890625 82.746094 L 270.074219 78.570312 L 165.859375 18.386719 " fill-opacity="1" fill-rule="nonzero"/></g><g clip-path="url(#6ea2895f55)"><path fill="#d8e4f0" d="M 143.300781 211.542969 C 143.402344 211.535156 143.503906 211.523438 143.601562 211.511719 C 143.714844 211.5 143.824219 211.488281 143.9375 211.480469 C 144.035156 211.46875 144.128906 211.457031 144.226562 211.449219 C 144.339844 211.4375 144.449219 211.425781 144.5625 211.414062 C 144.65625 211.402344 144.753906 211.390625 144.847656 211.382812 C 144.960938 211.371094 145.070312 211.359375 145.179688 211.34375 C 145.273438 211.335938 145.371094 211.324219 145.464844 211.3125 C 145.570312 211.300781 145.671875 211.292969 145.773438 211.28125 C 145.875 211.269531 145.972656 211.257812 146.070312 211.246094 C 146.171875 211.234375 146.273438 211.222656 146.375 211.210938 C 146.46875 211.203125 146.5625 211.191406 146.65625 211.179688 C 146.757812 211.167969 146.859375 211.15625 146.957031 211.144531 C 147.050781 211.132812 147.144531 211.125 147.234375 211.113281 C 147.335938 211.101562 147.4375 211.089844 147.535156 211.078125 C 147.625 211.066406 147.714844 211.054688 147.804688 211.042969 C 147.902344 211.03125 148 211.019531 148.09375 211.011719 C 148.183594 211 148.277344 210.988281 148.367188 210.976562 C 148.460938 210.964844 148.554688 210.953125 148.648438 210.941406 C 148.734375 210.929688 148.824219 210.917969 148.914062 210.910156 C 149.007812 210.898438 149.097656 210.886719 149.1875 210.875 C 149.277344 210.863281 149.363281 210.851562 149.453125 210.84375 C 149.542969 210.828125 149.632812 210.816406 149.722656 210.804688 C 149.804688 210.796875 149.890625 210.785156 149.972656 210.773438 C 150.0625 210.761719 150.152344 210.75 150.246094 210.738281 C 150.328125 210.730469 150.410156 210.71875 150.492188 210.707031 C 150.578125 210.695312 150.660156 210.683594 150.746094 210.675781 C 150.828125 210.664062 150.914062 210.652344 150.996094 210.640625 C 151.082031 210.628906 151.164062 210.617188 151.246094 210.605469 C 151.324219 210.59375 151.40625 210.585938 151.484375 210.574219 C 151.570312 210.5625 151.652344 210.550781 151.738281 210.539062 C 151.8125 210.53125 151.886719 210.519531 151.964844 210.507812 C 152.046875 210.496094 152.128906 210.484375 152.210938 210.476562 C 152.285156 210.464844 152.363281 210.453125 152.4375 210.445312 C 152.515625 210.433594 152.589844 210.421875 152.667969 210.410156 C 152.742188 210.402344 152.820312 210.390625 152.894531 210.378906 C 152.972656 210.367188 153.046875 210.355469 153.125 210.347656 C 153.195312 210.335938 153.265625 210.324219 153.335938 210.316406 C 153.414062 210.304688 153.488281 210.292969 153.566406 210.28125 C 153.636719 210.273438 153.703125 210.261719 153.773438 210.253906 C 153.84375 210.242188 153.910156 210.230469 153.980469 210.222656 C 154.050781 210.210938 154.125 210.199219 154.195312 210.191406 C 154.261719 210.179688 154.328125 210.167969 154.394531 210.160156 C 154.464844 210.148438 154.535156 210.140625 154.601562 210.128906 C 154.667969 210.117188 154.734375 210.109375 154.804688 210.097656 C 154.867188 210.089844 154.933594 210.078125 155 210.070312 C 155.0625 210.058594 155.128906 210.050781 155.191406 210.039062 C 155.257812 210.027344 155.320312 210.019531 155.382812 210.011719 C 155.449219 210 155.511719 209.988281 155.578125 209.980469 C 155.636719 209.96875 155.695312 209.960938 155.753906 209.953125 C 155.808594 209.941406 155.863281 209.933594 155.917969 209.925781 C 155.984375 209.917969 156.054688 209.902344 156.121094 209.894531 C 156.160156 209.886719 156.195312 209.882812 156.234375 209.875 C 156.308594 209.863281 156.386719 209.851562 156.464844 209.839844 C 156.511719 209.832031 156.5625 209.824219 156.609375 209.816406 C 156.671875 209.808594 156.730469 209.796875 156.789062 209.785156 C 156.851562 209.777344 156.910156 209.769531 156.96875 209.757812 C 157.015625 209.75 157.066406 209.742188 157.113281 209.734375 C 157.148438 209.726562 157.1875 209.722656 157.226562 209.714844 C 157.390625 209.6875 157.554688 209.660156 157.710938 209.636719 L 158.207031 34.851562 C 158.109375 34.871094 158.011719 34.886719 157.914062 34.902344 C 157.886719 34.90625 157.859375 34.910156 157.832031 34.914062 C 157.757812 34.929688 157.679688 34.941406 157.601562 34.953125 C 157.585938 34.957031 157.570312 34.957031 157.554688 34.960938 C 157.464844 34.976562 157.375 34.992188 157.28125 35.003906 C 157.25 35.011719 157.21875 35.015625 157.1875 35.023438 C 157.109375 35.035156 157.03125 35.046875 156.953125 35.058594 C 156.898438 35.070312 156.839844 35.078125 156.78125 35.085938 C 156.722656 35.097656 156.667969 35.105469 156.609375 35.113281 C 156.558594 35.121094 156.503906 35.128906 156.449219 35.136719 C 156.378906 35.148438 156.3125 35.160156 156.242188 35.171875 C 156.191406 35.179688 156.144531 35.1875 156.09375 35.195312 C 156.019531 35.207031 155.949219 35.21875 155.875 35.230469 C 155.820312 35.238281 155.761719 35.246094 155.703125 35.253906 C 155.632812 35.265625 155.5625 35.277344 155.488281 35.289062 C 155.433594 35.296875 155.378906 35.304688 155.320312 35.3125 C 155.246094 35.324219 155.167969 35.335938 155.089844 35.347656 C 155.03125 35.355469 154.972656 35.367188 154.914062 35.375 C 154.839844 35.386719 154.761719 35.398438 154.6875 35.410156 C 154.621094 35.417969 154.558594 35.425781 154.492188 35.4375 C 154.417969 35.449219 154.339844 35.460938 154.261719 35.472656 C 154.199219 35.480469 154.132812 35.488281 154.070312 35.5 C 153.988281 35.511719 153.910156 35.523438 153.828125 35.535156 C 153.761719 35.542969 153.695312 35.554688 153.628906 35.5625 C 153.546875 35.574219 153.464844 35.585938 153.382812 35.597656 C 153.316406 35.609375 153.246094 35.617188 153.179688 35.628906 C 153.09375 35.640625 153.011719 35.652344 152.925781 35.664062 C 152.855469 35.671875 152.78125 35.683594 152.710938 35.691406 C 152.628906 35.703125 152.542969 35.714844 152.457031 35.726562 C 152.382812 35.738281 152.308594 35.75 152.234375 35.757812 C 152.148438 35.769531 152.0625 35.78125 151.976562 35.792969 C 151.902344 35.804688 151.824219 35.816406 151.75 35.824219 C 151.660156 35.835938 151.574219 35.847656 151.484375 35.859375 C 151.40625 35.871094 151.332031 35.878906 151.253906 35.890625 C 151.164062 35.902344 151.074219 35.914062 150.980469 35.925781 C 150.902344 35.9375 150.820312 35.949219 150.742188 35.960938 C 150.652344 35.96875 150.558594 35.980469 150.46875 35.992188 C 150.382812 36.003906 150.300781 36.015625 150.21875 36.027344 C 150.128906 36.039062 150.039062 36.050781 149.949219 36.058594 C 149.859375 36.070312 149.773438 36.082031 149.683594 36.09375 C 149.59375 36.105469 149.5 36.117188 149.40625 36.128906 C 149.320312 36.140625 149.230469 36.152344 149.144531 36.160156 C 149.050781 36.171875 148.957031 36.183594 148.859375 36.195312 C 148.773438 36.207031 148.683594 36.214844 148.59375 36.226562 C 148.496094 36.238281 148.394531 36.253906 148.292969 36.265625 C 148.207031 36.277344 148.121094 36.285156 148.035156 36.296875 C 147.933594 36.308594 147.832031 36.320312 147.730469 36.332031 C 147.636719 36.34375 147.546875 36.351562 147.453125 36.363281 C 147.355469 36.375 147.253906 36.386719 147.152344 36.398438 C 147.058594 36.410156 146.964844 36.417969 146.871094 36.429688 C 146.769531 36.441406 146.664062 36.453125 146.5625 36.464844 C 146.46875 36.476562 146.371094 36.488281 146.273438 36.5 C 146.171875 36.507812 146.066406 36.519531 145.960938 36.53125 C 145.863281 36.542969 145.765625 36.554688 145.667969 36.566406 C 145.5625 36.578125 145.457031 36.589844 145.347656 36.601562 C 145.25 36.609375 145.152344 36.621094 145.054688 36.632812 C 144.949219 36.644531 144.839844 36.652344 144.734375 36.664062 C 144.628906 36.675781 144.527344 36.6875 144.425781 36.699219 C 144.320312 36.710938 144.210938 36.71875 144.105469 36.730469 C 144 36.742188 143.898438 36.753906 143.792969 36.765625 C 143.683594 36.777344 143.570312 36.785156 143.457031 36.796875 C 143.355469 36.808594 143.253906 36.816406 143.152344 36.828125 C 143.078125 36.835938 143 36.84375 142.925781 36.851562 C 142.703125 36.871094 142.480469 36.894531 142.253906 36.917969 C 142.179688 36.921875 142.109375 36.929688 142.035156 36.9375 C 141.75 36.964844 141.464844 36.988281 141.179688 37.015625 C 141.132812 37.023438 141.089844 37.023438 141.042969 37.03125 C 140.796875 37.054688 140.546875 37.074219 140.296875 37.097656 C 140.210938 37.105469 140.125 37.113281 140.042969 37.121094 C 139.769531 37.144531 139.492188 37.167969 139.214844 37.191406 C 139.191406 37.191406 139.167969 37.195312 139.144531 37.195312 C 138.847656 37.222656 138.542969 37.246094 138.238281 37.269531 C 138.15625 37.277344 138.074219 37.285156 137.992188 37.289062 C 137.742188 37.3125 137.488281 37.332031 137.234375 37.351562 C 137.167969 37.355469 137.105469 37.359375 137.039062 37.367188 C 136.726562 37.390625 136.417969 37.410156 136.101562 37.433594 C 136.03125 37.441406 135.957031 37.445312 135.886719 37.449219 C 135.628906 37.46875 135.371094 37.488281 135.109375 37.503906 C 135.027344 37.511719 134.945312 37.515625 134.859375 37.523438 C 134.539062 37.542969 134.21875 37.566406 133.894531 37.585938 C 133.847656 37.589844 133.804688 37.59375 133.761719 37.59375 C 133.472656 37.613281 133.183594 37.632812 132.894531 37.648438 C 132.804688 37.65625 132.710938 37.660156 132.621094 37.667969 C 132.324219 37.683594 132.023438 37.699219 131.722656 37.71875 C 131.683594 37.71875 131.644531 37.722656 131.605469 37.726562 C 131.273438 37.742188 130.933594 37.761719 130.59375 37.78125 C 130.507812 37.785156 130.417969 37.789062 130.332031 37.792969 C 130.050781 37.808594 129.773438 37.820312 129.492188 37.835938 C 129.414062 37.839844 129.335938 37.839844 129.261719 37.847656 C 128.917969 37.859375 128.574219 37.878906 128.226562 37.890625 C 128.148438 37.894531 128.074219 37.898438 128 37.902344 C 127.714844 37.914062 127.429688 37.925781 127.144531 37.9375 C 127.046875 37.941406 126.949219 37.945312 126.851562 37.949219 C 126.5 37.960938 126.148438 37.972656 125.789062 37.988281 C 125.742188 37.988281 125.691406 37.992188 125.644531 37.992188 C 125.371094 38 125.09375 38.011719 124.820312 38.019531 C 124.710938 38.023438 124.605469 38.023438 124.496094 38.027344 C 124.273438 38.035156 124.050781 38.039062 123.828125 38.046875 C 123.710938 38.050781 123.59375 38.054688 123.472656 38.054688 C 123.246094 38.0625 123.015625 38.066406 122.785156 38.070312 C 122.683594 38.074219 122.578125 38.078125 122.476562 38.078125 C 122.144531 38.085938 121.8125 38.09375 121.480469 38.097656 C 121.449219 38.097656 121.417969 38.097656 121.386719 38.101562 C 121.082031 38.105469 120.777344 38.109375 120.46875 38.113281 C 120.363281 38.117188 120.253906 38.117188 120.148438 38.117188 C 119.914062 38.121094 119.679688 38.125 119.445312 38.125 C 119.324219 38.128906 119.203125 38.128906 119.082031 38.128906 C 118.84375 38.128906 118.609375 38.132812 118.371094 38.132812 C 118.261719 38.136719 118.152344 38.136719 118.046875 38.136719 C 117.703125 38.136719 117.359375 38.136719 117.011719 38.136719 C 116.035156 38.136719 115.058594 38.132812 114.089844 38.121094 C 113.769531 38.117188 113.453125 38.109375 113.136719 38.105469 C 112.484375 38.09375 111.832031 38.085938 111.183594 38.066406 C 110.453125 38.050781 109.726562 38.03125 109 38.007812 C 108.878906 38.003906 108.757812 38 108.636719 37.996094 C 107.90625 37.96875 107.179688 37.941406 106.457031 37.910156 C 106.34375 37.90625 106.230469 37.898438 106.121094 37.894531 C 105.347656 37.859375 104.578125 37.820312 103.8125 37.78125 C 103.648438 37.769531 103.484375 37.761719 103.320312 37.75 C 102.546875 37.707031 101.777344 37.660156 101.011719 37.605469 C 100.933594 37.601562 100.859375 37.59375 100.785156 37.589844 C 100.0625 37.542969 99.339844 37.488281 98.621094 37.429688 C 98.484375 37.417969 98.34375 37.410156 98.207031 37.398438 C 97.871094 37.371094 97.539062 37.339844 97.203125 37.308594 C 96.574219 37.257812 95.949219 37.203125 95.324219 37.144531 C 94.972656 37.109375 94.617188 37.074219 94.265625 37.039062 C 93.6875 36.980469 93.113281 36.917969 92.542969 36.859375 C 92.179688 36.816406 91.816406 36.777344 91.453125 36.734375 C 90.890625 36.671875 90.328125 36.605469 89.765625 36.535156 C 89.414062 36.492188 89.058594 36.449219 88.707031 36.40625 C 88.117188 36.328125 87.53125 36.25 86.945312 36.167969 C 86.628906 36.125 86.308594 36.082031 85.992188 36.039062 C 85.507812 35.96875 85.027344 35.894531 84.546875 35.820312 C 84.191406 35.769531 83.832031 35.714844 83.480469 35.660156 C 82.976562 35.582031 82.480469 35.5 81.980469 35.414062 C 81.652344 35.363281 81.320312 35.308594 80.992188 35.253906 C 80.445312 35.160156 79.898438 35.058594 79.351562 34.960938 C 79.082031 34.914062 78.808594 34.863281 78.539062 34.8125 C 77.722656 34.664062 76.914062 34.507812 76.113281 34.347656 C 75.726562 34.269531 75.34375 34.1875 74.960938 34.109375 C 74.71875 34.058594 74.472656 34.007812 74.230469 33.953125 C 74.007812 33.90625 73.785156 33.859375 73.5625 33.8125 C 73.320312 33.757812 73.074219 33.707031 72.832031 33.652344 C 72.613281 33.601562 72.394531 33.554688 72.171875 33.503906 C 71.929688 33.449219 71.691406 33.390625 71.449219 33.335938 C 71.230469 33.285156 71.011719 33.234375 70.792969 33.183594 C 70.550781 33.125 70.3125 33.070312 70.070312 33.011719 C 69.855469 32.960938 69.640625 32.90625 69.425781 32.855469 C 69.183594 32.796875 68.945312 32.734375 68.707031 32.675781 C 68.492188 32.621094 68.28125 32.570312 68.066406 32.515625 C 67.828125 32.453125 67.589844 32.390625 67.351562 32.328125 C 67.140625 32.273438 66.929688 32.21875 66.722656 32.164062 C 66.480469 32.101562 66.242188 32.035156 66.003906 31.96875 C 65.796875 31.914062 65.589844 31.859375 65.382812 31.804688 C 65.144531 31.734375 64.90625 31.667969 64.667969 31.601562 C 64.46875 31.546875 64.269531 31.488281 64.070312 31.433594 C 63.578125 31.292969 63.089844 31.152344 62.605469 31.007812 C 62.503906 30.976562 62.402344 30.945312 62.296875 30.914062 C 61.914062 30.800781 61.53125 30.683594 61.148438 30.566406 C 60.984375 30.515625 60.820312 30.460938 60.65625 30.410156 C 60.332031 30.308594 60.007812 30.207031 59.683594 30.105469 C 59.515625 30.050781 59.34375 29.992188 59.175781 29.941406 C 58.84375 29.828125 58.507812 29.71875 58.175781 29.609375 C 58.03125 29.5625 57.886719 29.511719 57.742188 29.464844 C 57.273438 29.304688 56.804688 29.144531 56.335938 28.980469 C 56.304688 28.972656 56.273438 28.957031 56.242188 28.949219 C 55.808594 28.792969 55.375 28.640625 54.945312 28.484375 C 54.796875 28.429688 54.648438 28.375 54.5 28.320312 C 54.183594 28.203125 53.867188 28.085938 53.554688 27.96875 C 53.390625 27.90625 53.226562 27.84375 53.0625 27.785156 C 52.753906 27.664062 52.445312 27.546875 52.140625 27.425781 C 52 27.371094 51.859375 27.316406 51.71875 27.261719 C 51.144531 27.035156 50.578125 26.804688 50.011719 26.574219 C 49.898438 26.523438 49.785156 26.476562 49.671875 26.433594 C 49.089844 26.191406 48.515625 25.945312 47.945312 25.699219 C 47.921875 25.6875 47.898438 25.675781 47.871094 25.667969 C 47.316406 25.425781 46.761719 25.175781 46.214844 24.929688 C 46.113281 24.882812 46.007812 24.835938 45.90625 24.789062 C 45.363281 24.539062 44.820312 24.285156 44.28125 24.027344 C 44.175781 23.980469 44.070312 23.925781 43.964844 23.875 C 43.410156 23.609375 42.859375 23.339844 42.316406 23.066406 C 42.304688 23.0625 42.292969 23.058594 42.28125 23.050781 C 41.746094 22.78125 41.210938 22.503906 40.683594 22.226562 C 40.582031 22.175781 40.484375 22.125 40.382812 22.070312 C 39.867188 21.796875 39.355469 21.523438 38.847656 21.242188 C 38.746094 21.1875 38.648438 21.132812 38.550781 21.078125 C 38.023438 20.785156 37.5 20.492188 36.984375 20.195312 C 36.34375 19.824219 35.710938 19.449219 35.085938 19.070312 L 34.589844 193.851562 C 35.214844 194.230469 35.847656 194.605469 36.488281 194.976562 C 37.003906 195.273438 37.527344 195.570312 38.054688 195.859375 C 38.152344 195.914062 38.25 195.96875 38.351562 196.023438 C 38.859375 196.304688 39.371094 196.578125 39.890625 196.851562 C 39.988281 196.90625 40.085938 196.957031 40.1875 197.007812 C 40.714844 197.285156 41.246094 197.558594 41.785156 197.832031 C 41.796875 197.835938 41.808594 197.84375 41.820312 197.847656 C 42.367188 198.121094 42.914062 198.390625 43.46875 198.65625 C 43.574219 198.710938 43.679688 198.757812 43.789062 198.808594 C 44.324219 199.066406 44.867188 199.320312 45.410156 199.570312 C 45.511719 199.617188 45.617188 199.664062 45.71875 199.710938 C 46.269531 199.960938 46.820312 200.207031 47.378906 200.449219 C 47.402344 200.460938 47.425781 200.46875 47.449219 200.480469 C 48.019531 200.726562 48.597656 200.972656 49.175781 201.210938 C 49.289062 201.257812 49.402344 201.308594 49.515625 201.355469 C 50.082031 201.585938 50.648438 201.816406 51.222656 202.042969 C 51.261719 202.058594 51.300781 202.074219 51.339844 202.089844 C 51.441406 202.128906 51.542969 202.167969 51.644531 202.207031 C 51.949219 202.328125 52.257812 202.445312 52.566406 202.5625 C 52.730469 202.625 52.894531 202.6875 53.058594 202.75 C 53.375 202.867188 53.691406 202.984375 54.007812 203.101562 C 54.152344 203.15625 54.300781 203.210938 54.449219 203.265625 C 54.878906 203.421875 55.3125 203.578125 55.75 203.730469 C 55.78125 203.738281 55.8125 203.75 55.84375 203.761719 C 56.308594 203.925781 56.777344 204.085938 57.246094 204.246094 C 57.390625 204.292969 57.539062 204.34375 57.683594 204.390625 C 58.015625 204.5 58.347656 204.613281 58.679688 204.722656 C 58.851562 204.777344 59.019531 204.828125 59.191406 204.882812 C 59.511719 204.988281 59.835938 205.089844 60.160156 205.191406 C 60.324219 205.246094 60.488281 205.296875 60.652344 205.347656 C 61.035156 205.464844 61.417969 205.582031 61.804688 205.695312 C 61.90625 205.726562 62.007812 205.757812 62.109375 205.789062 C 62.59375 205.933594 63.085938 206.074219 63.574219 206.214844 C 63.601562 206.222656 63.628906 206.230469 63.65625 206.238281 C 63.828125 206.285156 64 206.335938 64.171875 206.382812 C 64.410156 206.449219 64.648438 206.515625 64.890625 206.582031 C 65.09375 206.640625 65.304688 206.695312 65.511719 206.75 C 65.75 206.816406 65.984375 206.882812 66.226562 206.945312 C 66.433594 207 66.644531 207.054688 66.855469 207.109375 C 67.09375 207.171875 67.332031 207.234375 67.570312 207.292969 C 67.785156 207.347656 68 207.402344 68.214844 207.457031 C 68.453125 207.515625 68.691406 207.574219 68.929688 207.636719 C 69.144531 207.6875 69.363281 207.742188 69.578125 207.792969 C 69.820312 207.851562 70.058594 207.910156 70.296875 207.964844 C 70.515625 208.015625 70.734375 208.066406 70.953125 208.117188 C 71.195312 208.171875 71.433594 208.230469 71.675781 208.285156 C 71.898438 208.335938 72.121094 208.382812 72.339844 208.433594 C 72.582031 208.484375 72.824219 208.539062 73.066406 208.59375 C 73.289062 208.640625 73.511719 208.6875 73.738281 208.738281 C 73.980469 208.789062 74.222656 208.839844 74.464844 208.890625 C 74.542969 208.90625 74.621094 208.921875 74.699219 208.941406 C 75.003906 209.003906 75.308594 209.066406 75.617188 209.125 C 76.417969 209.289062 77.226562 209.445312 78.042969 209.597656 C 78.3125 209.644531 78.589844 209.695312 78.859375 209.742188 C 79.40625 209.839844 79.949219 209.941406 80.496094 210.035156 C 80.828125 210.089844 81.160156 210.144531 81.492188 210.199219 C 81.988281 210.28125 82.484375 210.363281 82.984375 210.441406 C 83.339844 210.496094 83.699219 210.550781 84.054688 210.605469 C 84.535156 210.675781 85.015625 210.75 85.496094 210.816406 C 85.578125 210.832031 85.660156 210.84375 85.738281 210.855469 C 85.976562 210.886719 86.214844 210.917969 86.453125 210.949219 C 87.039062 211.03125 87.625 211.109375 88.210938 211.1875 C 88.5625 211.230469 88.917969 211.273438 89.269531 211.316406 C 89.832031 211.386719 90.394531 211.453125 90.960938 211.515625 C 91.320312 211.558594 91.683594 211.601562 92.046875 211.640625 C 92.621094 211.699219 93.195312 211.761719 93.769531 211.820312 C 94.121094 211.855469 94.476562 211.890625 94.832031 211.921875 C 95.453125 211.984375 96.082031 212.039062 96.710938 212.09375 C 96.953125 212.113281 97.191406 212.136719 97.433594 212.15625 C 97.527344 212.164062 97.617188 212.171875 97.710938 212.179688 C 97.851562 212.191406 97.988281 212.199219 98.128906 212.210938 C 98.84375 212.265625 99.5625 212.320312 100.285156 212.371094 C 100.363281 212.375 100.441406 212.382812 100.515625 212.386719 C 101.28125 212.441406 102.050781 212.488281 102.824219 212.53125 C 102.988281 212.542969 103.152344 212.550781 103.316406 212.558594 C 104.082031 212.601562 104.851562 212.640625 105.625 212.675781 C 105.734375 212.683594 105.847656 212.6875 105.960938 212.691406 C 106.683594 212.722656 107.410156 212.75 108.140625 212.777344 C 108.261719 212.78125 108.382812 212.785156 108.503906 212.789062 C 109.121094 212.808594 109.738281 212.828125 110.355469 212.84375 C 110.464844 212.847656 110.578125 212.847656 110.6875 212.847656 C 111.335938 212.867188 111.988281 212.875 112.640625 212.886719 C 112.957031 212.890625 113.273438 212.898438 113.59375 212.902344 C 114.5625 212.914062 115.539062 212.917969 116.515625 212.917969 C 116.863281 212.917969 117.207031 212.917969 117.550781 212.917969 C 117.65625 212.917969 117.765625 212.914062 117.875 212.914062 C 118.113281 212.914062 118.351562 212.914062 118.589844 212.910156 C 118.707031 212.910156 118.828125 212.90625 118.945312 212.90625 C 119.183594 212.90625 119.414062 212.902344 119.648438 212.898438 C 119.757812 212.898438 119.867188 212.898438 119.976562 212.894531 C 120.28125 212.890625 120.585938 212.886719 120.890625 212.882812 C 120.921875 212.882812 120.953125 212.878906 120.984375 212.878906 C 121.320312 212.875 121.652344 212.867188 121.980469 212.859375 C 122.085938 212.859375 122.1875 212.855469 122.289062 212.855469 C 122.519531 212.847656 122.75 212.84375 122.980469 212.835938 C 123.097656 212.832031 123.214844 212.832031 123.332031 212.828125 C 123.558594 212.824219 123.78125 212.816406 124 212.808594 C 124.109375 212.804688 124.21875 212.800781 124.324219 212.800781 C 124.601562 212.789062 124.875 212.78125 125.148438 212.773438 C 125.191406 212.773438 125.234375 212.769531 125.277344 212.769531 C 125.28125 212.769531 125.289062 212.765625 125.296875 212.765625 C 125.652344 212.757812 126.003906 212.742188 126.355469 212.730469 C 126.457031 212.726562 126.554688 212.722656 126.652344 212.71875 C 126.933594 212.707031 127.214844 212.695312 127.496094 212.683594 C 127.574219 212.679688 127.65625 212.675781 127.734375 212.671875 C 128.078125 212.660156 128.421875 212.644531 128.765625 212.625 C 128.84375 212.621094 128.921875 212.621094 129 212.617188 C 129.277344 212.601562 129.554688 212.589844 129.828125 212.574219 C 129.921875 212.570312 130.011719 212.566406 130.101562 212.5625 C 130.441406 212.542969 130.777344 212.527344 131.113281 212.507812 C 131.152344 212.503906 131.191406 212.5 131.230469 212.5 C 131.527344 212.484375 131.828125 212.464844 132.121094 212.449219 C 132.214844 212.441406 132.308594 212.4375 132.402344 212.429688 C 132.691406 212.414062 132.980469 212.394531 133.265625 212.375 C 133.308594 212.375 133.355469 212.371094 133.398438 212.371094 C 133.722656 212.347656 134.042969 212.324219 134.363281 212.304688 C 134.449219 212.296875 134.535156 212.292969 134.617188 212.285156 C 134.878906 212.269531 135.132812 212.25 135.390625 212.234375 C 135.460938 212.226562 135.535156 212.222656 135.609375 212.21875 C 135.921875 212.195312 136.234375 212.167969 136.542969 212.148438 C 136.609375 212.140625 136.671875 212.136719 136.738281 212.132812 C 136.992188 212.113281 137.246094 212.09375 137.496094 212.074219 C 137.578125 212.066406 137.660156 212.058594 137.742188 212.050781 C 138.046875 212.027344 138.351562 212.003906 138.648438 211.976562 C 138.671875 211.976562 138.695312 211.972656 138.71875 211.972656 C 138.996094 211.949219 139.277344 211.925781 139.550781 211.902344 C 139.632812 211.894531 139.714844 211.886719 139.796875 211.878906 C 140.046875 211.855469 140.300781 211.832031 140.550781 211.8125 C 140.59375 211.808594 140.640625 211.800781 140.683594 211.796875 C 140.972656 211.773438 141.253906 211.746094 141.539062 211.71875 C 141.613281 211.710938 141.6875 211.703125 141.757812 211.695312 C 141.984375 211.675781 142.210938 211.652344 142.433594 211.632812 C 142.476562 211.628906 142.523438 211.625 142.566406 211.617188 C 142.597656 211.613281 142.625 211.613281 142.65625 211.609375 C 142.757812 211.597656 142.859375 211.589844 142.960938 211.578125 C 143.074219 211.566406 143.1875 211.554688 143.300781 211.542969 " fill-opacity="1" fill-rule="nonzero"/></g><path fill="#e9f0f7" d="M 252.359375 89.230469 L 251.867188 264.007812 L 157.710938 209.636719 L 158.203125 34.855469 L 252.359375 89.230469 " fill-opacity="1" fill-rule="nonzero"/><path fill="#aec7e6" d="M 259.015625 85.359375 L 258.519531 260.140625 L 251.867188 264.007812 L 252.363281 89.230469 L 259.015625 85.359375 " fill-opacity="1" fill-rule="nonzero"/><path fill="#c3d4e6" d="M 259.015625 85.359375 L 252.363281 89.226562 L 158.207031 34.855469 C 152.019531 35.894531 136.4375 38.136719 117.011719 38.140625 C 102.402344 38.140625 88.636719 36.863281 76.113281 34.347656 C 61.21875 31.351562 48.066406 26.59375 36.984375 20.195312 C 36.34375 19.824219 35.710938 19.453125 35.085938 19.070312 L 41.910156 15.300781 C 42.492188 15.65625 43.078125 16.003906 43.671875 16.347656 C 62.433594 27.179688 87.078125 32.671875 116.980469 32.667969 C 140.175781 32.664062 157.785156 29.203125 157.957031 29.167969 L 160.746094 28.609375 L 259.015625 85.359375 " fill-opacity="1" fill-rule="nonzero"/><path fill="#114077" d="M 178.609375 112.402344 L 178.609375 113.511719 L 167.074219 106.851562 L 167.078125 105.738281 L 178.609375 112.402344 " fill-opacity="1" fill-rule="nonzero"/><path fill="#114077" d="M 178.46875 162.105469 L 178.46875 163.214844 L 166.933594 156.554688 L 166.9375 155.441406 L 178.46875 162.105469 " fill-opacity="1" fill-rule="nonzero"/><path fill="#114077" d="M 200.816406 195.226562 L 200.8125 196.339844 L 166.875 176.742188 L 166.878906 175.628906 L 200.816406 195.226562 " fill-opacity="1" fill-rule="nonzero"/><path fill="#114077" d="M 206.632812 202.316406 L 206.628906 203.429688 L 166.863281 180.46875 L 166.867188 179.355469 L 206.632812 202.316406 " fill-opacity="1" fill-rule="nonzero"/><path fill="#114077" d="M 185.992188 162.714844 L 185.988281 163.828125 L 166.945312 152.828125 L 166.945312 151.714844 L 185.992188 162.714844 " fill-opacity="1" fill-rule="nonzero"/><path fill="#114077" d="M 191.382812 169.558594 L 191.378906 170.671875 L 179.84375 164.011719 L 179.847656 162.898438 L 191.382812 169.558594 " fill-opacity="1" fill-rule="nonzero"/><path fill="#114077" d="M 207.789062 195.519531 L 207.785156 196.632812 L 174.640625 177.492188 L 174.644531 176.378906 L 207.789062 195.519531 " fill-opacity="1" fill-rule="nonzero"/><path fill="#114077" d="M 186.011719 155.261719 L 186.011719 156.371094 L 166.964844 145.375 L 166.96875 144.261719 L 186.011719 155.261719 " fill-opacity="1" fill-rule="nonzero"/><path fill="#114077" d="M 195.660156 164.5625 L 195.65625 165.675781 L 166.953125 149.101562 L 166.957031 147.988281 L 195.660156 164.5625 " fill-opacity="1" fill-rule="nonzero"/><path fill="#114077" d="M 226.542969 217.550781 L 226.539062 218.664062 L 222.96875 216.597656 L 202.167969 204.589844 L 200.792969 203.792969 L 192.636719 199.082031 L 166.855469 184.195312 L 166.859375 183.082031 L 192.636719 197.96875 L 200.792969 202.679688 L 202.171875 203.476562 L 222.972656 215.484375 L 226.542969 217.550781 " fill-opacity="1" fill-rule="nonzero"/><path fill="#114077" d="M 206.6875 182.132812 L 206.6875 183.246094 L 192.703125 175.171875 L 166.921875 160.28125 L 166.925781 159.171875 L 206.6875 182.132812 " fill-opacity="1" fill-rule="nonzero"/><path fill="#114077" d="M 181.785156 136.636719 L 181.78125 137.75 L 167.011719 129.21875 L 167.011719 128.105469 L 181.785156 136.636719 " fill-opacity="1" fill-rule="nonzero"/><path fill="#114077" d="M 218.910156 192.921875 L 218.90625 194.035156 L 166.910156 164.011719 L 166.914062 162.898438 L 218.910156 192.921875 " fill-opacity="1" fill-rule="nonzero"/><path fill="#114077" d="M 198.855469 155.207031 L 198.851562 156.320312 L 174.742188 142.398438 L 174.742188 141.285156 L 198.855469 155.207031 " fill-opacity="1" fill-rule="nonzero"/><path fill="#114077" d="M 208.066406 182.925781 L 208.0625 184.042969 L 223.035156 192.6875 L 192.703125 175.171875 L 206.6875 183.246094 L 206.6875 182.132812 L 208.066406 182.925781 " fill-opacity="1" fill-rule="nonzero"/><path fill="#114077" d="M 215.664062 179.847656 L 215.660156 180.960938 L 187.363281 164.621094 L 187.367188 163.507812 L 215.664062 179.847656 " fill-opacity="1" fill-rule="nonzero"/><path fill="#114077" d="M 206.742188 163.496094 L 206.738281 164.609375 L 166.976562 141.648438 L 166.976562 140.535156 L 206.742188 163.496094 " fill-opacity="1" fill-rule="nonzero"/><path fill="#114077" d="M 243.398438 223.550781 L 243.394531 224.664062 L 208.007812 204.226562 L 208.007812 203.113281 L 243.398438 223.550781 " fill-opacity="1" fill-rule="nonzero"/><path fill="#114077" d="M 223.046875 187.847656 L 223.046875 188.960938 L 192.714844 171.445312 L 192.714844 170.328125 L 223.046875 187.847656 " fill-opacity="1" fill-rule="nonzero"/><path fill="#114077" d="M 191.492188 131.039062 L 191.488281 132.152344 L 167.042969 118.035156 L 167.046875 116.921875 L 191.492188 131.039062 " fill-opacity="1" fill-rule="nonzero"/><path fill="#114077" d="M 215.683594 172.394531 L 215.679688 173.507812 L 187.386719 157.167969 L 187.390625 156.054688 L 215.683594 172.394531 " fill-opacity="1" fill-rule="nonzero"/><path fill="#114077" d="M 243.410156 219.824219 L 243.40625 220.933594 L 202.191406 197.132812 L 202.195312 196.023438 L 243.410156 219.824219 " fill-opacity="1" fill-rule="nonzero"/><path fill="#114077" d="M 195.738281 137.222656 L 195.734375 138.339844 L 167.03125 121.765625 L 167.035156 120.648438 L 195.738281 137.222656 " fill-opacity="1" fill-rule="nonzero"/><path fill="#114077" d="M 186.113281 120.464844 L 186.109375 121.578125 L 167.0625 110.578125 L 167.066406 109.46875 L 186.113281 120.464844 " fill-opacity="1" fill-rule="nonzero"/><path fill="#114077" d="M 206.789062 147.339844 L 206.785156 148.453125 L 167.019531 125.492188 L 167.023438 124.378906 L 206.789062 147.339844 " fill-opacity="1" fill-rule="nonzero"/><path fill="#114077" d="M 200.992188 132.792969 L 200.988281 133.90625 L 167.050781 114.308594 L 167.054688 113.195312 L 200.992188 132.792969 " fill-opacity="1" fill-rule="nonzero"/><path fill="#114077" d="M 243.457031 203.363281 L 243.453125 204.476562 L 223.035156 192.6875 L 208.0625 184.042969 L 208.066406 182.925781 L 243.457031 203.363281 " fill-opacity="1" fill-rule="nonzero"/><path fill="#114077" d="M 236.765625 188.300781 L 236.761719 189.414062 L 197.035156 166.472656 L 197.039062 165.359375 L 236.765625 188.300781 " fill-opacity="1" fill-rule="nonzero"/><path fill="#114077" d="M 243.464844 199.636719 L 243.464844 200.75 L 224.421875 189.757812 L 224.425781 188.644531 L 243.464844 199.636719 " fill-opacity="1" fill-rule="nonzero"/><path fill="#114077" d="M 243.476562 195.910156 L 243.472656 197.023438 L 217.035156 181.757812 L 217.039062 180.644531 L 243.476562 195.910156 " fill-opacity="1" fill-rule="nonzero"/><path fill="#114077" d="M 222.9375 160.398438 L 222.933594 161.511719 L 183.160156 138.542969 L 183.164062 137.429688 L 222.9375 160.398438 " fill-opacity="1" fill-rule="nonzero"/><path fill="#114077" d="M 243.488281 192.183594 L 243.484375 193.296875 L 238.136719 190.210938 L 238.140625 189.097656 L 243.488281 192.183594 " fill-opacity="1" fill-rule="nonzero"/><path fill="#114077" d="M 243.496094 188.457031 L 243.496094 189.570312 L 217.054688 174.300781 L 217.058594 173.1875 L 243.496094 188.457031 " fill-opacity="1" fill-rule="nonzero"/><path fill="#114077" d="M 215.785156 137.597656 L 215.777344 138.714844 L 187.484375 122.375 L 187.488281 121.261719 L 215.785156 137.597656 " fill-opacity="1" fill-rule="nonzero"/><path fill="#114077" d="M 243.507812 184.730469 L 243.503906 185.839844 L 208.117188 165.40625 L 208.121094 164.292969 L 243.507812 184.730469 " fill-opacity="1" fill-rule="nonzero"/><path fill="#114077" d="M 223.160156 149.324219 L 223.152344 150.4375 L 192.824219 132.921875 L 192.824219 131.808594 L 223.160156 149.324219 " fill-opacity="1" fill-rule="nonzero"/><path fill="#114077" d="M 243.519531 181.003906 L 243.515625 182.113281 L 200.226562 157.117188 L 200.230469 156.003906 L 243.519531 181.003906 " fill-opacity="1" fill-rule="nonzero"/><path fill="#114077" d="M 223.191406 138.144531 L 223.1875 139.257812 L 192.855469 121.742188 L 192.855469 120.625 L 223.191406 138.144531 " fill-opacity="1" fill-rule="nonzero"/><path fill="#114077" d="M 236.84375 160.960938 L 236.839844 162.078125 L 197.113281 139.136719 L 197.117188 138.019531 L 236.84375 160.960938 " fill-opacity="1" fill-rule="nonzero"/><path fill="#114077" d="M 243.554688 168.574219 L 243.550781 169.6875 L 208.164062 149.25 L 208.164062 148.136719 L 243.554688 168.574219 " fill-opacity="1" fill-rule="nonzero"/><path fill="#114077" d="M 243.566406 164.84375 L 243.558594 165.957031 L 238.214844 162.871094 L 238.21875 161.753906 L 243.566406 164.84375 " fill-opacity="1" fill-rule="nonzero"/><path fill="#114077" d="M 243.574219 161.117188 L 243.570312 162.230469 L 224.53125 151.234375 L 224.535156 150.121094 L 243.574219 161.117188 " fill-opacity="1" fill-rule="nonzero"/><path fill="#114077" d="M 243.585938 157.390625 L 243.582031 158.503906 L 202.367188 134.703125 L 202.371094 133.585938 L 243.585938 157.390625 " fill-opacity="1" fill-rule="nonzero"/><path fill="#114077" d="M 243.597656 153.660156 L 243.59375 154.777344 L 217.15625 139.507812 L 217.15625 138.394531 L 243.597656 153.660156 " fill-opacity="1" fill-rule="nonzero"/><path fill="#114077" d="M 191.523438 119.855469 L 191.519531 120.972656 L 179.984375 114.308594 L 179.988281 113.195312 L 191.523438 119.855469 " fill-opacity="1" fill-rule="nonzero"/><path fill="#114077" d="M 207.984375 125.632812 L 207.984375 126.742188 L 174.839844 107.605469 L 174.84375 106.492188 L 207.984375 125.632812 " fill-opacity="1" fill-rule="nonzero"/><path fill="#114077" d="M 243.605469 149.933594 L 243.601562 151.046875 L 224.5625 140.054688 L 224.566406 138.941406 L 243.605469 149.933594 " fill-opacity="1" fill-rule="nonzero"/><path fill="#114077" d="M 243.617188 146.207031 L 243.613281 147.320312 L 209.359375 127.539062 L 209.359375 126.425781 L 243.617188 146.207031 " fill-opacity="1" fill-rule="nonzero"/><path fill="#114077" d="M 243.417969 216.09375 L 243.414062 217.207031 L 209.160156 197.425781 L 209.164062 196.3125 L 243.417969 216.09375 " fill-opacity="1" fill-rule="nonzero"/><path fill="#114077" d="M 176.695312 86.058594 L 176.664062 97.167969 L 175.007812 96.210938 L 175.03125 88.324219 L 173.230469 93.945312 L 171.621094 93.015625 L 169.855469 85.484375 L 169.835938 93.226562 L 168.179688 92.269531 L 168.210938 81.15625 L 170.609375 82.542969 L 172.433594 91.097656 L 174.292969 84.671875 L 176.695312 86.058594 " fill-opacity="1" fill-rule="nonzero"/><path fill="#ff8666" d="M 176.640625 67.910156 L 176.617188 76.285156 C 176.613281 77.3125 176.445312 78.097656 176.117188 78.640625 C 175.789062 79.183594 175.308594 79.464844 174.683594 79.488281 C 174.058594 79.507812 173.304688 79.265625 172.425781 78.753906 C 171.542969 78.25 170.792969 77.625 170.171875 76.882812 C 169.550781 76.140625 169.078125 75.308594 168.753906 74.390625 C 168.429688 73.46875 168.273438 72.496094 168.277344 71.46875 L 168.300781 63.09375 L 170.449219 64.335938 L 170.425781 72.777344 C 170.425781 73.527344 170.597656 74.210938 170.949219 74.828125 C 171.296875 75.445312 171.792969 75.9375 172.429688 76.308594 C 173.074219 76.679688 173.574219 76.761719 173.929688 76.550781 C 174.285156 76.339844 174.460938 75.859375 174.464844 75.105469 L 174.488281 66.664062 L 176.640625 67.910156 " fill-opacity="1" fill-rule="nonzero"/><path fill="#114077" d="M 180.859375 95.785156 L 183.167969 97.121094 L 182.023438 92.664062 Z M 182.613281 89.472656 L 186.277344 102.722656 L 184.316406 101.589844 L 183.777344 99.496094 L 180.238281 97.449219 L 179.691406 98.914062 L 177.726562 97.78125 L 181.453125 88.804688 L 182.613281 89.472656 " fill-opacity="1" fill-rule="nonzero"/><path fill="#ff8666" d="M 182.726562 71.285156 C 183.136719 71.523438 183.554688 71.820312 183.980469 72.171875 C 184.40625 72.527344 184.824219 72.925781 185.230469 73.367188 C 185.640625 73.808594 186.027344 74.277344 186.390625 74.777344 L 185.472656 76.347656 C 185.039062 75.742188 184.578125 75.207031 184.101562 74.738281 C 183.621094 74.265625 183.160156 73.90625 182.71875 73.652344 C 182.0625 73.273438 181.550781 73.105469 181.1875 73.144531 C 180.824219 73.183594 180.644531 73.429688 180.644531 73.878906 C 180.640625 74.269531 180.734375 74.625 180.925781 74.953125 C 181.113281 75.28125 181.34375 75.574219 181.621094 75.839844 C 181.898438 76.101562 182.289062 76.4375 182.789062 76.839844 C 182.8125 76.859375 182.832031 76.875 182.851562 76.890625 C 182.875 76.90625 182.894531 76.921875 182.914062 76.941406 C 182.949219 76.964844 182.976562 76.988281 183.007812 77.015625 C 183.035156 77.039062 183.0625 77.0625 183.097656 77.089844 C 183.820312 77.667969 184.421875 78.214844 184.90625 78.726562 C 185.386719 79.238281 185.792969 79.84375 186.113281 80.546875 C 186.4375 81.25 186.597656 82.046875 186.597656 82.9375 C 186.59375 83.789062 186.421875 84.40625 186.082031 84.808594 C 185.738281 85.207031 185.242188 85.375 184.585938 85.308594 C 183.933594 85.246094 183.152344 84.953125 182.234375 84.421875 C 181.691406 84.105469 181.15625 83.734375 180.636719 83.308594 C 180.113281 82.882812 179.625 82.414062 179.167969 81.90625 C 178.710938 81.398438 178.304688 80.867188 177.941406 80.3125 L 178.945312 78.851562 C 179.382812 79.519531 179.890625 80.136719 180.464844 80.691406 C 181.042969 81.253906 181.632812 81.707031 182.242188 82.054688 C 182.941406 82.460938 183.484375 82.640625 183.875 82.589844 C 184.265625 82.539062 184.460938 82.265625 184.460938 81.765625 C 184.460938 81.40625 184.375 81.078125 184.203125 80.773438 C 184.03125 80.46875 183.808594 80.191406 183.527344 79.933594 C 183.25 79.675781 182.894531 79.382812 182.460938 79.054688 L 182.417969 79.019531 L 182.203125 78.863281 C 181.4375 78.28125 180.804688 77.742188 180.300781 77.242188 C 179.800781 76.746094 179.375 76.136719 179.027344 75.410156 C 178.675781 74.6875 178.503906 73.847656 178.507812 72.890625 C 178.507812 72.035156 178.675781 71.40625 179.007812 70.992188 C 179.339844 70.582031 179.820312 70.398438 180.449219 70.445312 C 181.078125 70.496094 181.835938 70.773438 182.726562 71.285156 " fill-opacity="1" fill-rule="nonzero"/><path fill="#ff8666" d="M 196.078125 79.132812 L 196.074219 81.515625 L 190.574219 78.34375 L 190.566406 81.375 L 195.199219 84.050781 L 195.195312 86.4375 L 190.558594 83.761719 L 190.550781 86.699219 L 196.050781 89.875 L 196.042969 92.257812 L 189.167969 88.289062 L 188.390625 87.839844 L 188.429688 74.714844 L 190.582031 75.960938 L 196.078125 79.132812 " fill-opacity="1" fill-rule="nonzero"/><path fill="#114077" d="M 203.96875 101.808594 L 203.949219 108.902344 C 203.949219 109.773438 203.804688 110.433594 203.527344 110.894531 C 203.25 111.355469 202.84375 111.59375 202.3125 111.609375 C 201.785156 111.628906 201.144531 111.421875 200.402344 110.992188 C 199.65625 110.5625 199.019531 110.03125 198.492188 109.402344 C 197.96875 108.777344 197.566406 108.074219 197.292969 107.296875 C 197.023438 106.519531 196.886719 105.695312 196.886719 104.820312 L 196.90625 97.730469 L 198.730469 98.78125 L 198.710938 105.929688 C 198.707031 106.5625 198.855469 107.144531 199.148438 107.667969 C 199.445312 108.191406 199.867188 108.609375 200.40625 108.921875 C 200.949219 109.234375 201.375 109.304688 201.675781 109.125 C 201.972656 108.945312 202.125 108.539062 202.128906 107.902344 L 202.148438 100.757812 L 203.96875 101.808594 " fill-opacity="1" fill-rule="nonzero"/><path fill="#ff8666" d="M 203.441406 88.667969 C 203.609375 88.636719 203.738281 88.53125 203.828125 88.347656 C 203.921875 88.167969 203.972656 87.921875 203.976562 87.621094 C 203.976562 87.3125 203.933594 87.015625 203.84375 86.726562 C 203.75 86.441406 203.621094 86.183594 203.453125 85.960938 C 203.289062 85.738281 203.089844 85.5625 202.867188 85.429688 L 200.1875 83.882812 L 200.179688 86.972656 L 202.855469 88.519531 C 203.078125 88.644531 203.269531 88.695312 203.441406 88.667969 Z M 203.929688 91.394531 L 206.644531 98.382812 L 204.039062 96.878906 L 201.476562 90.109375 L 200.171875 89.355469 L 200.15625 94.636719 L 198.003906 93.394531 L 198.042969 80.257812 L 200.195312 81.5 L 203.046875 83.148438 C 203.675781 83.511719 204.226562 83.992188 204.703125 84.59375 C 205.179688 85.195312 205.542969 85.863281 205.804688 86.609375 C 206.066406 87.351562 206.195312 88.117188 206.191406 88.898438 C 206.191406 89.679688 206.058594 90.292969 205.792969 90.734375 C 205.53125 91.175781 205.15625 91.421875 204.679688 91.46875 C 204.445312 91.492188 204.199219 91.46875 203.929688 91.394531 " fill-opacity="1" fill-rule="nonzero"/><path fill="#114077" d="M 194.914062 96.578125 L 194.882812 107.683594 L 192.640625 106.390625 L 189.242188 96.398438 L 189.21875 104.410156 L 187.476562 103.40625 L 187.507812 92.300781 L 189.734375 93.585938 L 193.148438 103.710938 L 193.171875 95.570312 L 194.914062 96.578125 " fill-opacity="1" fill-rule="nonzero"/><path fill="#114077" d="M 207.734375 111.308594 L 210.042969 112.640625 L 208.902344 108.183594 Z M 209.488281 104.996094 L 213.152344 118.238281 L 211.191406 117.105469 L 210.652344 115.011719 L 207.113281 112.96875 L 206.566406 114.4375 L 204.601562 113.304688 L 208.332031 104.328125 L 209.488281 104.996094 " fill-opacity="1" fill-rule="nonzero"/><path fill="#114077" d="M 216.203125 108.871094 L 216.175781 117.964844 L 220.832031 120.65625 L 220.828125 122.671875 L 215.164062 119.398438 L 214.351562 118.933594 L 214.382812 107.820312 L 216.203125 108.871094 " fill-opacity="1" fill-rule="nonzero"/><path fill="#0f3f75" d="M 121.003906 140.78125 C 120.414062 140.386719 106.703125 131.570312 104.214844 129.011719 C 102.410156 127.15625 100.703125 125.652344 100.320312 122.285156 C 99.9375 118.921875 103.742188 116.59375 108.898438 119.375 C 112.53125 121.335938 117.046875 126.855469 118.601562 128.769531 C 119.6875 130.109375 121.277344 131.675781 122.746094 132.964844 C 122.773438 132.992188 122.792969 133.003906 122.792969 133.003906 C 123.410156 133.546875 124 134.035156 124.527344 134.4375 C 125.832031 135.4375 121.589844 141.171875 121.003906 140.78125 " fill-opacity="1" fill-rule="nonzero"/><path fill="#ffc5b3" d="M 132.753906 141.066406 L 132.269531 142.019531 L 129.609375 147.289062 L 129.195312 148.101562 C 129.195312 148.101562 127.367188 146.738281 125.800781 145.457031 L 125.800781 145.453125 C 125.511719 145.21875 125.230469 144.984375 124.972656 144.761719 C 124.875 144.675781 124.78125 144.59375 124.691406 144.511719 C 124.53125 144.375 124.382812 144.238281 124.253906 144.113281 C 124.210938 144.070312 124.167969 144.03125 124.128906 143.992188 C 124.058594 143.925781 123.996094 143.859375 123.9375 143.800781 C 122.722656 142.503906 122.296875 141.261719 122.296875 141.261719 C 122.296875 141.261719 121.472656 140.617188 120.871094 140.207031 C 120.871094 140.207031 120.871094 140.207031 120.867188 140.207031 C 120.855469 140.160156 120.839844 140.113281 120.832031 140.066406 C 120.808594 139.949219 120.796875 139.824219 120.796875 139.695312 C 120.820312 137.703125 123.726562 134.367188 124.886719 135.382812 C 125.890625 136.261719 125.445312 135.796875 125.417969 135.765625 C 125.472656 135.785156 127.304688 136.457031 128.914062 137.582031 C 130.546875 138.71875 132.753906 141.066406 132.753906 141.066406 " fill-opacity="1" fill-rule="nonzero"/><path fill="#f2a29b" d="M 132.269531 142.019531 L 129.609375 147.289062 L 129.195312 148.101562 C 129.195312 148.101562 127.367188 146.738281 125.800781 145.457031 L 125.800781 145.453125 C 125.511719 145.21875 125.230469 144.984375 124.972656 144.761719 C 124.875 144.675781 124.78125 144.59375 124.691406 144.511719 C 124.53125 144.375 124.382812 144.238281 124.253906 144.113281 C 124.210938 144.070312 124.167969 144.03125 124.128906 143.992188 C 124.058594 143.925781 123.996094 143.859375 123.9375 143.800781 C 122.722656 142.503906 122.296875 141.261719 122.296875 141.261719 C 122.296875 141.261719 121.472656 140.617188 120.871094 140.207031 C 120.871094 140.207031 120.871094 140.207031 120.867188 140.207031 C 120.855469 140.160156 120.839844 140.113281 120.832031 140.066406 C 120.808594 139.949219 120.796875 139.824219 120.796875 139.695312 C 121.972656 140.523438 122.296875 140.742188 122.296875 140.742188 C 122.296875 140.742188 122.410156 140.414062 122.871094 140.054688 L 123.769531 139.148438 C 123.769531 139.148438 126.007812 137.253906 128.210938 139.371094 C 129.757812 140.851562 131.414062 141.664062 132.269531 142.019531 " fill-opacity="1" fill-rule="nonzero"/><path fill="#f2a29b" d="M 130.3125 146.339844 C 130.3125 146.339844 130.671875 147.980469 130.753906 148.347656 C 130.902344 148.992188 130.53125 149.75 129.972656 149.851562 C 129.566406 149.929688 128.925781 149.988281 128.464844 149.992188 C 128.109375 149.996094 126.691406 150.03125 126.441406 149.984375 C 126.195312 149.9375 126.433594 149.035156 126.996094 148.703125 C 127.636719 148.328125 128.179688 148.511719 128.179688 148.511719 L 129.023438 148.296875 C 129.023438 148.296875 128.796875 147.8125 128.566406 147.148438 C 128.226562 146.164062 130.023438 145.632812 130.3125 146.339844 " fill-opacity="1" fill-rule="nonzero"/><path fill="#f2a29b" d="M 131.441406 144.507812 C 131.441406 144.507812 132.367188 146.484375 132.535156 146.875 C 132.828125 147.558594 132.503906 148.445312 131.90625 148.675781 C 131.472656 148.84375 130.671875 149.222656 130.277344 149.257812 C 129.878906 149.292969 127.957031 149.152344 127.671875 149.152344 C 127.386719 149.152344 127.433594 148.246094 128.058594 147.859375 C 128.859375 147.359375 129.707031 147.589844 129.707031 147.589844 L 130.601562 147.179688 C 130.601562 147.179688 130.171875 146.546875 129.777344 145.855469 C 129.199219 144.835938 130.980469 143.785156 131.441406 144.507812 " fill-opacity="1" fill-rule="nonzero"/><path fill="#fab2a5" d="M 131.988281 142.449219 C 131.988281 142.449219 133.152344 144.855469 133.320312 145.246094 C 133.613281 145.933594 133.355469 146.492188 132.964844 146.753906 C 132.578125 147.011719 131.011719 147.644531 131.011719 147.644531 C 131.011719 147.644531 128.117188 147.484375 127.832031 147.484375 C 127.546875 147.484375 127.609375 146.289062 128.308594 146.070312 C 129.007812 145.851562 130.332031 145.878906 130.332031 145.878906 L 131.300781 145.429688 C 131.300781 145.429688 130.882812 144.632812 130.296875 144.007812 C 129.355469 143.003906 131.523438 141.730469 131.988281 142.449219 " fill-opacity="1" fill-rule="nonzero"/><path fill="#ffc5b3" d="M 132.796875 141.136719 C 132.796875 141.136719 133.523438 142.945312 133.613281 143.359375 C 133.703125 143.773438 133.742188 144.265625 133.355469 144.523438 C 132.964844 144.785156 131.695312 145.394531 131.695312 145.394531 C 131.695312 145.394531 129.371094 145.394531 129.085938 145.394531 C 128.800781 145.394531 128.859375 144.199219 129.558594 143.980469 C 130.257812 143.761719 130.984375 143.773438 130.984375 143.773438 L 131.324219 143.378906 C 131.324219 143.378906 130.957031 142.738281 130.707031 142.324219 C 130.277344 141.609375 132.480469 140.425781 132.796875 141.136719 " fill-opacity="1" fill-rule="nonzero"/><path fill="#ffc5b3" d="M 128.667969 139.304688 L 128.742188 140.625 C 128.742188 140.625 128.660156 142.8125 128.632812 143.410156 C 128.605469 144.011719 126.910156 143.917969 126.875 142.761719 C 126.839844 141.605469 126.648438 140.671875 126.648438 140.671875 C 126.648438 140.671875 124.835938 141.378906 123.769531 139.148438 C 123.769531 139.144531 123.765625 139.144531 123.765625 139.140625 C 122.9375 137.390625 124.285156 135.914062 125.414062 135.765625 C 126.203125 135.664062 126.964844 135.84375 128.351562 137.019531 C 128.78125 137.386719 128.667969 139.304688 128.667969 139.304688 " fill-opacity="1" fill-rule="nonzero"/><path fill="#f2a29b" d="M 126.648438 140.671875 C 126.648438 140.671875 124.835938 141.378906 123.769531 139.148438 C 123.769531 139.144531 123.765625 139.144531 123.765625 139.140625 C 125.191406 140.300781 125.699219 138.796875 125.699219 138.796875 C 125.882812 138.953125 126.648438 140.671875 126.648438 140.671875 " fill-opacity="1" fill-rule="nonzero"/><path fill="#07244d" d="M 85.183594 250.910156 C 85.183594 250.910156 85.085938 259.65625 84.496094 261.792969 C 83.90625 263.929688 83.0625 265.308594 83.023438 267.546875 C 82.984375 269.789062 83.789062 270.933594 85.359375 271.484375 C 86.929688 272.035156 88.835938 271.753906 91.273438 269.707031 C 93.707031 267.664062 94.964844 266.957031 96.890625 266.566406 C 98.8125 266.171875 101.597656 266.1875 105.253906 263.992188 C 107.808594 262.460938 110.96875 260.148438 110.007812 258.199219 C 109.367188 256.902344 105.273438 255.566406 101.757812 256.234375 C 100.207031 256.527344 97.046875 257.316406 95.78125 257.214844 C 94.292969 257.097656 93.488281 256.644531 93.488281 256.644531 C 93.535156 255.3125 93.902344 251.824219 93.902344 249.9375 C 93.902344 248.050781 85.183594 247.875 85.183594 250.910156 " fill-opacity="1" fill-rule="nonzero"/><path fill="#0c325d" d="M 91.820312 153.691406 C 91.820312 153.691406 89.898438 157.226562 89.859375 161 C 89.820312 164.769531 91.625 168.972656 91.507812 170.390625 C 91.390625 171.800781 90.054688 204.175781 88.875 208.339844 C 87.699219 212.503906 83.769531 220.207031 83.769531 227.671875 C 83.769531 235.136719 84.242188 255.878906 84.242188 259.964844 C 84.242188 263.109375 93.824219 262.507812 93.824219 259.246094 C 93.824219 253.667969 95.867188 241.816406 97.4375 233.171875 C 99.011719 224.527344 100.894531 214.785156 105.453125 206.0625 C 110.007812 197.339844 114.054688 174.710938 114.054688 157.265625 C 114.054688 139.820312 96.222656 140.566406 91.820312 153.691406 " fill-opacity="1" fill-rule="nonzero"/><path fill="#f2a29b" d="M 118.535156 99.414062 L 116.105469 97.835938 L 115.148438 97.914062 C 115.148438 97.914062 115.261719 98.953125 114.441406 99.296875 C 113.625 99.640625 113.265625 99.226562 113.265625 99.226562 C 113.265625 99.226562 113.351562 96.816406 113.371094 96.464844 C 113.414062 95.84375 113.980469 95.5 114.5 95.429688 C 115.019531 95.363281 116.375 95.246094 116.765625 95.34375 C 117.15625 95.4375 119.378906 96.648438 119.96875 97.042969 C 120.558594 97.4375 119.332031 99.929688 118.535156 99.414062 " fill-opacity="1" fill-rule="nonzero"/><path fill="#f2a29b" d="M 121.113281 95.089844 C 121.113281 95.089844 117.777344 92.90625 117.332031 92.792969 C 116.882812 92.675781 113.949219 93.757812 113.828125 93.902344 C 113.703125 94.042969 113.398438 94.210938 113.316406 94.667969 C 113.238281 95.125 113.027344 97.128906 113.027344 97.128906 C 113.027344 97.128906 113.949219 97.5625 114.460938 96.988281 C 114.972656 96.417969 115.28125 95.855469 115.28125 95.855469 L 116.742188 95.386719 C 116.742188 95.386719 119.449219 97.765625 119.757812 98.003906 C 120.5 98.566406 122.304688 95.855469 121.113281 95.089844 " fill-opacity="1" fill-rule="nonzero"/><path fill="#f2a29b" d="M 120.242188 95.636719 L 117.734375 92.5625 C 117.734375 92.5625 115.820312 92.496094 115.136719 92.40625 C 115.136719 92.40625 114.488281 92.863281 113.378906 92.773438 C 112.269531 92.6875 111.980469 91.957031 111.945312 91.691406 C 111.945312 91.691406 114.902344 90.257812 115.269531 90.175781 C 115.640625 90.097656 119.109375 90.386719 119.320312 90.410156 C 119.53125 90.4375 122.601562 94.027344 122.765625 94.265625 C 123.195312 94.910156 121.394531 97.046875 120.242188 95.636719 " fill-opacity="1" fill-rule="nonzero"/><path fill="#f2a29b" d="M 121.429688 94.285156 C 121.429688 94.285156 120.015625 91.726562 119.644531 90.953125 C 119.644531 90.953125 118.050781 90.214844 117.195312 89.59375 C 117.195312 89.59375 116.082031 89.429688 115.175781 88.363281 C 114.089844 87.089844 115.265625 86.410156 115.265625 86.410156 C 115.265625 86.410156 118.050781 87.46875 118.316406 87.597656 C 118.578125 87.730469 121.191406 89.144531 121.496094 89.472656 C 121.800781 89.804688 123.980469 92.941406 124.128906 93.234375 C 124.273438 93.527344 122.320312 96.242188 121.429688 94.285156 " fill-opacity="1" fill-rule="nonzero"/><path fill="#f2a29b" d="M 118.472656 98.980469 C 118.472656 98.074219 119.1875 97.054688 120.464844 95.339844 C 121.589844 93.828125 123.773438 92.355469 124.203125 93.363281 C 124.496094 94.054688 125.890625 97.027344 126.722656 98.851562 C 127.917969 101.476562 127.132812 103.445312 127.265625 104.792969 C 127.398438 106.140625 128.375 107.703125 128.523438 108.09375 C 128.878906 109.03125 124.378906 111.644531 123.878906 110.128906 C 123.433594 108.785156 123.136719 107.566406 123.136719 107.566406 C 123.136719 107.566406 121.617188 107.375 120.875 105.6875 C 120.136719 103.996094 118.472656 99.886719 118.472656 98.980469 " fill-opacity="1" fill-rule="nonzero"/><path fill="#ffc5b3" d="M 123.59375 106.476562 C 123.59375 106.476562 121.878906 105.460938 121.957031 101.8125 C 122.039062 98.160156 123.507812 96.109375 123.507812 96.109375 L 123.726562 93.503906 C 123.726562 93.503906 123.71875 90.707031 124.738281 90.117188 C 125.761719 89.527344 126.570312 90.257812 126.570312 90.257812 L 126.15625 93.199219 C 126.15625 93.199219 126.355469 95.335938 126.355469 96.023438 C 126.355469 96.710938 127.632812 99.746094 127.609375 101.621094 C 127.582031 103.496094 127.414062 104.433594 126.386719 105.828125 C 125.53125 106.988281 124.273438 107.175781 123.59375 106.476562 " fill-opacity="1" fill-rule="nonzero"/><path fill="#0c3461" d="M 122.96875 108.46875 C 123.351562 109.75 128.234375 128.429688 129.253906 132.199219 C 130.277344 135.972656 134.046875 142.296875 137.464844 141.472656 C 140.882812 140.644531 141.039062 137.109375 140.253906 135.578125 C 139.46875 134.046875 129.097656 108.195312 128.3125 106.425781 C 127.527344 104.660156 122.5 106.886719 122.96875 108.46875 " fill-opacity="1" fill-rule="nonzero"/><g clip-path="url(#dcbc6623c3)"><path fill="#07244d" d="M 108.082031 269.789062 C 108.082031 269.789062 108.363281 272.546875 108.082031 273.519531 C 107.804688 274.492188 106.550781 279.097656 106.472656 280.789062 C 106.394531 282.476562 106.394531 286.054688 110.183594 286.289062 C 113.976562 286.523438 116.960938 285.464844 119.710938 285.660156 C 122.460938 285.855469 122.96875 286.632812 129.175781 286.324219 C 135.382812 286.015625 138.191406 284.699219 138.976562 281.082031 C 139.761719 277.46875 138.238281 274.992188 134.320312 275.515625 C 126.265625 276.582031 117.824219 272.773438 117.824219 272.773438 C 117.824219 272.773438 117.902344 270.769531 117.902344 268.964844 C 117.902344 267.15625 108.082031 266.054688 108.082031 269.789062 " fill-opacity="1" fill-rule="nonzero"/></g><path fill="#0f3f75" d="M 97.203125 158.050781 C 97.203125 158.050781 94.925781 167.402344 96.730469 172.429688 C 98.539062 177.460938 101.679688 179.972656 102.230469 181.703125 C 102.78125 183.433594 106.789062 210.699219 107.652344 216.121094 C 108.515625 221.542969 104.746094 235.292969 104.746094 240.949219 C 104.746094 246.609375 107.535156 267.273438 107.535156 273.480469 C 107.535156 277.527344 118.886719 277.539062 118.886719 273.359375 C 118.886719 267.308594 121.398438 236 122.890625 230.734375 C 124.382812 225.46875 127.683594 202.527344 127.132812 194.511719 C 126.582031 186.496094 125.355469 164.414062 123.714844 158.621094 C 120.417969 146.953125 97.203125 150.707031 97.203125 158.050781 " fill-opacity="1" fill-rule="nonzero"/><path fill="#0c325d" d="M 122.890625 230.734375 C 121.398438 236 118.886719 267.308594 118.886719 273.359375 C 118.886719 274.644531 117.816406 275.53125 116.335938 276.027344 C 115.0625 258.664062 118.308594 234.152344 120.796875 216.671875 C 123.417969 198.28125 116.570312 182.375 116.570312 182.375 C 112.132812 183.085938 108.515625 182.371094 108.515625 182.371094 C 112.289062 182.488281 117.941406 178.835938 117.941406 178.835938 L 117.351562 168.699219 C 117.351562 168.699219 116.175781 167.402344 108.515625 167.285156 C 102.578125 167.195312 98.054688 164.339844 96.324219 163.058594 C 96.671875 160.234375 97.203125 158.050781 97.203125 158.050781 C 97.203125 150.707031 120.417969 146.953125 123.714844 158.621094 C 125.355469 164.414062 126.582031 186.496094 127.132812 194.511719 C 127.683594 202.527344 124.382812 225.46875 122.890625 230.734375 " fill-opacity="1" fill-rule="nonzero"/><path fill="#0f3f75" d="M 98.753906 94.03125 C 103.449219 95.445312 115.546875 103.128906 117.351562 105.878906 C 119.398438 108.992188 125.464844 114.128906 124.523438 122.613281 C 123.582031 131.101562 121.359375 140.046875 121.359375 148.425781 C 121.359375 152.726562 124.621094 157.289062 124.621094 159.898438 C 124.621094 162.503906 113.707031 165.589844 106.316406 164.375 C 97.203125 162.882812 90.40625 156.519531 91.195312 153.574219 C 91.921875 150.835938 94.964844 144.511719 95.554688 142.402344 C 96.140625 140.292969 97.910156 129.214844 93.550781 121.90625 C 89.191406 114.597656 84.773438 104.804688 85.742188 98.894531 C 86.332031 95.304688 89.796875 91.109375 92.960938 90.90625 C 96.230469 90.699219 98.085938 92.695312 98.753906 94.03125 " fill-opacity="1" fill-rule="nonzero"/><path fill="#0c325d" d="M 124.621094 159.898438 C 124.621094 161.675781 119.550781 163.671875 113.980469 164.382812 C 114.140625 159.476562 113.984375 153.898438 114.054688 151.863281 C 114.160156 148.703125 110.164062 144.183594 110.871094 142.238281 C 111.578125 140.296875 116.175781 141.589844 116.042969 137.527344 C 115.914062 133.464844 109.285156 124.140625 109.285156 124.140625 C 105.980469 119.015625 114.054688 117.191406 119.648438 119.40625 C 121.433594 120.113281 123.082031 121.394531 124.5 122.8125 C 123.546875 131.242188 121.359375 140.113281 121.359375 148.425781 C 121.359375 152.726562 124.621094 157.289062 124.621094 159.898438 " fill-opacity="1" fill-rule="nonzero"/><path fill="#ffc5b3" d="M 97.203125 94.769531 C 97.203125 94.769531 100.972656 90.003906 98.851562 87.460938 C 95.171875 83.046875 117.175781 91.734375 116 92.675781 C 114.820312 93.617188 114.140625 94.121094 113.332031 95.976562 C 112.523438 97.832031 111.980469 99.667969 112.53125 101.726562 C 113.082031 103.785156 110.332031 102.570312 108.359375 101.59375 C 106.386719 100.617188 100 98.570312 98.117188 96.976562 C 96.230469 95.386719 97.203125 94.769531 97.203125 94.769531 " fill-opacity="1" fill-rule="nonzero"/><path fill="#ffc5b3" d="M 108.988281 63.800781 C 114.957031 63.800781 119.527344 67.96875 121.085938 71.300781 C 122.890625 75.171875 121.910156 79.316406 121.910156 79.316406 C 121.910156 79.316406 122.949219 80.34375 123.023438 80.507812 C 123.097656 80.667969 122.230469 82.6875 122.230469 82.789062 C 122.230469 82.890625 121.535156 88.726562 120.269531 90.523438 C 119.003906 92.324219 117.324219 92.441406 116 92.675781 C 114.671875 92.910156 101.859375 90.847656 98.851562 87.460938 C 95.847656 84.070312 94.925781 81.636719 94.925781 78.023438 C 94.925781 74.40625 97.398438 63.800781 108.988281 63.800781 " fill-opacity="1" fill-rule="nonzero"/><path fill="#0f3f75" d="M 123.027344 73.316406 C 122.804688 74.640625 122.539062 76.074219 119.945312 78.246094 C 119.796875 78.371094 119.652344 78.492188 119.515625 78.605469 C 117.550781 80.234375 116.410156 82.648438 116.410156 85.199219 L 116.410156 86.410156 C 116.410156 87.152344 115.421875 87.238281 115.421875 85.988281 C 115.421875 85.65625 115.425781 85.199219 115.371094 84.71875 C 115.152344 82.890625 113.496094 83.011719 112.40625 84.78125 C 111.101562 86.890625 111.425781 91.675781 109.804688 91.824219 C 105.804688 92.183594 100.679688 92.117188 96.953125 86.21875 C 92.542969 79.238281 93.550781 75.351562 96.082031 71.046875 C 96.082031 71.046875 98.261719 63.09375 108.308594 63.09375 C 118.355469 63.09375 120.652344 69.308594 121.09375 69.691406 C 121.179688 69.765625 121.292969 69.773438 121.417969 69.738281 C 122.15625 69.527344 122.898438 70.078125 122.980469 70.84375 C 123.074219 71.75 123.128906 72.726562 123.027344 73.316406 " fill-opacity="1" fill-rule="nonzero"/><path fill="#0c325d" d="M 123.027344 73.316406 C 122.800781 74.644531 122.539062 76.074219 119.945312 78.246094 C 119.796875 78.371094 119.652344 78.492188 119.515625 78.605469 C 117.550781 80.234375 116.410156 82.648438 116.410156 85.199219 L 116.410156 86.410156 C 116.410156 87.152344 115.425781 87.238281 115.425781 85.988281 C 115.425781 85.65625 115.425781 85.199219 115.371094 84.71875 C 115.152344 82.890625 113.496094 83.011719 112.40625 84.777344 C 111.101562 86.890625 111.425781 91.675781 109.804688 91.824219 C 105.804688 92.183594 100.679688 92.117188 96.953125 86.21875 C 92.546875 79.242188 93.550781 75.351562 96.082031 71.050781 C 96.015625 71.199219 93.113281 77.675781 97.398438 79.59375 C 104.171875 82.617188 108.929688 80.761719 111.394531 79.140625 C 112.824219 78.199219 114.371094 77.445312 116.015625 76.976562 C 121.503906 75.417969 122.582031 71.875 122.785156 70.289062 C 122.890625 70.449219 122.957031 70.640625 122.980469 70.84375 C 123.070312 71.75 123.128906 72.726562 123.027344 73.316406 " fill-opacity="1" fill-rule="nonzero"/><path fill="#0f3f75" d="M 121.476562 114.1875 C 124.511719 117.453125 134.617188 130.097656 138.328125 134.636719 C 142.039062 139.175781 139.933594 140.664062 138.636719 141.898438 C 137.339844 143.136719 132.542969 142.703125 126.773438 138.492188 C 121.007812 134.28125 111.132812 127.761719 108.011719 122.28125 C 104.886719 116.800781 111.945312 103.914062 121.476562 114.1875 " fill-opacity="1" fill-rule="nonzero"/><path fill="#57679c" d="M 98.671875 92.394531 C 98.671875 92.394531 98.125 93.550781 99.164062 94.382812 C 100.722656 95.621094 105.339844 98.691406 111.285156 99.480469 C 112.308594 99.617188 113.160156 100.378906 113.871094 101.128906 C 115.160156 102.496094 117.289062 105.003906 119.648438 108.839844 C 119.648438 108.839844 116.757812 105.320312 113.9375 104.148438 C 109.164062 102.164062 103.085938 102.246094 97.949219 97.78125 C 93.253906 93.707031 98.671875 92.394531 98.671875 92.394531 " fill-opacity="1" fill-rule="nonzero"/></svg>